<svg width="64" height="64" viewBox="0 0 64 64" fill="none" xmlns="http://www.w3.org/2000/svg">
<path d="M52.3471 2.91209C51.6324 3.02409 50.3097 3.38143 49.6324 3.64809C49.3071 3.77609 48.3204 4.21876 47.4404 4.62943C46.5604 5.03476 45.5897 5.48809 45.2804 5.62676C44.9711 5.76543 43.5951 6.43743 42.2137 7.12009C40.8377 7.79743 39.3018 8.54409 38.8004 8.77343C36.9924 9.61076 34.9604 10.6614 34.3204 11.0828C33.6057 11.5574 32.7044 12.3361 32.2991 12.8374C32.1497 13.0188 32.0111 13.1681 31.9897 13.1681C31.9684 13.1734 31.7764 13.0401 31.5631 12.8748C31.2857 12.6614 30.6297 12.3094 29.2537 11.6374C28.1978 11.1148 26.0644 10.0534 24.5071 9.26942C20.7577 7.38676 18.1871 6.20276 14.6137 4.73076C12.3364 3.79209 11.6271 3.58409 10.9017 3.64809C10.4324 3.68542 9.78175 3.85609 9.60042 3.98943C9.38708 4.14409 9.23775 4.51209 9.17375 5.04009C9.14175 5.30143 9.03508 5.84542 8.93375 6.24009C8.70442 7.15209 8.58708 7.78676 8.32042 9.52009C7.97375 11.7921 7.90442 12.4588 7.73375 15.1734C7.45642 19.6001 7.37108 22.8108 7.36575 29.3601C7.35508 36.8481 7.50975 41.8614 7.84575 44.5228C8.00575 45.8241 8.14442 46.2881 8.58175 47.0134C8.68842 47.1894 8.84308 47.4668 8.92308 47.6321C9.10975 48.0214 9.40842 48.3521 9.87775 48.7041C10.0857 48.8588 10.3791 49.0774 10.5284 49.1894C10.9444 49.5041 11.6217 49.8241 12.6191 50.1761C13.7711 50.5868 14.3098 50.8001 16.1071 51.5734C17.4244 52.1388 20.1231 53.2534 24.2938 54.9441C25.7284 55.5254 27.9791 56.3094 29.2004 56.6454C29.8137 56.8161 29.8778 56.8268 30.8004 56.8268C31.3284 56.8268 31.8617 56.8108 31.9844 56.7894C32.1764 56.7521 32.2244 56.7628 32.3791 56.8908C32.4751 56.9708 32.6244 57.0668 32.7151 57.0988C32.8057 57.1361 33.0724 57.2428 33.3071 57.3334C34.5924 57.8508 36.2031 58.1174 37.2164 57.9734C38.1017 57.8508 41.2537 56.8748 44.1604 55.8241C45.9471 55.1734 46.7471 54.8694 48.9284 53.9948C52.1017 52.7201 53.5204 52.2774 55.8671 51.8401C56.5124 51.7228 57.1737 51.5841 57.3337 51.5414C58.1444 51.3068 58.6511 50.8588 58.9657 50.0694C59.0404 49.8934 59.1577 49.6641 59.2271 49.5574C59.2964 49.4454 59.3817 49.2428 59.4137 49.1041C59.4458 48.9601 59.5044 48.7948 59.5471 48.7308C59.5897 48.6668 59.7017 48.2988 59.7977 47.9201L59.9738 47.2268L59.9684 45.0134C59.9684 43.7974 59.9364 42.3094 59.8991 41.7068C59.8191 40.2934 59.5631 36.5601 59.3604 33.8134C59.2697 32.6241 59.1418 30.5494 59.0671 29.2001C58.8004 24.2561 58.6511 22.5974 58.1071 18.5068C57.9471 17.3174 57.7444 15.7601 57.6537 15.0401C57.3391 12.5388 57.0671 10.9014 56.6084 8.79476C56.2084 6.93343 55.7977 5.66409 55.2217 4.51209C54.8111 3.68009 54.4857 3.30143 54.0804 3.17343C54.0057 3.15209 53.8884 3.08809 53.8084 3.02943C53.5257 2.82143 53.1418 2.78942 52.3471 2.91209ZM53.1204 5.87743C53.5471 7.04009 53.7444 7.82409 54.0004 9.30676C54.3897 11.6161 54.6351 14.1334 54.9017 18.6134C55.0938 21.8028 55.1151 22.9441 55.1204 31.6268C55.1204 39.8721 55.1311 40.3948 55.2431 42.4001C55.3071 43.5574 55.3871 44.8534 55.4137 45.2801C55.4458 45.7068 55.4884 46.2934 55.5044 46.5921L55.5364 47.1308L55.3018 47.2428C55.1737 47.3068 54.4324 47.4881 53.6538 47.6588C52.0378 48.0001 50.2404 48.4481 47.8671 49.0988C46.9604 49.3494 45.0137 49.8508 43.5471 50.2134C38.9018 51.3601 35.4777 52.3521 34.6458 52.7894C34.4964 52.8694 34.3577 52.9388 34.3417 52.9494C34.3204 52.9601 34.2884 52.7788 34.2724 52.5494C34.2511 52.3201 34.1391 51.4614 34.0271 50.6401C33.4618 46.6134 33.3711 45.5948 33.2537 41.8668C33.2111 40.4428 33.1204 38.1174 33.0564 36.6934C32.9231 33.8134 32.8911 28.8801 32.9818 25.0668C33.0297 22.8854 32.9977 21.7121 32.7951 18.8268C32.7417 17.9894 32.6777 16.8961 32.6564 16.3948L32.6244 15.4881L32.8857 15.3868C33.2644 15.2481 34.2724 14.7361 35.0404 14.2934C35.4084 14.0854 36.8324 13.3494 38.2137 12.6561C41.1844 11.1681 41.8671 10.8054 43.2804 9.97343C45.2271 8.83209 46.6244 8.11743 49.9738 6.56009C51.1257 6.02676 52.1231 5.72276 52.7577 5.71209C53.0457 5.70676 53.0564 5.71209 53.1204 5.87743ZM11.1844 5.92009C11.6644 6.07476 12.2084 6.32009 13.7071 7.05609C15.0564 7.71743 18.1124 9.08809 20.5604 10.1334C21.2644 10.4374 22.5017 10.9814 23.3071 11.3441C26.5231 12.8001 27.3604 13.1574 29.8404 14.1334C30.4591 14.3734 30.9818 14.5868 31.0031 14.6081C31.0244 14.6294 31.0084 14.8641 30.9604 15.1254C30.7951 16.1281 30.7684 16.6614 30.7204 20.0801C30.6938 22.0161 30.6351 24.2241 30.5924 24.9868C30.4484 27.4028 30.4004 28.9388 30.3471 32.9601C30.3204 35.1148 30.2564 38.0214 30.2031 39.4134C30.0751 43.1414 30.0804 46.3041 30.2297 48.5334C30.2937 49.5148 30.3631 50.7734 30.3791 51.3281C30.4164 52.3094 30.4164 52.3361 30.3151 52.2988C29.9257 52.1388 28.7257 51.7121 28.2137 51.5521C27.8778 51.4401 26.6297 51.0348 25.4404 50.6401C24.2511 50.2508 22.3951 49.6534 21.3071 49.3121C18.4058 48.4108 17.5737 48.1174 15.5471 47.3068C15.0191 47.0934 14.1444 46.7574 13.6004 46.5494C12.5071 46.1388 12.3098 46.0374 11.8351 45.6428C11.4564 45.3281 11.3657 45.1574 11.1737 44.3681C10.9017 43.2428 10.7631 41.9948 10.5071 38.3201C10.2724 34.9334 10.2351 34.0268 10.0804 28.4534C10.0484 27.3654 9.98975 25.9148 9.94708 25.2268C9.76042 22.2988 9.74442 13.6001 9.92042 11.4668C10.1071 9.21076 10.3044 7.63209 10.5444 6.49609C10.7044 5.72276 10.6724 5.74943 11.1844 5.92009Z" fill="black"/>
</svg>
