<svg width="1013" height="533" viewBox="0 0 1013 533" fill="none" xmlns="http://www.w3.org/2000/svg">
<g clip-path="url(#clip0_99:2547)">
<rect width="1013" height="533" rx="12" fill="#059669"/>
<path d="M305.44 200.244L308.752 199.704V173.496L305.44 172.992V172.2H316.744C320.296 172.2 322.936 172.956 324.664 174.468C326.392 175.98 327.256 178.164 327.256 181.02C327.256 183.876 326.392 186.06 324.664 187.572C322.936 189.084 320.296 189.84 316.744 189.84H312.712V199.704L316.024 200.244V201H305.44V200.244ZM316.24 188.976C320.68 188.976 322.9 186.564 322.9 181.74V180.3C322.9 175.5 320.68 173.1 316.24 173.1H312.712V188.976H316.24ZM329.581 200.28L332.101 199.92V183.432L329.581 183.072V182.352H335.701V185.124C337.213 183.06 338.917 182.028 340.813 182.028C341.725 182.028 342.529 182.268 343.225 182.748C343.921 183.204 344.269 183.864 344.269 184.728C344.269 185.352 344.065 185.88 343.657 186.312C343.249 186.72 342.709 186.924 342.037 186.924C341.269 186.924 340.645 186.624 340.165 186.024C340.429 185.688 340.561 185.328 340.561 184.944C340.561 184.536 340.417 184.212 340.129 183.972C339.865 183.708 339.505 183.576 339.049 183.576C338.545 183.576 338.029 183.816 337.501 184.296C336.973 184.752 336.373 185.472 335.701 186.456V199.92L338.581 200.28V201H329.581V200.28ZM349.359 178.176C348.687 178.176 348.111 177.948 347.631 177.492C347.151 177.012 346.911 176.436 346.911 175.764C346.911 175.092 347.139 174.528 347.595 174.072C348.075 173.616 348.663 173.388 349.359 173.388C350.007 173.388 350.559 173.616 351.015 174.072C351.471 174.528 351.699 175.092 351.699 175.764C351.699 176.436 351.471 177.012 351.015 177.492C350.559 177.948 350.007 178.176 349.359 178.176ZM345.543 201V200.28L348.063 199.92V183.468L345.543 183.108V182.388H351.663V199.92L354.183 200.28V201H345.543ZM365.093 201.36C363.389 201.36 361.889 200.964 360.593 200.172C359.297 199.356 358.289 198.228 357.569 196.788C356.849 195.324 356.489 193.62 356.489 191.676C356.489 189.732 356.849 188.04 357.569 186.6C358.289 185.136 359.297 184.008 360.593 183.216C361.889 182.424 363.389 182.028 365.093 182.028C366.485 182.028 367.697 182.4 368.729 183.144C369.761 183.864 370.577 184.86 371.177 186.132V173.28L368.657 172.92V172.2H374.777V199.92L377.297 200.28V201H371.177V197.256C370.577 198.528 369.761 199.536 368.729 200.28C367.697 201 366.485 201.36 365.093 201.36ZM365.453 200.46C366.509 200.46 367.457 200.16 368.297 199.56C369.161 198.936 369.845 198.12 370.349 197.112C370.877 196.08 371.153 194.964 371.177 193.764V189.624C371.153 188.424 370.877 187.32 370.349 186.312C369.845 185.28 369.161 184.464 368.297 183.864C367.457 183.24 366.509 182.928 365.453 182.928C362.117 182.928 360.449 185.244 360.449 189.876V193.476C360.449 198.132 362.117 200.46 365.453 200.46ZM379.011 200.28L381.531 199.92V183.432L379.011 183.072V182.352H385.131V185.124C386.643 183.06 388.347 182.028 390.243 182.028C391.155 182.028 391.959 182.268 392.655 182.748C393.351 183.204 393.699 183.864 393.699 184.728C393.699 185.352 393.495 185.88 393.087 186.312C392.679 186.72 392.139 186.924 391.467 186.924C390.699 186.924 390.075 186.624 389.595 186.024C389.859 185.688 389.991 185.328 389.991 184.944C389.991 184.536 389.847 184.212 389.559 183.972C389.295 183.708 388.935 183.576 388.479 183.576C387.975 183.576 387.459 183.816 386.931 184.296C386.403 184.752 385.803 185.472 385.131 186.456V199.92L388.011 200.28V201H379.011V200.28ZM402.677 201.36C400.949 201.36 399.581 200.928 398.573 200.064C397.589 199.2 397.097 197.916 397.097 196.212V183.432L394.577 183.072V182.352H400.697V196.14C400.697 197.364 400.949 198.324 401.453 199.02C401.957 199.716 402.737 200.064 403.793 200.064C404.897 200.064 405.953 199.704 406.961 198.984C407.993 198.24 408.905 197.328 409.697 196.248V183.432L407.177 183.072V182.352H413.297V199.92L415.817 200.28V201H409.697V197.544C408.833 198.744 407.789 199.68 406.565 200.352C405.365 201.024 404.069 201.36 402.677 201.36ZM418.115 201V200.136L429.275 183.252H422.147L419.195 188.832H418.295L418.763 182.352H433.487V183.252L422.327 200.136H430.031L433.199 194.124H434.135L433.451 201H418.115ZM428.181 179.796L423.861 174.18L424.617 173.676L428.865 177.06L433.149 173.676L433.905 174.18L429.585 179.796H428.181ZM440.133 178.176C439.461 178.176 438.885 177.948 438.405 177.492C437.925 177.012 437.685 176.436 437.685 175.764C437.685 175.092 437.913 174.528 438.369 174.072C438.849 173.616 439.437 173.388 440.133 173.388C440.781 173.388 441.333 173.616 441.789 174.072C442.245 174.528 442.473 175.092 442.473 175.764C442.473 176.436 442.245 177.012 441.789 177.492C441.333 177.948 440.781 178.176 440.133 178.176ZM436.317 201V200.28L438.837 199.92V183.468L436.317 183.108V182.388H442.437V199.92L444.957 200.28V201H436.317ZM462.968 201.36C461 201.36 459.356 200.94 458.036 200.1C456.716 199.26 456.056 198.168 456.056 196.824C456.056 196.128 456.236 195.588 456.596 195.204C456.98 194.796 457.484 194.592 458.108 194.592C458.588 194.592 458.996 194.712 459.332 194.952C459.668 195.192 459.908 195.528 460.052 195.96C459.524 196.536 459.26 197.148 459.26 197.796C459.26 198.54 459.596 199.188 460.268 199.74C460.94 200.292 461.84 200.568 462.968 200.568C464.48 200.568 465.716 200.232 466.676 199.56C467.636 198.864 468.116 197.94 468.116 196.788C468.116 196.116 467.912 195.612 467.504 195.276C467.096 194.94 466.304 194.556 465.128 194.124L459.692 192.144C457.556 191.376 456.488 189.948 456.488 187.86C456.488 186.156 457.076 184.764 458.252 183.684C459.428 182.58 461.048 182.028 463.112 182.028C464.816 182.028 466.268 182.424 467.468 183.216C468.692 183.984 469.304 185.088 469.304 186.528C469.304 187.104 469.148 187.572 468.836 187.932C468.524 188.268 468.116 188.436 467.612 188.436C467.108 188.436 466.688 188.304 466.352 188.04C466.04 187.752 465.884 187.368 465.884 186.888C466.196 186.648 466.412 186.396 466.532 186.132C466.652 185.844 466.712 185.508 466.712 185.124C466.712 184.452 466.412 183.9 465.812 183.468C465.236 183.036 464.336 182.82 463.112 182.82C462.056 182.82 461.144 182.988 460.376 183.324C459.632 183.636 459.068 184.056 458.684 184.584C458.3 185.112 458.108 185.652 458.108 186.204C458.108 186.78 458.312 187.236 458.72 187.572C459.152 187.908 459.932 188.28 461.06 188.688L466.1 190.488C467.276 190.92 468.164 191.52 468.764 192.288C469.364 193.056 469.664 194.052 469.664 195.276C469.664 197.028 469.112 198.48 468.008 199.632C466.904 200.784 465.224 201.36 462.968 201.36ZM482.501 201.36C480.725 201.36 479.117 200.964 477.677 200.172C476.237 199.356 475.097 198.216 474.257 196.752C473.417 195.288 472.997 193.596 472.997 191.676C472.997 189.756 473.405 188.076 474.221 186.636C475.061 185.172 476.177 184.044 477.569 183.252C478.985 182.436 480.557 182.028 482.285 182.028C483.797 182.028 485.153 182.364 486.353 183.036C487.553 183.708 488.489 184.644 489.161 185.844C489.833 187.02 490.181 188.376 490.205 189.912H476.957V193.476C476.957 195.588 477.425 197.304 478.361 198.624C479.321 199.92 480.701 200.568 482.501 200.568C484.157 200.568 485.621 200.1 486.893 199.164C488.165 198.228 488.945 197.016 489.233 195.528H490.061C489.725 197.304 488.873 198.72 487.505 199.776C486.137 200.832 484.469 201.36 482.501 201.36ZM486.245 189.012C486.245 186.924 485.921 185.376 485.273 184.368C484.625 183.336 483.617 182.82 482.249 182.82C480.641 182.82 479.393 183.384 478.505 184.512C477.617 185.64 477.113 187.14 476.993 189.012H486.245ZM501.214 200.28L503.734 199.92V183.432L501.214 183.072V182.352H507.334V186.24C508.222 184.944 509.266 183.924 510.466 183.18C511.666 182.412 512.962 182.028 514.354 182.028C516.082 182.028 517.438 182.46 518.422 183.324C519.43 184.188 519.934 185.472 519.934 187.176V199.92L522.454 200.28V201H514.174V200.28L516.334 199.92V187.248C516.334 186 516.082 185.04 515.578 184.368C515.074 183.672 514.294 183.324 513.238 183.324C512.134 183.324 511.066 183.732 510.034 184.548C509.026 185.34 508.126 186.324 507.334 187.5V199.92L509.494 200.28V201H501.214V200.28ZM530.006 201.36C528.47 201.36 527.21 200.964 526.226 200.172C525.242 199.356 524.75 198.156 524.75 196.572C524.75 194.316 525.698 192.72 527.594 191.784C529.49 190.824 531.686 190.344 534.182 190.344H536.594V187.572C536.594 186.324 536.45 185.364 536.162 184.692C535.898 183.996 535.478 183.516 534.902 183.252C534.326 182.964 533.546 182.82 532.562 182.82C531.434 182.82 530.594 183.048 530.042 183.504C529.49 183.936 529.214 184.524 529.214 185.268C529.214 185.964 529.55 186.42 530.222 186.636C530.222 187.236 529.994 187.764 529.538 188.22C529.082 188.676 528.542 188.904 527.918 188.904C527.246 188.904 526.706 188.724 526.298 188.364C525.89 187.98 525.686 187.404 525.686 186.636C525.686 185.244 526.382 184.128 527.774 183.288C529.166 182.448 530.906 182.028 532.994 182.028C537.794 182.028 540.194 184.116 540.194 188.292V198.588C540.194 199.116 540.302 199.524 540.518 199.812C540.758 200.076 541.094 200.208 541.526 200.208C541.934 200.208 542.258 200.076 542.498 199.812C542.738 199.524 542.858 199.14 542.858 198.66H543.614C543.614 199.5 543.338 200.16 542.786 200.64C542.258 201.12 541.514 201.36 540.554 201.36C539.45 201.36 538.514 201.048 537.746 200.424C537.002 199.776 536.618 198.78 536.594 197.436C536.018 198.66 535.13 199.62 533.93 200.316C532.754 201.012 531.446 201.36 530.006 201.36ZM531.986 199.776C532.634 199.776 533.294 199.584 533.966 199.2C534.662 198.816 535.25 198.264 535.73 197.544C536.21 196.8 536.498 195.912 536.594 194.88V191.136H534.182C532.214 191.136 530.738 191.58 529.754 192.468C528.794 193.332 528.314 194.556 528.314 196.14C528.314 197.46 528.626 198.396 529.25 198.948C529.874 199.5 530.786 199.776 531.986 199.776ZM552.16 201.36C550.192 201.36 548.548 200.94 547.228 200.1C545.908 199.26 545.248 198.168 545.248 196.824C545.248 196.128 545.428 195.588 545.788 195.204C546.172 194.796 546.676 194.592 547.3 194.592C547.78 194.592 548.188 194.712 548.524 194.952C548.86 195.192 549.1 195.528 549.244 195.96C548.716 196.536 548.452 197.148 548.452 197.796C548.452 198.54 548.788 199.188 549.46 199.74C550.132 200.292 551.032 200.568 552.16 200.568C553.672 200.568 554.908 200.232 555.868 199.56C556.828 198.864 557.308 197.94 557.308 196.788C557.308 196.116 557.104 195.612 556.696 195.276C556.288 194.94 555.496 194.556 554.32 194.124L548.884 192.144C546.748 191.376 545.68 189.948 545.68 187.86C545.68 186.156 546.268 184.764 547.444 183.684C548.62 182.58 550.24 182.028 552.304 182.028C554.008 182.028 555.46 182.424 556.66 183.216C557.884 183.984 558.496 185.088 558.496 186.528C558.496 187.104 558.34 187.572 558.028 187.932C557.716 188.268 557.308 188.436 556.804 188.436C556.3 188.436 555.88 188.304 555.544 188.04C555.232 187.752 555.076 187.368 555.076 186.888C555.388 186.648 555.604 186.396 555.724 186.132C555.844 185.844 555.904 185.508 555.904 185.124C555.904 184.452 555.604 183.9 555.004 183.468C554.428 183.036 553.528 182.82 552.304 182.82C551.248 182.82 550.336 182.988 549.568 183.324C548.824 183.636 548.26 184.056 547.876 184.584C547.492 185.112 547.3 185.652 547.3 186.204C547.3 186.78 547.504 187.236 547.912 187.572C548.344 187.908 549.124 188.28 550.252 188.688L555.292 190.488C556.468 190.92 557.356 191.52 557.956 192.288C558.556 193.056 558.856 194.052 558.856 195.276C558.856 197.028 558.304 198.48 557.2 199.632C556.096 200.784 554.416 201.36 552.16 201.36ZM553.513 179.796L549.193 174.18L549.949 173.676L554.197 177.06L558.481 173.676L559.237 174.18L554.917 179.796H553.513ZM571.693 201.36C569.917 201.36 568.309 200.964 566.869 200.172C565.429 199.356 564.289 198.216 563.449 196.752C562.609 195.288 562.189 193.596 562.189 191.676C562.189 189.756 562.597 188.076 563.413 186.636C564.253 185.172 565.369 184.044 566.761 183.252C568.177 182.436 569.749 182.028 571.477 182.028C572.989 182.028 574.345 182.364 575.545 183.036C576.745 183.708 577.681 184.644 578.353 185.844C579.025 187.02 579.373 188.376 579.397 189.912H566.149V193.476C566.149 195.588 566.617 197.304 567.553 198.624C568.513 199.92 569.893 200.568 571.693 200.568C573.349 200.568 574.813 200.1 576.085 199.164C577.357 198.228 578.137 197.016 578.425 195.528H579.253C578.917 197.304 578.065 198.72 576.697 199.776C575.329 200.832 573.661 201.36 571.693 201.36ZM575.437 189.012C575.437 186.924 575.113 185.376 574.465 184.368C573.817 183.336 572.809 182.82 571.441 182.82C569.833 182.82 568.585 183.384 567.697 184.512C566.809 185.64 566.305 187.14 566.185 189.012H575.437ZM581.792 200.28L584.312 199.92V183.432L581.792 183.072V182.352H587.912V185.664C588.776 184.536 589.748 183.648 590.828 183C591.932 182.352 593.12 182.028 594.392 182.028C595.856 182.028 597.044 182.352 597.956 183C598.892 183.624 599.48 184.572 599.72 185.844C600.584 184.668 601.568 183.744 602.672 183.072C603.776 182.376 604.988 182.028 606.308 182.028C608.012 182.028 609.332 182.46 610.268 183.324C611.228 184.164 611.708 185.448 611.708 187.176V199.92L614.228 200.28V201H605.948V200.28L608.108 199.92V187.248C608.108 185.976 607.88 185.004 607.424 184.332C606.968 183.66 606.224 183.324 605.192 183.324C604.208 183.324 603.248 183.66 602.312 184.332C601.4 185.004 600.572 185.868 599.828 186.924V199.92L601.988 200.28V201H594.032V200.28L596.192 199.92V187.248C596.192 185.976 595.964 185.004 595.508 184.332C595.052 183.66 594.308 183.324 593.276 183.324C592.292 183.324 591.332 183.66 590.396 184.332C589.484 185.004 588.656 185.868 587.912 186.924V199.92L590.072 200.28V201H581.792V200.28ZM631.924 201.36C630.34 201.36 629.068 200.964 628.108 200.172C627.172 199.38 626.704 198.12 626.704 196.392V183.432L624.148 183.072V182.352H626.704V179.364L630.304 178.464V182.352H634.984V183.072L630.304 183.432V196.32C630.304 198.864 631.216 200.136 633.04 200.136C633.424 200.136 633.784 200.076 634.12 199.956C634.48 199.836 634.756 199.716 634.948 199.596C635.164 199.476 635.296 199.392 635.344 199.344L635.812 199.92C634.732 200.88 633.436 201.36 631.924 201.36ZM640.804 178.176C640.132 178.176 639.556 177.948 639.076 177.492C638.596 177.012 638.356 176.436 638.356 175.764C638.356 175.092 638.584 174.528 639.04 174.072C639.52 173.616 640.108 173.388 640.804 173.388C641.452 173.388 642.004 173.616 642.46 174.072C642.916 174.528 643.144 175.092 643.144 175.764C643.144 176.436 642.916 177.012 642.46 177.492C642.004 177.948 641.452 178.176 640.804 178.176ZM636.988 201V200.28L639.508 199.92V183.468L636.988 183.108V182.388H643.108V199.92L645.628 200.28V201H636.988ZM647.359 200.28L649.879 199.92V183.432L647.359 183.072V182.352H653.479V185.664C654.343 184.536 655.315 183.648 656.395 183C657.499 182.352 658.687 182.028 659.959 182.028C661.423 182.028 662.611 182.352 663.523 183C664.459 183.624 665.047 184.572 665.287 185.844C666.151 184.668 667.135 183.744 668.239 183.072C669.343 182.376 670.555 182.028 671.875 182.028C673.579 182.028 674.899 182.46 675.835 183.324C676.795 184.164 677.275 185.448 677.275 187.176V199.92L679.795 200.28V201H671.515V200.28L673.675 199.92V187.248C673.675 185.976 673.447 185.004 672.991 184.332C672.535 183.66 671.791 183.324 670.759 183.324C669.775 183.324 668.815 183.66 667.879 184.332C666.967 185.004 666.139 185.868 665.395 186.924V199.92L667.555 200.28V201H659.599V200.28L661.759 199.92V187.248C661.759 185.976 661.531 185.004 661.075 184.332C660.619 183.66 659.875 183.324 658.843 183.324C657.859 183.324 656.899 183.66 655.963 184.332C655.051 185.004 654.223 185.868 653.479 186.924V199.92L655.639 200.28V201H647.359V200.28ZM689.165 201.36C687.437 201.36 686.069 200.928 685.061 200.064C684.077 199.2 683.585 197.916 683.585 196.212V183.432L681.065 183.072V182.352H687.185V196.14C687.185 197.364 687.437 198.324 687.941 199.02C688.445 199.716 689.225 200.064 690.281 200.064C691.385 200.064 692.441 199.704 693.449 198.984C694.481 198.24 695.393 197.328 696.185 196.248V183.432L693.665 183.072V182.352H699.785V199.92L702.305 200.28V201H696.185V197.544C695.321 198.744 694.277 199.68 693.053 200.352C691.853 201.024 690.557 201.36 689.165 201.36Z" fill="white"/>
<path d="M314.176 239.909V248.449C314.176 250.366 312.859 251.747 310.673 251.747C308.487 251.747 307.17 250.366 307.17 248.449V239.909H305.585V248.577C305.585 251.261 307.592 253.23 310.673 253.23C313.754 253.23 315.761 251.261 315.761 248.577V239.909H314.176ZM318.722 253H320.231V249.325L321.286 248.347L324.961 253H326.879L322.423 247.375L326.572 243.182H324.705L320.41 247.554H320.231V239.909H318.722V253ZM332.098 253.205C334.757 253.205 336.547 251.185 336.547 248.142C336.547 245.074 334.757 243.054 332.098 243.054C329.439 243.054 327.649 245.074 327.649 248.142C327.649 251.185 329.439 253.205 332.098 253.205ZM332.098 251.849C330.078 251.849 329.157 250.111 329.157 248.142C329.157 246.173 330.078 244.409 332.098 244.409C334.118 244.409 335.038 246.173 335.038 248.142C335.038 250.111 334.118 251.849 332.098 251.849ZM340.358 239.909H338.849V253H340.358V239.909ZM343.121 253H344.629V243.182H343.121V253ZM343.888 241.545C344.476 241.545 344.962 241.085 344.962 240.523C344.962 239.96 344.476 239.5 343.888 239.5C343.3 239.5 342.814 239.96 342.814 240.523C342.814 241.085 343.3 241.545 343.888 241.545ZM347.392 253H348.901V249.325L349.956 248.347L353.631 253H355.549L351.093 247.375L355.242 243.182H353.375L349.08 247.554H348.901V239.909H347.392V253ZM360.768 253.205C363.427 253.205 365.217 251.185 365.217 248.142C365.217 245.074 363.427 243.054 360.768 243.054C358.109 243.054 356.319 245.074 356.319 248.142C356.319 251.185 358.109 253.205 360.768 253.205ZM360.768 251.849C358.748 251.849 357.827 250.111 357.827 248.142C357.827 246.173 358.748 244.409 360.768 244.409C362.788 244.409 363.708 246.173 363.708 248.142C363.708 250.111 362.788 251.849 360.768 251.849ZM379.536 245.381C379.063 243.987 378.002 243.054 376.059 243.054C373.988 243.054 372.454 244.23 372.454 245.892C372.454 247.247 373.259 248.155 375.062 248.577L376.698 248.96C377.689 249.19 378.156 249.663 378.156 250.341C378.156 251.185 377.261 251.875 375.855 251.875C374.621 251.875 373.847 251.344 373.579 250.29L372.147 250.648C372.499 252.316 373.873 253.205 375.88 253.205C378.162 253.205 379.715 251.958 379.715 250.264C379.715 248.896 378.859 248.033 377.107 247.605L375.65 247.247C374.487 246.96 373.963 246.57 373.963 245.815C373.963 244.972 374.857 244.358 376.059 244.358C377.376 244.358 377.919 245.087 378.181 245.764L379.536 245.381ZM386.256 243.182H384.159V240.83H382.651V243.182H381.168V244.46H382.651V250.597C382.651 252.31 384.032 253.128 385.31 253.128C385.873 253.128 386.23 253.026 386.435 252.949L386.128 251.594C386 251.619 385.796 251.67 385.463 251.67C384.799 251.67 384.159 251.466 384.159 250.188V244.46H386.256V243.182ZM392.536 253.205C394.531 253.205 395.988 252.207 396.448 250.724L394.991 250.315C394.607 251.338 393.719 251.849 392.536 251.849C390.766 251.849 389.545 250.705 389.474 248.602H396.602V247.963C396.602 244.307 394.428 243.054 392.383 243.054C389.724 243.054 387.96 245.151 387.96 248.168C387.96 251.185 389.698 253.205 392.536 253.205ZM389.474 247.298C389.577 245.771 390.657 244.409 392.383 244.409C394.019 244.409 395.067 245.636 395.067 247.298H389.474ZM403.678 253H411.374V251.594H405.774V251.491L411.195 244.384V243.182H403.857V244.588H409.251V244.69L403.678 251.849V253ZM416.586 253.23C418.299 253.23 419.194 252.31 419.501 251.67H419.578V253H421.086V246.531C421.086 243.412 418.708 243.054 417.456 243.054C415.973 243.054 414.285 243.565 413.518 245.355L414.95 245.866C415.282 245.151 416.069 244.384 417.507 244.384C418.894 244.384 419.578 245.119 419.578 246.378V246.429C419.578 247.158 418.836 247.094 417.047 247.324C415.225 247.56 413.237 247.963 413.237 250.213C413.237 252.131 414.72 253.23 416.586 253.23ZM416.816 251.875C415.615 251.875 414.745 251.338 414.745 250.29C414.745 249.139 415.794 248.781 416.97 248.628C417.609 248.551 419.322 248.372 419.578 248.065V249.446C419.578 250.673 418.606 251.875 416.816 251.875ZM423.84 253H425.348V243.182H423.84V253ZM424.607 241.545C425.195 241.545 425.681 241.085 425.681 240.523C425.681 239.96 425.195 239.5 424.607 239.5C424.019 239.5 423.533 239.96 423.533 240.523C423.533 241.085 424.019 241.545 424.607 241.545ZM429.62 247.094C429.62 245.381 430.681 244.409 432.125 244.409C433.525 244.409 434.375 245.323 434.375 246.864V253H435.884V246.761C435.884 244.256 434.548 243.054 432.56 243.054C431.077 243.054 430.157 243.719 429.696 244.716H429.569V243.182H428.111V253H429.62V247.094ZM442.91 243.182H440.814V240.83H439.305V243.182H437.822V244.46H439.305V250.597C439.305 252.31 440.686 253.128 441.964 253.128C442.527 253.128 442.885 253.026 443.089 252.949L442.782 251.594C442.655 251.619 442.45 251.67 442.118 251.67C441.453 251.67 440.814 251.466 440.814 250.188V244.46H442.91V243.182ZM449.191 253.205C451.185 253.205 452.642 252.207 453.102 250.724L451.645 250.315C451.262 251.338 450.373 251.849 449.191 251.849C447.42 251.849 446.199 250.705 446.129 248.602H453.256V247.963C453.256 244.307 451.083 243.054 449.037 243.054C446.378 243.054 444.614 245.151 444.614 248.168C444.614 251.185 446.352 253.205 449.191 253.205ZM446.129 247.298C446.231 245.771 447.311 244.409 449.037 244.409C450.673 244.409 451.722 245.636 451.722 247.298H446.129ZM455.551 253H457.059V246.787C457.059 245.457 458.107 244.486 459.539 244.486C459.942 244.486 460.357 244.562 460.46 244.588V243.054C460.287 243.041 459.891 243.028 459.667 243.028C458.491 243.028 457.468 243.693 457.11 244.665H457.008V243.182H455.551V253ZM466.066 253.205C468.06 253.205 469.517 252.207 469.977 250.724L468.52 250.315C468.137 251.338 467.248 251.849 466.066 251.849C464.295 251.849 463.074 250.705 463.004 248.602H470.131V247.963C470.131 244.307 467.958 243.054 465.912 243.054C463.253 243.054 461.489 245.151 461.489 248.168C461.489 251.185 463.227 253.205 466.066 253.205ZM463.004 247.298C463.106 245.771 464.186 244.409 465.912 244.409C467.548 244.409 468.597 245.636 468.597 247.298H463.004ZM479.38 245.381C478.907 243.987 477.846 243.054 475.903 243.054C473.832 243.054 472.298 244.23 472.298 245.892C472.298 247.247 473.103 248.155 474.906 248.577L476.542 248.96C477.533 249.19 477.999 249.663 477.999 250.341C477.999 251.185 477.105 251.875 475.698 251.875C474.465 251.875 473.691 251.344 473.423 250.29L471.991 250.648C472.343 252.316 473.717 253.205 475.724 253.205C478.006 253.205 479.559 251.958 479.559 250.264C479.559 248.896 478.703 248.033 476.951 247.605L475.494 247.247C474.33 246.96 473.806 246.57 473.806 245.815C473.806 244.972 474.701 244.358 475.903 244.358C477.22 244.358 477.763 245.087 478.025 245.764L479.38 245.381ZM485.819 253.205C488.478 253.205 490.267 251.185 490.267 248.142C490.267 245.074 488.478 243.054 485.819 243.054C483.159 243.054 481.37 245.074 481.37 248.142C481.37 251.185 483.159 253.205 485.819 253.205ZM485.819 251.849C483.799 251.849 482.878 250.111 482.878 248.142C482.878 246.173 483.799 244.409 485.819 244.409C487.838 244.409 488.759 246.173 488.759 248.142C488.759 250.111 487.838 251.849 485.819 251.849ZM500.247 243.182H498.611L495.9 251.006H495.798L493.088 243.182H491.452L495.082 253H496.616L500.247 243.182ZM504.828 253.23C506.542 253.23 507.436 252.31 507.743 251.67H507.82V253H509.328V246.531C509.328 243.412 506.951 243.054 505.698 243.054C504.215 243.054 502.527 243.565 501.76 245.355L503.192 245.866C503.525 245.151 504.311 244.384 505.749 244.384C507.136 244.384 507.82 245.119 507.82 246.378V246.429C507.82 247.158 507.078 247.094 505.289 247.324C503.467 247.56 501.479 247.963 501.479 250.213C501.479 252.131 502.962 253.23 504.828 253.23ZM505.059 251.875C503.857 251.875 502.988 251.338 502.988 250.29C502.988 249.139 504.036 248.781 505.212 248.628C505.851 248.551 507.564 248.372 507.82 248.065V249.446C507.82 250.673 506.848 251.875 505.059 251.875ZM513.59 247.094C513.59 245.381 514.651 244.409 516.096 244.409C517.496 244.409 518.346 245.323 518.346 246.864V253H519.855V246.761C519.855 244.256 518.519 243.054 516.531 243.054C515.048 243.054 514.127 243.719 513.667 244.716H513.539V243.182H512.082V253H513.59V247.094ZM522.611 253H524.12V243.182H522.611V253ZM523.378 241.545C523.966 241.545 524.452 241.085 524.452 240.523C524.452 239.96 523.966 239.5 523.378 239.5C522.79 239.5 522.304 239.96 522.304 240.523C522.304 241.085 522.79 241.545 523.378 241.545ZM531.664 253H539.36V251.594H533.76V251.491L539.181 244.384V243.182H531.843V244.588H537.238V244.69L531.664 251.849V253ZM544.573 253.23C546.286 253.23 547.181 252.31 547.487 251.67H547.564V253H549.073V246.531C549.073 243.412 546.695 243.054 545.442 243.054C543.959 243.054 542.271 243.565 541.504 245.355L542.936 245.866C543.269 245.151 544.055 244.384 545.493 244.384C546.88 244.384 547.564 245.119 547.564 246.378V246.429C547.564 247.158 546.823 247.094 545.033 247.324C543.211 247.56 541.223 247.963 541.223 250.213C541.223 252.131 542.706 253.23 544.573 253.23ZM544.803 251.875C543.601 251.875 542.732 251.338 542.732 250.29C542.732 249.139 543.78 248.781 544.956 248.628C545.595 248.551 547.308 248.372 547.564 248.065V249.446C547.564 250.673 546.593 251.875 544.803 251.875ZM556.888 253H558.397V246.787C558.397 245.457 559.445 244.486 560.877 244.486C561.28 244.486 561.695 244.562 561.798 244.588V243.054C561.625 243.041 561.229 243.028 561.005 243.028C559.829 243.028 558.806 243.693 558.448 244.665H558.346V243.182H556.888V253ZM566.475 253.23C568.188 253.23 569.083 252.31 569.39 251.67H569.466V253H570.975V246.531C570.975 243.412 568.597 243.054 567.344 243.054C565.861 243.054 564.174 243.565 563.407 245.355L564.839 245.866C565.171 245.151 565.957 244.384 567.395 244.384C568.782 244.384 569.466 245.119 569.466 246.378V246.429C569.466 247.158 568.725 247.094 566.935 247.324C565.113 247.56 563.126 247.963 563.126 250.213C563.126 252.131 564.608 253.23 566.475 253.23ZM566.705 251.875C565.503 251.875 564.634 251.338 564.634 250.29C564.634 249.139 565.682 248.781 566.858 248.628C567.498 248.551 569.211 248.372 569.466 248.065V249.446C569.466 250.673 568.495 251.875 566.705 251.875ZM577.436 253.205C579.328 253.205 579.967 252.028 580.299 251.491H580.478V253H581.936V239.909H580.427V244.741H580.299C579.967 244.23 579.379 243.054 577.461 243.054C574.981 243.054 573.268 245.023 573.268 248.116C573.268 251.236 574.981 253.205 577.436 253.205ZM577.64 251.849C575.748 251.849 574.777 250.188 574.777 248.091C574.777 246.02 575.723 244.409 577.64 244.409C579.481 244.409 580.453 245.892 580.453 248.091C580.453 250.315 579.456 251.849 577.64 251.849ZM596.925 245.381C596.452 243.987 595.391 243.054 593.448 243.054C591.377 243.054 589.843 244.23 589.843 245.892C589.843 247.247 590.648 248.155 592.451 248.577L594.087 248.96C595.078 249.19 595.544 249.663 595.544 250.341C595.544 251.185 594.65 251.875 593.243 251.875C592.01 251.875 591.236 251.344 590.968 250.29L589.536 250.648C589.887 252.316 591.262 253.205 593.269 253.205C595.551 253.205 597.104 251.958 597.104 250.264C597.104 248.896 596.248 248.033 594.496 247.605L593.039 247.247C591.875 246.96 591.351 246.57 591.351 245.815C591.351 244.972 592.246 244.358 593.448 244.358C594.765 244.358 595.308 245.087 595.57 245.764L596.925 245.381ZM602.264 253.23C603.977 253.23 604.872 252.31 605.179 251.67H605.256V253H606.764V246.531C606.764 243.412 604.386 243.054 603.133 243.054C601.65 243.054 599.963 243.565 599.196 245.355L600.628 245.866C600.96 245.151 601.746 244.384 603.184 244.384C604.572 244.384 605.256 245.119 605.256 246.378V246.429C605.256 247.158 604.514 247.094 602.724 247.324C600.903 247.56 598.915 247.963 598.915 250.213C598.915 252.131 600.398 253.23 602.264 253.23ZM602.494 251.875C601.292 251.875 600.423 251.338 600.423 250.29C600.423 249.139 601.471 248.781 602.648 248.628C603.287 248.551 605 248.372 605.256 248.065V249.446C605.256 250.673 604.284 251.875 602.494 251.875ZM616.088 247.094C616.088 245.381 617.15 244.409 618.594 244.409C619.994 244.409 620.844 245.323 620.844 246.864V253H622.353V246.761C622.353 244.256 621.017 243.054 619.029 243.054C617.546 243.054 616.625 243.719 616.165 244.716H616.037V243.182H614.58V253H616.088V247.094ZM627.998 253.23C629.711 253.23 630.606 252.31 630.913 251.67H630.99V253H632.498V246.531C632.498 243.412 630.121 243.054 628.868 243.054C627.385 243.054 625.697 243.565 624.93 245.355L626.362 245.866C626.694 245.151 627.481 244.384 628.919 244.384C630.306 244.384 630.99 245.119 630.99 246.378V246.429C630.99 247.158 630.248 247.094 628.459 247.324C626.637 247.56 624.649 247.963 624.649 250.213C624.649 252.131 626.132 253.23 627.998 253.23ZM628.229 251.875C627.027 251.875 626.157 251.338 626.157 250.29C626.157 249.139 627.206 248.781 628.382 248.628C629.021 248.551 630.734 248.372 630.99 248.065V249.446C630.99 250.673 630.018 251.875 628.229 251.875ZM635.252 253H636.76V246.864C636.76 245.425 637.809 244.409 638.985 244.409C640.129 244.409 640.928 245.157 640.928 246.276V253H642.462V246.608C642.462 245.342 643.255 244.409 644.635 244.409C645.709 244.409 646.63 244.978 646.63 246.429V253H648.138V246.429C648.138 244.121 646.898 243.054 645.147 243.054C643.74 243.054 642.711 243.7 642.206 244.716H642.104C641.618 243.668 640.762 243.054 639.471 243.054C638.192 243.054 637.246 243.668 636.837 244.716H636.709V243.182H635.252V253ZM653.786 253.23C655.499 253.23 656.393 252.31 656.7 251.67H656.777V253H658.286V246.531C658.286 243.412 655.908 243.054 654.655 243.054C653.172 243.054 651.484 243.565 650.717 245.355L652.149 245.866C652.482 245.151 653.268 244.384 654.706 244.384C656.093 244.384 656.777 245.119 656.777 246.378V246.429C656.777 247.158 656.036 247.094 654.246 247.324C652.424 247.56 650.436 247.963 650.436 250.213C650.436 252.131 651.919 253.23 653.786 253.23ZM654.016 251.875C652.814 251.875 651.945 251.338 651.945 250.29C651.945 249.139 652.993 248.781 654.169 248.628C654.808 248.551 656.521 248.372 656.777 248.065V249.446C656.777 250.673 655.805 251.875 654.016 251.875ZM663.289 251.21H661.653L661.576 251.926C661.39 253.658 661.026 255.384 660.86 256.196H662.01C662.317 255.327 662.969 253.358 663.187 251.901L663.289 251.21ZM671.146 256.682H672.655V251.491H672.783C673.115 252.028 673.754 253.205 675.646 253.205C678.101 253.205 679.814 251.236 679.814 248.116C679.814 245.023 678.101 243.054 675.621 243.054C673.703 243.054 673.115 244.23 672.783 244.741H672.604V243.182H671.146V256.682ZM672.629 248.091C672.629 245.892 673.601 244.409 675.442 244.409C677.359 244.409 678.305 246.02 678.305 248.091C678.305 250.188 677.334 251.849 675.442 251.849C673.626 251.849 672.629 250.315 672.629 248.091ZM686.104 253.205C688.763 253.205 690.553 251.185 690.553 248.142C690.553 245.074 688.763 243.054 686.104 243.054C683.445 243.054 681.655 245.074 681.655 248.142C681.655 251.185 683.445 253.205 686.104 253.205ZM686.104 251.849C684.084 251.849 683.163 250.111 683.163 248.142C683.163 246.173 684.084 244.409 686.104 244.409C688.124 244.409 689.044 246.173 689.044 248.142C689.044 250.111 688.124 251.849 686.104 251.849ZM699.81 245.381C699.337 243.987 698.276 243.054 696.333 243.054C694.262 243.054 692.727 244.23 692.727 245.892C692.727 247.247 693.533 248.155 695.335 248.577L696.972 248.96C697.963 249.19 698.429 249.663 698.429 250.341C698.429 251.185 697.534 251.875 696.128 251.875C694.894 251.875 694.121 251.344 693.852 250.29L692.421 250.648C692.772 252.316 694.146 253.205 696.154 253.205C698.436 253.205 699.989 251.958 699.989 250.264C699.989 248.896 699.132 248.033 697.381 247.605L695.923 247.247C694.76 246.96 694.236 246.57 694.236 245.815C694.236 244.972 695.131 244.358 696.333 244.358C697.649 244.358 698.193 245.087 698.455 245.764L699.81 245.381ZM706.376 253.205C708.37 253.205 709.828 252.207 710.288 250.724L708.831 250.315C708.447 251.338 707.559 251.849 706.376 251.849C704.605 251.849 703.385 250.705 703.314 248.602H710.441V247.963C710.441 244.307 708.268 243.054 706.223 243.054C703.564 243.054 701.799 245.151 701.799 248.168C701.799 251.185 703.538 253.205 706.376 253.205ZM703.314 247.298C703.417 245.771 704.497 244.409 706.223 244.409C707.859 244.409 708.907 245.636 708.907 247.298H703.314ZM717.006 243.182H714.909V240.83H713.401V243.182H711.918V244.46H713.401V250.597C713.401 252.31 714.782 253.128 716.06 253.128C716.623 253.128 716.98 253.026 717.185 252.949L716.878 251.594C716.75 251.619 716.546 251.67 716.213 251.67C715.549 251.67 714.909 251.466 714.909 250.188V244.46H717.006V243.182ZM719.275 253H720.784V243.182H719.275V253ZM720.042 241.545C720.63 241.545 721.116 241.085 721.116 240.523C721.116 239.96 720.63 239.5 720.042 239.5C719.454 239.5 718.968 239.96 718.968 240.523C718.968 241.085 719.454 241.545 720.042 241.545ZM727.817 243.182H725.72V240.83H724.211V243.182H722.729V244.46H724.211V250.597C724.211 252.31 725.592 253.128 726.871 253.128C727.433 253.128 727.791 253.026 727.996 252.949L727.689 251.594C727.561 251.619 727.356 251.67 727.024 251.67C726.359 251.67 725.72 251.466 725.72 250.188V244.46H727.817V243.182ZM734.097 253.205C736.091 253.205 737.548 252.207 738.009 250.724L736.551 250.315C736.168 251.338 735.279 251.849 734.097 251.849C732.326 251.849 731.105 250.705 731.035 248.602H738.162V247.963C738.162 244.307 735.989 243.054 733.943 243.054C731.284 243.054 729.52 245.151 729.52 248.168C729.52 251.185 731.259 253.205 734.097 253.205ZM731.035 247.298C731.137 245.771 732.218 244.409 733.943 244.409C735.58 244.409 736.628 245.636 736.628 247.298H731.035ZM747.028 247.094C747.028 245.381 748.089 244.409 749.534 244.409C750.933 244.409 751.784 245.323 751.784 246.864V253H753.292V246.761C753.292 244.256 751.956 243.054 749.968 243.054C748.485 243.054 747.565 243.719 747.105 244.716H746.977V243.182H745.519V253H747.028V247.094ZM758.938 253.23C760.651 253.23 761.546 252.31 761.853 251.67H761.929V253H763.438V246.531C763.438 243.412 761.06 243.054 759.807 243.054C758.324 243.054 756.637 243.565 755.87 245.355L757.301 245.866C757.634 245.151 758.42 244.384 759.858 244.384C761.245 244.384 761.929 245.119 761.929 246.378V246.429C761.929 247.158 761.188 247.094 759.398 247.324C757.576 247.56 755.588 247.963 755.588 250.213C755.588 252.131 757.071 253.23 758.938 253.23ZM759.168 251.875C757.966 251.875 757.097 251.338 757.097 250.29C757.097 249.139 758.145 248.781 759.321 248.628C759.961 248.551 761.674 248.372 761.929 248.065V249.446C761.929 250.673 760.958 251.875 759.168 251.875ZM773.146 245.381C772.673 243.987 771.612 243.054 769.669 243.054C767.597 243.054 766.063 244.23 766.063 245.892C766.063 247.247 766.869 248.155 768.671 248.577L770.308 248.96C771.298 249.19 771.765 249.663 771.765 250.341C771.765 251.185 770.87 251.875 769.464 251.875C768.23 251.875 767.457 251.344 767.188 250.29L765.757 250.648C766.108 252.316 767.482 253.205 769.49 253.205C771.771 253.205 773.325 251.958 773.325 250.264C773.325 248.896 772.468 248.033 770.717 247.605L769.259 247.247C768.096 246.96 767.572 246.57 767.572 245.815C767.572 244.972 768.467 244.358 769.669 244.358C770.985 244.358 771.529 245.087 771.791 245.764L773.146 245.381ZM768.339 239.244H766.907V239.347L768.978 242.006H770.359L772.43 239.347V239.244H770.998L769.669 241.034L768.339 239.244ZM781.783 248.986C781.783 250.827 780.377 251.67 779.252 251.67C777.999 251.67 777.104 250.75 777.104 249.318V243.182H775.596V249.42C775.596 251.926 776.925 253.128 778.766 253.128C780.249 253.128 781.221 252.335 781.681 251.338H781.783V253H783.292V243.182H781.783V248.986ZM798.072 245.381C797.599 243.987 796.537 243.054 794.594 243.054C792.523 243.054 790.989 244.23 790.989 245.892C790.989 247.247 791.795 248.155 793.597 248.577L795.233 248.96C796.224 249.19 796.691 249.663 796.691 250.341C796.691 251.185 795.796 251.875 794.39 251.875C793.156 251.875 792.383 251.344 792.114 250.29L790.682 250.648C791.034 252.316 792.408 253.205 794.415 253.205C796.697 253.205 798.251 251.958 798.251 250.264C798.251 248.896 797.394 248.033 795.643 247.605L794.185 247.247C793.022 246.96 792.498 246.57 792.498 245.815C792.498 244.972 793.393 244.358 794.594 244.358C795.911 244.358 796.454 245.087 796.716 245.764L798.072 245.381ZM804.791 243.182H802.695V240.83H801.186V243.182H799.703V244.46H801.186V250.597C801.186 252.31 802.567 253.128 803.845 253.128C804.408 253.128 804.766 253.026 804.97 252.949L804.663 251.594C804.536 251.619 804.331 251.67 803.999 251.67C803.334 251.67 802.695 251.466 802.695 250.188V244.46H804.791V243.182ZM807.06 253H808.569V246.787C808.569 245.457 809.617 244.486 811.049 244.486C811.452 244.486 811.867 244.562 811.969 244.588V243.054C811.797 243.041 811.401 243.028 811.177 243.028C810.001 243.028 808.978 243.693 808.62 244.665H808.518V243.182H807.06V253ZM816.647 253.23C818.36 253.23 819.255 252.31 819.562 251.67H819.638V253H821.147V246.531C821.147 243.412 818.769 243.054 817.516 243.054C816.033 243.054 814.346 243.565 813.579 245.355L815.01 245.866C815.343 245.151 816.129 244.384 817.567 244.384C818.954 244.384 819.638 245.119 819.638 246.378V246.429C819.638 247.158 818.897 247.094 817.107 247.324C815.285 247.56 813.297 247.963 813.297 250.213C813.297 252.131 814.78 253.23 816.647 253.23ZM816.877 251.875C815.675 251.875 814.806 251.338 814.806 250.29C814.806 249.139 815.854 248.781 817.03 248.628C817.67 248.551 819.383 248.372 819.638 248.065V249.446C819.638 250.673 818.667 251.875 816.877 251.875ZM825.409 247.094C825.409 245.381 826.47 244.409 827.914 244.409C829.314 244.409 830.164 245.323 830.164 246.864V253H831.673V246.761C831.673 244.256 830.337 243.054 828.349 243.054C826.866 243.054 825.946 243.719 825.485 244.716H825.358V243.182H823.9V253H825.409V247.094ZM834.43 253H835.938V243.182H834.43V253ZM835.197 241.545C835.785 241.545 836.27 241.085 836.27 240.523C836.27 239.96 835.785 239.5 835.197 239.5C834.608 239.5 834.123 239.96 834.123 240.523C834.123 241.085 834.608 241.545 835.197 241.545ZM842.69 253.205C844.863 253.205 846.295 251.875 846.55 250.136H845.042C844.761 251.21 843.866 251.849 842.69 251.849C840.9 251.849 839.749 250.366 839.749 248.091C839.749 245.866 840.925 244.409 842.69 244.409C844.019 244.409 844.812 245.227 845.042 246.122H846.55C846.295 244.281 844.735 243.054 842.664 243.054C840.005 243.054 838.241 245.151 838.241 248.142C838.241 251.082 839.928 253.205 842.69 253.205ZM852.872 253.205C854.866 253.205 856.324 252.207 856.784 250.724L855.327 250.315C854.943 251.338 854.055 251.849 852.872 251.849C851.102 251.849 849.881 250.705 849.81 248.602H856.938V247.963C856.938 244.307 854.764 243.054 852.719 243.054C850.06 243.054 848.295 245.151 848.295 248.168C848.295 251.185 850.034 253.205 852.872 253.205ZM849.81 247.298C849.913 245.771 850.993 244.409 852.719 244.409C854.355 244.409 855.403 245.636 855.403 247.298H849.81ZM864.013 253H871.71V251.594H866.11V251.491L871.531 244.384V243.182H864.192V244.588H869.587V244.69L864.013 251.849V253ZM876.922 253.23C878.635 253.23 879.53 252.31 879.837 251.67H879.914V253H881.422V246.531C881.422 243.412 879.044 243.054 877.792 243.054C876.309 243.054 874.621 243.565 873.854 245.355L875.286 245.866C875.618 245.151 876.404 244.384 877.843 244.384C879.23 244.384 879.914 245.119 879.914 246.378V246.429C879.914 247.158 879.172 247.094 877.382 247.324C875.561 247.56 873.573 247.963 873.573 250.213C873.573 252.131 875.056 253.23 876.922 253.23ZM877.152 251.875C875.951 251.875 875.081 251.338 875.081 250.29C875.081 249.139 876.13 248.781 877.306 248.628C877.945 248.551 879.658 248.372 879.914 248.065V249.446C879.914 250.673 878.942 251.875 877.152 251.875ZM305.381 281H306.889V277.325L307.944 276.347L311.619 281H313.537L309.082 275.375L313.23 271.182H311.364L307.068 275.554H306.889V267.909H305.381V281ZM318.061 281.23C319.774 281.23 320.669 280.31 320.976 279.67H321.052V281H322.561V274.531C322.561 271.412 320.183 271.054 318.93 271.054C317.447 271.054 315.76 271.565 314.993 273.355L316.425 273.866C316.757 273.151 317.543 272.384 318.981 272.384C320.368 272.384 321.052 273.119 321.052 274.378V274.429C321.052 275.158 320.311 275.094 318.521 275.324C316.699 275.56 314.711 275.963 314.711 278.213C314.711 280.131 316.194 281.23 318.061 281.23ZM318.291 279.875C317.089 279.875 316.22 279.338 316.22 278.29C316.22 277.139 317.268 276.781 318.444 276.628C319.084 276.551 320.797 276.372 321.052 276.065V277.446C321.052 278.673 320.081 279.875 318.291 279.875ZM325.314 281H326.823V274.787C326.823 273.457 327.871 272.486 329.303 272.486C329.706 272.486 330.121 272.562 330.223 272.588V271.054C330.051 271.041 329.654 271.028 329.431 271.028C328.255 271.028 327.232 271.693 326.874 272.665H326.772V271.182H325.314V281ZM332.012 281H333.52V271.182H332.012V281ZM332.779 269.545C333.367 269.545 333.852 269.085 333.852 268.523C333.852 267.96 333.367 267.5 332.779 267.5C332.191 267.5 331.705 267.96 331.705 268.523C331.705 269.085 332.191 269.545 332.779 269.545ZM336.283 271.182V281.716C336.283 282.713 335.874 283.276 334.953 283.276H334.672V284.682H334.979C336.871 284.682 337.792 283.531 337.792 281.716V271.182H336.283ZM337.025 269.545C337.613 269.545 338.098 269.085 338.098 268.523C338.098 267.96 337.613 267.5 337.025 267.5C336.436 267.5 335.951 267.96 335.951 268.523C335.951 269.085 336.436 269.545 337.025 269.545ZM344.671 281.205C346.665 281.205 348.123 280.207 348.583 278.724L347.126 278.315C346.742 279.338 345.854 279.849 344.671 279.849C342.9 279.849 341.68 278.705 341.609 276.602H348.736V275.963C348.736 272.307 346.563 271.054 344.518 271.054C341.858 271.054 340.094 273.151 340.094 276.168C340.094 279.185 341.833 281.205 344.671 281.205ZM341.609 275.298C341.711 273.771 342.792 272.409 344.518 272.409C346.154 272.409 347.202 273.636 347.202 275.298H341.609ZM351.031 281H352.54V274.787C352.54 273.457 353.588 272.486 355.02 272.486C355.422 272.486 355.838 272.562 355.94 272.588V271.054C355.768 271.041 355.371 271.028 355.148 271.028C353.971 271.028 352.949 271.693 352.591 272.665H352.488V271.182H351.031V281ZM363.916 276.986C363.916 278.827 362.51 279.67 361.385 279.67C360.132 279.67 359.237 278.75 359.237 277.318V271.182H357.728V277.42C357.728 279.926 359.058 281.128 360.899 281.128C362.382 281.128 363.353 280.335 363.814 279.338H363.916V281H365.424V271.182H363.916V276.986ZM373.25 281H374.758V271.182H373.25V281ZM374.017 269.545C374.605 269.545 375.091 269.085 375.091 268.523C375.091 267.96 374.605 267.5 374.017 267.5C373.429 267.5 372.943 267.96 372.943 268.523C372.943 269.085 373.429 269.545 374.017 269.545ZM386.291 281.205C388.183 281.205 388.822 280.028 389.155 279.491H389.334V281H390.791V267.909H389.283V272.741H389.155C388.822 272.23 388.234 271.054 386.317 271.054C383.837 271.054 382.124 273.023 382.124 276.116C382.124 279.236 383.837 281.205 386.291 281.205ZM386.496 279.849C384.604 279.849 383.632 278.188 383.632 276.091C383.632 274.02 384.578 272.409 386.496 272.409C388.337 272.409 389.308 273.892 389.308 276.091C389.308 278.315 388.311 279.849 386.496 279.849ZM397.752 281.205C400.411 281.205 402.201 279.185 402.201 276.142C402.201 273.074 400.411 271.054 397.752 271.054C395.093 271.054 393.303 273.074 393.303 276.142C393.303 279.185 395.093 281.205 397.752 281.205ZM397.752 279.849C395.732 279.849 394.812 278.111 394.812 276.142C394.812 274.173 395.732 272.409 397.752 272.409C399.772 272.409 400.692 274.173 400.692 276.142C400.692 278.111 399.772 279.849 397.752 279.849ZM408.211 281.205C410.103 281.205 410.742 280.028 411.075 279.491H411.254V281H412.711V267.909H411.203V272.741H411.075C410.742 272.23 410.154 271.054 408.237 271.054C405.757 271.054 404.044 273.023 404.044 276.116C404.044 279.236 405.757 281.205 408.211 281.205ZM408.416 279.849C406.524 279.849 405.552 278.188 405.552 276.091C405.552 274.02 406.498 272.409 408.416 272.409C410.257 272.409 411.228 273.892 411.228 276.091C411.228 278.315 410.231 279.849 408.416 279.849ZM418.573 281.23C420.286 281.23 421.181 280.31 421.487 279.67H421.564V281H423.073V274.531C423.073 271.412 420.695 271.054 419.442 271.054C417.959 271.054 416.271 271.565 415.504 273.355L416.936 273.866C417.269 273.151 418.055 272.384 419.493 272.384C420.88 272.384 421.564 273.119 421.564 274.378V274.429C421.564 275.158 420.823 275.094 419.033 275.324C417.211 275.56 415.223 275.963 415.223 278.213C415.223 280.131 416.706 281.23 418.573 281.23ZM418.803 279.875C417.601 279.875 416.732 279.338 416.732 278.29C416.732 277.139 417.78 276.781 418.956 276.628C419.595 276.551 421.308 276.372 421.564 276.065V277.446C421.564 278.673 420.593 279.875 418.803 279.875ZM430.096 271.182H427.999V268.83H426.491V271.182H425.008V272.46H426.491V278.597C426.491 280.31 427.871 281.128 429.15 281.128C429.712 281.128 430.07 281.026 430.275 280.949L429.968 279.594C429.84 279.619 429.636 279.67 429.303 279.67C428.638 279.67 427.999 279.466 427.999 278.188V272.46H430.096V271.182ZM433.874 275.094C433.874 273.381 434.935 272.409 436.379 272.409C437.779 272.409 438.629 273.323 438.629 274.864V281H440.138V274.761C440.138 272.256 438.802 271.054 436.814 271.054C435.331 271.054 434.411 271.719 433.95 272.716H433.822V271.182H432.365V281H433.874V275.094ZM446.883 281.205C449.542 281.205 451.332 279.185 451.332 276.142C451.332 273.074 449.542 271.054 446.883 271.054C444.224 271.054 442.434 273.074 442.434 276.142C442.434 279.185 444.224 281.205 446.883 281.205ZM446.883 279.849C444.863 279.849 443.943 278.111 443.943 276.142C443.943 274.173 444.863 272.409 446.883 272.409C448.903 272.409 449.823 274.173 449.823 276.142C449.823 278.111 448.903 279.849 446.883 279.849ZM465.652 273.381C465.179 271.987 464.118 271.054 462.174 271.054C460.103 271.054 458.569 272.23 458.569 273.892C458.569 275.247 459.375 276.155 461.177 276.577L462.814 276.96C463.804 277.19 464.271 277.663 464.271 278.341C464.271 279.185 463.376 279.875 461.97 279.875C460.736 279.875 459.963 279.344 459.694 278.29L458.262 278.648C458.614 280.316 459.988 281.205 461.995 281.205C464.277 281.205 465.831 279.958 465.831 278.264C465.831 276.896 464.974 276.033 463.223 275.605L461.765 275.247C460.602 274.96 460.078 274.57 460.078 273.815C460.078 272.972 460.973 272.358 462.174 272.358C463.491 272.358 464.034 273.087 464.297 273.764L465.652 273.381ZM472.218 281.205C474.212 281.205 475.67 280.207 476.13 278.724L474.672 278.315C474.289 279.338 473.4 279.849 472.218 279.849C470.447 279.849 469.226 278.705 469.156 276.602H476.283V275.963C476.283 272.307 474.11 271.054 472.064 271.054C469.405 271.054 467.641 273.151 467.641 276.168C467.641 279.185 469.38 281.205 472.218 281.205ZM469.156 275.298C469.258 273.771 470.339 272.409 472.064 272.409C473.701 272.409 474.749 273.636 474.749 275.298H469.156ZM483.64 281H485.149V271.182H483.64V281ZM484.407 269.545C484.996 269.545 485.481 269.085 485.481 268.523C485.481 267.96 484.996 267.5 484.407 267.5C483.819 267.5 483.334 267.96 483.334 268.523C483.334 269.085 483.819 269.545 484.407 269.545ZM489.42 275.094C489.42 273.381 490.482 272.409 491.926 272.409C493.326 272.409 494.176 273.323 494.176 274.864V281H495.685V274.761C495.685 272.256 494.349 271.054 492.361 271.054C490.878 271.054 489.957 271.719 489.497 272.716H489.369V271.182H487.912V281H489.42V275.094ZM502.813 271.182H500.615V270.185C500.615 269.213 501.024 268.702 502.021 268.702C502.455 268.702 502.711 268.804 502.865 268.855L503.299 267.551C503.069 267.449 502.609 267.295 501.867 267.295C500.461 267.295 499.106 268.139 499.106 269.827V271.182H497.521V272.46H499.106V281H500.615V272.46H502.813V271.182ZM508.512 281.205C511.171 281.205 512.961 279.185 512.961 276.142C512.961 273.074 511.171 271.054 508.512 271.054C505.853 271.054 504.063 273.074 504.063 276.142C504.063 279.185 505.853 281.205 508.512 281.205ZM508.512 279.849C506.492 279.849 505.572 278.111 505.572 276.142C505.572 274.173 506.492 272.409 508.512 272.409C510.532 272.409 511.452 274.173 511.452 276.142C511.452 278.111 510.532 279.849 508.512 279.849ZM515.263 281H516.772V274.787C516.772 273.457 517.82 272.486 519.252 272.486C519.655 272.486 520.07 272.562 520.173 272.588V271.054C520 271.041 519.604 271.028 519.38 271.028C518.204 271.028 517.181 271.693 516.823 272.665H516.721V271.182H515.263V281ZM521.961 281H523.469V274.864C523.469 273.425 524.518 272.409 525.694 272.409C526.838 272.409 527.637 273.157 527.637 274.276V281H529.171V274.608C529.171 273.342 529.964 272.409 531.344 272.409C532.418 272.409 533.339 272.978 533.339 274.429V281H534.847V274.429C534.847 272.121 533.607 271.054 531.856 271.054C530.449 271.054 529.42 271.7 528.915 272.716H528.813C528.327 271.668 527.471 271.054 526.18 271.054C524.901 271.054 523.955 271.668 523.546 272.716H523.418V271.182H521.961V281ZM537.605 281H539.114V271.182H537.605V281ZM538.372 269.545C538.96 269.545 539.446 269.085 539.446 268.523C539.446 267.96 538.96 267.5 538.372 267.5C537.784 267.5 537.298 267.96 537.298 268.523C537.298 269.085 537.784 269.545 538.372 269.545ZM548.831 273.381C548.358 271.987 547.297 271.054 545.354 271.054C543.283 271.054 541.749 272.23 541.749 273.892C541.749 275.247 542.554 276.155 544.357 276.577L545.993 276.96C546.984 277.19 547.451 277.663 547.451 278.341C547.451 279.185 546.556 279.875 545.15 279.875C543.916 279.875 543.142 279.344 542.874 278.29L541.442 278.648C541.794 280.316 543.168 281.205 545.175 281.205C547.457 281.205 549.01 279.958 549.01 278.264C549.01 276.896 548.154 276.033 546.402 275.605L544.945 275.247C543.782 274.96 543.257 274.57 543.257 273.815C543.257 272.972 544.152 272.358 545.354 272.358C546.671 272.358 547.214 273.087 547.476 273.764L548.831 273.381ZM544.025 267.244H542.593V267.347L544.664 270.006H546.044L548.115 267.347V267.244H546.684L545.354 269.034L544.025 267.244ZM551.281 281H552.79V271.182H551.281V281ZM552.048 269.545C552.636 269.545 553.122 269.085 553.122 268.523C553.122 267.96 552.636 267.5 552.048 267.5C551.46 267.5 550.974 267.96 550.974 268.523C550.974 269.085 551.46 269.545 552.048 269.545ZM559.822 271.182H557.726V268.83H556.217V271.182H554.734V272.46H556.217V278.597C556.217 280.31 557.598 281.128 558.876 281.128C559.439 281.128 559.797 281.026 560.001 280.949L559.695 279.594C559.567 279.619 559.362 279.67 559.03 279.67C558.365 279.67 557.726 279.466 557.726 278.188V272.46H559.822V271.182ZM566.103 281.205C568.097 281.205 569.554 280.207 570.015 278.724L568.557 278.315C568.174 279.338 567.285 279.849 566.103 279.849C564.332 279.849 563.111 278.705 563.041 276.602H570.168V275.963C570.168 272.307 567.995 271.054 565.949 271.054C563.29 271.054 561.526 273.151 561.526 276.168C561.526 279.185 563.265 281.205 566.103 281.205ZM563.041 275.298C563.143 273.771 564.223 272.409 565.949 272.409C567.586 272.409 568.634 273.636 568.634 275.298H563.041ZM573.562 281.102C574.195 281.102 574.713 280.585 574.713 279.952C574.713 279.319 574.195 278.801 573.562 278.801C572.929 278.801 572.412 279.319 572.412 279.952C572.412 280.585 572.929 281.102 573.562 281.102Z" fill="white"/>
<path d="M304 318C304 314.686 306.686 312 310 312H484C487.314 312 490 314.686 490 318V356C490 359.314 487.314 362 484 362H310C306.686 362 304 359.314 304 356V318Z" fill="white"/>
<path d="M326.278 343H328.034V339.381L329.409 337.801L333.17 343H335.284L330.574 336.602L335.267 331.364H333.057L328.176 336.92H328.034V331.364H326.278V343ZM339.803 343.176C342.263 343.176 343.871 341.375 343.871 338.676C343.871 335.96 342.263 334.159 339.803 334.159C337.342 334.159 335.734 335.96 335.734 338.676C335.734 341.375 337.342 343.176 339.803 343.176ZM339.808 341.75C338.2 341.75 337.45 340.347 337.45 338.67C337.45 337 338.2 335.58 339.808 335.58C341.405 335.58 342.155 337 342.155 338.67C342.155 340.347 341.405 341.75 339.808 341.75ZM347.466 337.818C347.466 336.426 348.318 335.631 349.5 335.631C350.653 335.631 351.352 336.386 351.352 337.653V343H353.051V337.449C353.051 335.29 351.864 334.159 350.08 334.159C348.767 334.159 347.909 334.767 347.506 335.693H347.398V334.273H345.767V343H347.466V337.818ZM355.33 343H357.028V339.903L357.875 339.057L360.841 343H362.926L359.153 338.017L362.688 334.273H360.653L357.176 337.966H357.028V331.364H355.33V343ZM369.764 339.381C369.77 340.864 368.668 341.568 367.713 341.568C366.662 341.568 365.935 340.807 365.935 339.619V334.273H364.236V339.824C364.236 341.989 365.423 343.114 367.099 343.114C368.412 343.114 369.304 342.42 369.707 341.489H369.798V343H371.469V334.273H369.764V339.381ZM373.751 343H375.45V337.67C375.45 336.528 376.331 335.705 377.536 335.705C377.888 335.705 378.286 335.767 378.422 335.807V334.182C378.251 334.159 377.916 334.142 377.7 334.142C376.678 334.142 375.803 334.722 375.484 335.659H375.393V334.273H373.751V343ZM379.892 343H381.591V334.273H379.892V343ZM380.75 332.926C381.335 332.926 381.824 332.472 381.824 331.915C381.824 331.358 381.335 330.898 380.75 330.898C380.159 330.898 379.676 331.358 379.676 331.915C379.676 332.472 380.159 332.926 380.75 332.926ZM390.416 336.403C390.064 335.045 389.001 334.159 387.115 334.159C385.143 334.159 383.746 335.199 383.746 336.744C383.746 337.983 384.496 338.807 386.132 339.17L387.609 339.494C388.45 339.682 388.842 340.057 388.842 340.602C388.842 341.278 388.121 341.807 387.007 341.807C385.99 341.807 385.337 341.369 385.132 340.511L383.49 340.761C383.774 342.307 385.058 343.176 387.018 343.176C389.126 343.176 390.587 342.057 390.587 340.477C390.587 339.244 389.803 338.483 388.2 338.114L386.814 337.795C385.854 337.568 385.439 337.244 385.445 336.653C385.439 335.983 386.166 335.506 387.132 335.506C388.189 335.506 388.678 336.091 388.876 336.676L390.416 336.403ZM392.455 343H394.153V334.273H392.455V343ZM393.312 332.926C393.898 332.926 394.386 332.472 394.386 331.915C394.386 331.358 393.898 330.898 393.312 330.898C392.722 330.898 392.239 331.358 392.239 331.915C392.239 332.472 392.722 332.926 393.312 332.926ZM400.491 343H407.497V341.523H402.793V341.443L407.338 335.511V334.273H400.645V335.75H405.219V335.83L400.491 341.835V343ZM412.041 343.193C413.484 343.193 414.297 342.46 414.621 341.807H414.689V343H416.348V337.205C416.348 334.665 414.348 334.159 412.962 334.159C411.382 334.159 409.928 334.795 409.359 336.386L410.956 336.75C411.206 336.131 411.842 335.534 412.984 335.534C414.081 335.534 414.643 336.108 414.643 337.097V337.136C414.643 337.756 414.007 337.744 412.439 337.926C410.786 338.119 409.092 338.551 409.092 340.534C409.092 342.25 410.382 343.193 412.041 343.193ZM412.411 341.83C411.45 341.83 410.757 341.398 410.757 340.557C410.757 339.648 411.564 339.324 412.547 339.193C413.098 339.119 414.405 338.972 414.649 338.727V339.852C414.649 340.886 413.825 341.83 412.411 341.83ZM422.845 346.273H424.544V341.642H424.646C424.953 342.199 425.578 343.17 427.169 343.17C429.283 343.17 430.817 341.477 430.817 338.653C430.817 335.824 429.26 334.159 427.152 334.159C425.533 334.159 424.947 335.148 424.646 335.688H424.504V334.273H422.845V346.273ZM424.51 338.636C424.51 336.812 425.305 335.602 426.788 335.602C428.328 335.602 429.101 336.903 429.101 338.636C429.101 340.386 428.305 341.722 426.788 341.722C425.328 341.722 424.51 340.472 424.51 338.636ZM436.396 343.176C438.857 343.176 440.464 341.375 440.464 338.676C440.464 335.96 438.857 334.159 436.396 334.159C433.936 334.159 432.328 335.96 432.328 338.676C432.328 341.375 433.936 343.176 436.396 343.176ZM436.402 341.75C434.794 341.75 434.044 340.347 434.044 338.67C434.044 337 434.794 335.58 436.402 335.58C437.999 335.58 438.749 337 438.749 338.67C438.749 340.347 437.999 341.75 436.402 341.75ZM448.901 336.403C448.548 335.045 447.486 334.159 445.599 334.159C443.628 334.159 442.23 335.199 442.23 336.744C442.23 337.983 442.98 338.807 444.616 339.17L446.094 339.494C446.935 339.682 447.327 340.057 447.327 340.602C447.327 341.278 446.605 341.807 445.491 341.807C444.474 341.807 443.821 341.369 443.616 340.511L441.974 340.761C442.259 342.307 443.543 343.176 445.503 343.176C447.611 343.176 449.071 342.057 449.071 340.477C449.071 339.244 448.287 338.483 446.685 338.114L445.298 337.795C444.338 337.568 443.923 337.244 443.929 336.653C443.923 335.983 444.651 335.506 445.616 335.506C446.673 335.506 447.162 336.091 447.361 336.676L448.901 336.403ZM453.479 343.193C454.922 343.193 455.734 342.46 456.058 341.807H456.126V343H457.786V337.205C457.786 334.665 455.786 334.159 454.399 334.159C452.82 334.159 451.365 334.795 450.797 336.386L452.393 336.75C452.643 336.131 453.28 335.534 454.422 335.534C455.518 335.534 456.081 336.108 456.081 337.097V337.136C456.081 337.756 455.445 337.744 453.876 337.926C452.223 338.119 450.53 338.551 450.53 340.534C450.53 342.25 451.82 343.193 453.479 343.193ZM453.848 341.83C452.888 341.83 452.195 341.398 452.195 340.557C452.195 339.648 453.001 339.324 453.984 339.193C454.536 339.119 455.842 338.972 456.087 338.727V339.852C456.087 340.886 455.263 341.83 453.848 341.83ZM463.724 343.176C466.185 343.176 467.793 341.375 467.793 338.676C467.793 335.96 466.185 334.159 463.724 334.159C461.264 334.159 459.656 335.96 459.656 338.676C459.656 341.375 461.264 343.176 463.724 343.176ZM463.73 341.75C462.122 341.75 461.372 340.347 461.372 338.67C461.372 337 462.122 335.58 463.73 335.58C465.327 335.58 466.077 337 466.077 338.67C466.077 340.347 465.327 341.75 463.73 341.75Z" fill="#065F46"/>
<path d="M310 313H484V311H310V313ZM489 318V356H491V318H489ZM484 361H310V363H484V361ZM305 356V318H303V356H305ZM310 361C307.239 361 305 358.761 305 356H303C303 359.866 306.134 363 310 363V361ZM489 356C489 358.761 486.761 361 484 361V363C487.866 363 491 359.866 491 356H489ZM484 313C486.761 313 489 315.239 489 318H491C491 314.134 487.866 311 484 311V313ZM310 311C306.134 311 303 314.134 303 318H305C305 315.239 307.239 313 310 313V311Z" fill="white"/>
<path d="M981.961 -33.171L1030.64 7.91296L971.2 30.1334L981.961 -33.171Z" fill="#F1F58F"/>
<rect width="47.8991" height="92.966" rx="23.9496" transform="matrix(0.829246 0.558884 -0.548292 0.836287 976.973 85.8896)" fill="#11A858"/>
<path d="M849.961 15.5283C860.644 11.7497 872.248 11.4499 883.111 14.6718V14.6718C893.974 17.8936 903.538 24.4718 910.433 33.4634V33.4634C917.327 42.4551 921.198 53.3986 921.491 64.7256V64.7256C921.784 76.0525 918.483 87.1814 912.062 96.5171V96.5171C905.641 105.853 896.429 112.916 885.747 116.695V116.695C875.065 120.473 863.461 120.773 852.598 117.551V117.551C841.735 114.329 832.17 107.751 825.276 98.7596V98.7596C818.381 89.768 814.51 78.8244 814.218 67.4975V67.4975C813.925 56.1705 817.226 45.0417 823.647 35.7059V35.7059C830.068 26.3702 839.279 19.3069 849.961 15.5283V15.5283Z" fill="#FE6600"/>
<path d="M788.92 347.504L899.126 332.433L858.417 435.496L788.92 347.504Z" fill="#7DD3FC"/>
<rect width="59.4361" height="115.358" rx="29.718" transform="matrix(0.970418 -0.241432 0.253756 0.967268 929.704 438.514)" fill="#A377FF"/>
<path d="M782.877 517.38C786.193 509.402 791.95 502.678 799.322 498.172V498.172C806.695 493.667 815.305 491.611 823.917 492.3V492.3C832.53 492.988 840.704 496.385 847.267 502.005V502.005C853.83 507.624 858.446 515.177 860.453 523.581V523.581C862.46 531.985 861.754 540.809 858.438 548.787V548.787C855.122 556.766 849.365 563.49 841.992 567.995V567.995C834.62 572.501 826.01 574.556 817.397 573.868V573.868C808.785 573.18 800.611 569.782 794.048 564.163V564.163C787.485 558.543 782.869 550.99 780.862 542.586V542.586C778.855 534.182 779.561 525.359 782.877 517.38V517.38Z" fill="#EC4899"/>
</g>
<defs>
<clipPath id="clip0_99:2547">
<rect width="1013" height="533" rx="12" fill="white"/>
</clipPath>
</defs>
</svg>
