<svg width="64" height="64" viewBox="0 0 64 64" fill="none" xmlns="http://www.w3.org/2000/svg">
<path d="M36.0262 11.4987C34.3355 11.6214 32.9755 11.84 31.4502 12.2187C29.4822 12.7147 28.0475 13.2534 25.8128 14.336C22.6502 15.872 20.3302 17.4187 18.4048 19.2747C16.1222 21.4827 13.6155 25.1734 12.4262 28.096C12.1755 28.6987 12.1168 28.8107 11.9995 28.8374C10.8742 29.104 9.81818 29.488 8.66618 30.064C6.99151 30.896 5.46084 31.8774 4.79418 32.5334C4.39951 32.9334 4.33551 33.0667 4.47951 33.2427C4.57551 33.3547 4.60751 33.36 5.73284 33.3814C7.22618 33.4027 8.98618 33.2694 10.5755 33.0187L11.1515 32.9227L11.1088 33.248C11.0875 33.4294 11.0662 34.112 11.0715 34.7734C11.0822 36.432 11.2902 37.7707 11.7915 39.344C11.9088 39.712 11.9995 40.016 11.9888 40.0267C11.9782 40.0374 11.6635 40.1547 11.2795 40.2934C9.59418 40.9014 9.15684 41.1254 8.33018 41.7867C7.06618 42.8054 6.18084 43.9307 6.26084 44.4214C6.29818 44.6667 6.57551 44.9174 6.98084 45.072C7.87684 45.4134 9.10351 45.6054 10.3728 45.6054C11.4342 45.6107 11.6528 45.568 13.2902 45.0187L14.5488 44.5974L15.0608 45.2C16.0102 46.3254 17.5302 47.6267 19.1728 48.72C22.3355 50.8267 26.9915 52.6347 31.3808 53.4667C33.5462 53.872 35.4022 54.0747 37.4395 54.1174C38.6182 54.1387 39.0448 54.128 39.6155 54.0587C42.4475 53.712 45.6368 52.688 47.2848 51.5947C47.8235 51.2427 48.5168 50.5867 48.5648 50.3894C48.6182 50.1494 48.5648 50.096 48.1755 50.032C47.9782 49.9947 47.0342 49.792 46.0795 49.5734C42.0048 48.6507 40.4742 48.4214 37.6422 48.2934C35.1355 48.1814 33.5888 48.0427 31.4928 47.7547C27.1462 47.152 22.8902 45.808 20.4795 44.288C19.8608 43.8934 18.8102 43.1467 18.8368 43.1147C18.8475 43.1094 19.2848 42.9494 19.8128 42.7574C20.3408 42.5654 21.8395 42.0214 23.1462 41.5467C29.2688 39.3227 30.6448 38.8267 32.1862 38.2934C37.5675 36.4214 38.3888 36.096 38.8368 35.6587C39.0235 35.4774 39.2528 34.9494 39.2528 34.7094C39.2528 34.6027 39.2102 34.544 39.0822 34.4854C38.8688 34.3734 38.7355 34.3787 37.7542 34.5067C35.7542 34.7734 33.4768 35.184 28.6128 36.1547C27.0022 36.48 24.8262 36.9014 23.7862 37.0934C20.7302 37.6587 17.9568 38.2827 15.7702 38.9014L15.3062 39.0294L15.1728 38.8107C14.9808 38.48 14.5382 37.424 14.3782 36.9067C13.9995 35.712 13.8555 34.752 13.8608 33.4934C13.8662 32.9494 13.8822 32.4107 13.9088 32.2987L13.9462 32.0854L15.1195 31.7014C16.8368 31.1307 18.4315 30.6454 21.2795 29.8134C22.6715 29.408 24.3675 28.9067 25.0395 28.704C34.7995 25.7547 36.5008 25.2214 37.0608 24.9334C37.2102 24.8587 37.3755 24.8 37.4288 24.8C37.4982 24.8 37.5568 24.7307 37.6208 24.576C37.6955 24.384 37.6955 24.3414 37.6315 24.2774C37.5195 24.1654 36.4902 24.2934 33.4822 24.8C32.0955 25.0347 30.1702 25.344 29.1995 25.488C26.5808 25.8827 22.8795 26.5174 19.1728 27.2054C17.8715 27.4507 15.3808 27.9627 15.2102 28.0267C15.0075 28.1014 16.6235 25.3814 17.6208 23.9734C19.0608 21.952 20.7728 20.192 22.7035 18.7627C24.8848 17.1467 28.4368 15.1307 30.6395 14.2667C32.5702 13.504 34.8155 12.9547 36.9328 12.7254C38.5595 12.5494 41.8875 12.4267 42.2128 12.5334C42.3942 12.592 42.4262 12.592 42.4902 12.5014C42.5328 12.4427 42.5595 12.3414 42.5488 12.272C42.5328 12.16 42.4688 12.128 41.9995 11.9947C40.9435 11.696 39.4075 11.5254 37.5728 11.4987C36.8688 11.488 36.1755 11.488 36.0262 11.4987Z" fill="black"/>
</svg>
