<svg width="64" height="64" viewBox="0 0 64 64" fill="none" xmlns="http://www.w3.org/2000/svg">
<path d="M28.0958 5.73325C27.9945 5.83991 28.0798 5.98925 28.4691 6.40525C29.3118 7.31725 29.7652 8.01058 30.5865 9.65858C31.3225 11.1252 31.4185 11.3919 31.4505 12.1066C31.5092 13.2746 31.2318 14.1759 29.9198 17.0932C29.0131 19.1092 28.7998 19.7599 28.6931 20.8106C28.5971 21.7759 28.7891 23.1359 29.1838 24.2612C29.4825 25.1199 30.2185 26.4052 30.7678 27.0346C31.3545 27.7066 32.6612 28.6559 33.6798 29.1519C34.3038 29.4559 34.4638 29.4879 34.6558 29.3546C34.7678 29.2746 35.0399 28.7786 35.0399 28.6452C35.0399 28.6132 35.0772 28.5226 35.1252 28.4532C35.1732 28.3786 35.2265 28.1652 35.2425 27.9732C35.2745 27.5359 35.2265 27.4772 34.5065 27.0559C33.2105 26.2932 32.3785 25.5892 31.9838 24.9066C31.4345 23.9572 31.0612 22.3199 31.1998 21.4612C31.2638 21.0506 31.3492 20.8746 31.9572 19.8666C33.1732 17.8559 34.1118 15.7332 34.5118 14.1119C34.8052 12.9119 34.8212 11.5786 34.5545 10.6132C34.4212 10.1226 34.0105 9.24791 33.7012 8.79458C32.8798 7.58391 31.0398 6.25591 29.6372 5.86658C29.2371 5.75458 28.1651 5.66391 28.0958 5.73325Z" fill="black"/>
<path d="M42.7033 7.93058C42.6446 7.98391 42.6606 9.54658 42.7193 10.2666C42.8046 11.2266 43.0073 12.3946 43.2793 13.4666C43.6633 14.9919 43.69 15.6372 43.4126 16.7039C43.194 17.5412 42.9006 18.1012 41.9033 19.5946C40.8579 21.1572 40.5859 21.8346 40.5859 22.8586C40.5859 23.5146 40.7299 24.0479 41.1139 24.8319C41.6899 25.9946 42.1806 26.6079 43.1406 27.3492C43.3913 27.5412 43.7006 27.8079 43.8233 27.9306C43.946 28.0586 44.0846 28.1599 44.1273 28.1599C44.2233 28.1599 44.4153 27.9199 44.4633 27.7439C44.4793 27.6692 44.5273 27.5466 44.5646 27.4719C44.6606 27.2906 44.6606 27.0186 44.5646 26.8372C44.522 26.7572 44.2606 26.5066 43.9833 26.2719C43.0073 25.4666 42.4526 24.6399 42.2126 23.6426C42.0633 23.0292 42.0953 22.9812 43.1833 22.0479C44.6553 20.7786 45.21 20.1066 45.8233 18.8319C46.2073 18.0266 46.4526 17.3546 46.65 16.5599C46.778 16.0372 46.794 15.8772 46.794 15.0666C46.7886 14.1172 46.746 13.8132 46.474 12.8639C46.1593 11.7652 45.2846 10.3412 44.09 8.97058C43.3806 8.15458 42.8633 7.76525 42.7033 7.93058Z" fill="black"/>
<path d="M17.0137 9.65861C17.0137 9.73327 17.291 10.0586 17.803 10.5759C19.019 11.8293 19.4403 12.4373 19.7603 13.3973C19.9577 13.9946 19.9577 14.0053 19.931 14.6666C19.8884 15.7493 19.5897 16.9333 18.827 19.0453C18.235 20.6826 18.1337 21.0933 18.0963 21.9466C18.0643 22.7413 18.139 23.2639 18.4057 24.0693C18.5977 24.6399 19.307 26.0426 19.691 26.5973C20.155 27.2693 21.243 28.2239 22.1337 28.7466C22.5657 29.0026 23.5737 29.4399 23.723 29.4399C23.7764 29.4399 23.8724 29.3866 23.931 29.3173C24.0484 29.1893 24.267 28.7519 24.267 28.6453C24.267 28.6133 24.3044 28.5279 24.3524 28.4533C24.4804 28.2613 24.5124 27.7653 24.411 27.6053C24.363 27.5359 24.1017 27.3493 23.8297 27.1999C23.1684 26.8266 22.8804 26.6186 22.3844 26.1333C21.6964 25.4719 21.2537 24.8106 20.955 23.9946C20.6404 23.1359 20.555 22.4426 20.6884 21.9306C20.7257 21.8079 20.9657 21.1839 21.2324 20.5493C21.9684 18.7786 22.4804 17.1679 22.7204 15.8666C22.811 15.3599 22.8484 14.2026 22.779 13.7546C22.699 13.1893 22.5924 12.8906 22.3044 12.4533C21.451 11.1733 19.6963 10.0746 17.8297 9.65861C17.179 9.50928 17.0137 9.51461 17.0137 9.65861Z" fill="black"/>
<path d="M25.5729 31.1306C25.1622 31.136 23.0609 31.1946 20.9062 31.2533C18.7516 31.312 15.5569 31.3813 13.8129 31.4133C12.0689 31.4453 10.1862 31.4933 9.63156 31.5253C8.91156 31.5626 8.54356 31.5626 8.34089 31.52C8.13823 31.4773 8.02623 31.4773 7.95156 31.5146C7.89289 31.5466 7.76489 31.5733 7.66889 31.5733C7.57289 31.5733 7.29023 31.632 7.04489 31.7066C6.53289 31.8506 6.44756 31.9253 6.30889 32.3733C6.22889 32.6293 6.21289 32.9386 6.21289 34.88C6.21289 37.168 6.25556 37.984 6.45822 39.3866C6.84222 42.0426 7.57823 44.1546 9.06089 46.8213C10.2449 48.9546 11.1249 50.16 12.4796 51.52C13.5729 52.6186 15.2529 53.968 16.6929 54.912C19.7436 56.9013 23.8502 58.6026 27.4822 59.3813C31.3809 60.2186 34.9329 60.3093 38.7089 59.68C42.1756 59.0986 45.7329 57.6266 48.3356 55.696C50.9543 53.7493 53.6156 50.7786 55.1569 48.08C55.5036 47.472 56.2876 45.8986 56.5116 45.3493C57.0663 44.016 57.6796 41.9626 57.9676 40.48C58.2236 39.168 58.3463 37.2693 58.2449 36.1866C58.0849 34.528 57.4396 32.6346 56.7196 31.7226C56.2556 31.1306 56.0316 31.104 55.8663 31.6266C55.8076 31.808 55.7329 31.9573 55.7063 31.9573C55.5676 31.9573 53.2103 31.8346 51.0129 31.7066C46.5063 31.4506 42.3249 31.3013 35.3329 31.1466C33.2209 31.0986 27.6742 31.0933 25.5729 31.1306ZM55.1943 33.888C55.0876 34.2613 54.7196 35.8986 54.6449 36.3466C54.6023 36.608 54.5276 37.152 54.4796 37.5466C54.2823 39.2693 53.8449 41.2533 53.3756 42.5066C52.3356 45.312 50.4049 47.8026 47.1303 50.56C44.8263 52.5066 42.3516 53.952 39.8823 54.7946C36.7569 55.8613 30.9436 55.664 25.6529 54.3146C23.4289 53.744 20.8636 52.832 19.3329 52.0693C16.6769 50.7413 14.3409 48.9386 12.8156 47.04C11.8076 45.7866 10.7782 43.9893 10.2662 42.5973C9.56223 40.6773 9.23156 38.704 9.09289 35.6533C9.07689 35.2693 9.05023 34.752 9.03423 34.4906L9.00223 34.0266H14.2982C17.2156 34.0266 20.6662 34 21.9729 33.9733C27.8342 33.8453 31.5623 33.8133 41.8396 33.8026C51.0823 33.7866 54.3729 33.7706 55.1249 33.728C55.2316 33.7226 55.2369 33.7386 55.1943 33.888Z" fill="black"/>
</svg>
