<svg width="48" height="48" viewBox="0 0 48 48" fill="none" xmlns="http://www.w3.org/2000/svg">
<path d="M13.8953 30.9577C10.3039 24.7682 9.31049 17.2033 14.2009 11.3959C19.2442 5.51215 28.643 5.8178 33.9154 10.9375C39.1115 16.0571 38.271 24.2333 34.8324 29.9643C30.6297 36.9179 18.6329 35.3132 13.7424 30.3463C13.284 29.8879 12.5962 30.5756 13.0547 31.0341C18.3272 36.383 28.643 37.3763 34.3739 32.1038C39.7992 27.137 39.9521 16.5156 35.2909 11.0903C30.324 5.28291 21.1545 4.13672 15.1179 9.25638C8.31712 15.0638 8.85201 24.2333 13.0547 31.4161C13.3604 32.0274 14.2009 31.4925 13.8953 30.9577Z" fill="#34D399" stroke="#34D399" stroke-width="1.3"/>
<path d="M17.7925 23.6984C16.1879 18.2731 17.9454 13.3827 23.9056 12.5421C28.7196 11.9308 31.4705 15.2166 32.8459 19.3429C34.2213 23.5456 31.4705 27.519 27.497 28.8945C23.3707 30.2699 19.2444 27.0606 17.5633 23.5456C17.3341 23.0107 16.4935 23.4692 16.7228 24.0041C18.8623 28.5124 23.6763 31.1105 28.5668 29.5058C33.4572 27.9011 34.909 22.5522 33.3808 18.1203C31.7761 13.2298 27.7262 10.5554 22.6066 11.7016C16.6463 13.0006 15.1945 18.5787 16.7992 23.9276C17.0284 24.5389 17.9454 24.3097 17.7925 23.6984Z" fill="#34D399" stroke="#34D399" stroke-width="1.3"/>
<path d="M19.5503 21.7117C20.0088 20.3363 20.6201 19.0373 21.3842 17.8911C22.454 16.2864 24.5171 14.7582 26.5039 15.8279C27.0387 16.1336 27.4972 15.2931 26.9623 14.9874C25.6633 14.2997 23.3709 14.3761 22.2247 15.3695C20.4672 16.9741 19.321 19.1901 18.6333 21.4825C18.4805 22.0174 19.3975 22.323 19.5503 21.7117Z" fill="#34D399" stroke="#34D399" stroke-width="1.3"/>
<path d="M34.3741 31.4162C34.909 32.0275 41.7862 39.7452 37.6599 39.898C33.61 40.0509 29.6365 40.1273 25.5866 40.2037C21.5367 40.2801 17.5633 40.3565 13.5134 40.4329C10.4569 40.5093 8.62294 40.5093 10.2276 36.8415C11.0682 34.9312 12.2908 33.1737 13.6662 31.569C14.0483 31.1105 13.3605 30.4228 12.9785 30.8813C10.9917 33.3265 7.7824 37.3764 8.01164 40.7386C8.01164 40.9678 8.16447 41.1206 8.39371 41.197C12.1379 42.1904 17.1812 41.197 21.0783 41.1206C26.58 41.0442 32.1581 40.8914 37.6599 40.7386C38.1183 40.7386 41.1749 40.8914 40.7928 39.4395C39.9522 36.1538 37.2014 33.0973 35.0618 30.6521C34.6033 30.27 33.9156 30.9577 34.3741 31.4162Z" fill="#34D399" stroke="#34D399" stroke-width="1.3"/>
</svg>
