<svg width="50" height="59" viewBox="0 0 50 59" fill="none" xmlns="http://www.w3.org/2000/svg">
<path d="M47.2529 0.677353C47.1782 0.709354 46.9862 0.741352 46.8262 0.746685C46.6662 0.757351 46.3782 0.810684 46.1862 0.869354C45.9942 0.92802 45.6742 1.00802 45.4769 1.04002C44.9809 1.13069 44.8102 1.25869 44.6555 1.65335C44.5329 1.96802 44.5329 1.97869 44.6182 2.37335C44.6662 2.59202 44.7622 2.91202 44.8369 3.07735C44.9702 3.37069 44.9702 3.38668 44.8902 3.71735C44.8422 3.90402 44.7889 4.31469 44.7675 4.64002C44.7409 4.96002 44.7195 10.9974 44.7195 18.0534C44.7195 28.6027 44.7035 31.152 44.6395 32.4267C44.5489 34.24 44.5275 45.9254 44.6075 50.5227L44.6555 53.2534H43.4342C42.0102 53.2534 39.1995 53.328 36.1862 53.4454C33.1622 53.5627 22.6715 53.6214 14.4529 53.568C10.7142 53.5467 7.50887 53.5147 7.33287 53.4987C7.15687 53.4827 6.6182 53.4454 6.13287 53.4134C5.64753 53.3814 5.20487 53.344 5.14087 53.3334C5.02887 53.3067 5.02887 53.2907 4.99687 50.736C4.97553 49.3174 4.9382 47.584 4.9062 46.88C4.8742 46.176 4.81553 44.7467 4.76753 43.7067C4.70887 42.336 4.67153 39.6 4.63953 33.8134C4.58087 23.872 4.52753 20.4267 4.29287 11.8134C4.2502 10.272 4.2022 7.97869 4.18087 6.72002L4.14353 4.42669L9.23153 4.44268C16.1169 4.47469 25.3489 4.33068 31.2795 4.10669C31.6635 4.09602 32.5489 4.06935 33.2529 4.05335C35.6422 4.00002 37.8875 3.91468 39.9995 3.80802C41.1569 3.74935 42.4902 3.70668 42.9595 3.70668C43.4289 3.71202 43.8449 3.71735 43.8769 3.71202C43.9142 3.70668 43.9942 3.59468 44.0582 3.45069C44.1222 3.31202 44.1969 3.14669 44.2289 3.07735C44.2609 3.01335 44.2875 2.84269 44.2875 2.70935C44.2929 2.48535 44.2769 2.45869 44.1062 2.35735C43.9409 2.26669 43.8235 2.25602 42.8529 2.26135C42.2662 2.26669 41.2955 2.24535 40.6929 2.21869C39.0555 2.13335 36.8795 2.05869 34.3462 2.00002C33.0982 1.96802 30.8102 1.90935 29.2529 1.86668C21.9729 1.66402 12.6715 1.54668 7.3862 1.58935C5.08753 1.61069 3.26353 1.64802 3.17287 1.67469C3.08753 1.70135 2.86887 1.74935 2.69287 1.78135C2.1222 1.88269 1.9782 1.94135 1.8982 2.09602C1.84487 2.20802 1.8182 2.80002 1.79153 4.82669C1.75953 7.37069 1.72753 8.67735 1.57287 14.08C1.5302 15.5734 1.47153 18 1.43953 19.4667C1.40753 20.9334 1.35953 23.3707 1.32753 24.88C1.29553 26.3894 1.25287 30.7467 1.2262 34.56C1.19953 38.3734 1.1622 41.7547 1.1462 42.08C1.0982 42.992 0.964865 46.3414 0.906198 48.08C0.879532 48.944 0.847532 50.8267 0.842198 52.2667C0.826198 55.2854 0.799532 55.0987 1.34887 56.0587C1.5302 56.3787 1.74887 56.7734 1.82887 56.9334C2.01553 57.312 2.09553 57.4027 2.45287 57.6374C2.61287 57.744 2.81553 57.904 2.90087 57.9947C3.0502 58.1494 3.08753 58.16 3.4342 58.16C3.6422 58.16 4.2982 58.112 4.89553 58.0534C7.1462 57.8347 7.75953 57.824 18.2129 57.824C30.0742 57.8294 31.4982 57.856 38.1062 58.192C39.8715 58.2774 44.9382 58.3307 46.2662 58.272C46.9702 58.2454 47.0875 58.224 47.2635 58.1174C47.4822 57.984 47.7595 57.5894 47.9409 57.1467C48.0102 56.992 48.1222 56.768 48.1915 56.656C48.2609 56.544 48.3195 56.384 48.3195 56.2934C48.3195 56.2027 48.3782 56.0374 48.4475 55.9254C48.5222 55.8134 48.6022 55.584 48.6342 55.4187C48.6662 55.248 48.7089 55.0827 48.7302 55.0507C48.7515 55.0134 48.7729 53.7974 48.7782 52.3467C48.7782 50.896 48.8102 48.6987 48.8475 47.4667C48.9489 43.8827 48.9435 35.488 48.8369 32.32C48.7142 28.656 48.7089 27.392 48.7889 17.3867C48.8369 10.848 48.8422 8.01602 48.7995 6.16002C48.7675 4.79469 48.7409 3.63202 48.7409 3.57335C48.7409 3.46669 48.8529 2.97602 48.9542 2.64002C48.9862 2.53868 49.0129 2.22402 49.0129 1.93602C49.0129 1.46669 49.0022 1.40802 48.8795 1.26402C48.7782 1.14135 48.6929 1.10402 48.4742 1.07735C48.2395 1.05069 48.1595 1.00802 47.9889 0.826687C47.8182 0.650684 47.7489 0.613354 47.5835 0.618687C47.4769 0.618687 47.3275 0.645351 47.2529 0.677353Z" fill="black"/>
<path d="M14.5479 12.3734C14.5266 12.3948 14.3613 12.4321 14.1746 12.4588C13.9879 12.4801 13.6946 12.5388 13.5186 12.5868C13.3426 12.6294 13.0973 12.6988 12.9693 12.7308C12.3559 12.8854 11.7266 13.8401 11.4386 15.0401C11.3159 15.5414 11.2733 16.7308 11.3533 17.3868C11.4546 18.2614 11.7319 19.2268 11.9133 19.3441C12.0519 19.4401 12.0839 19.3708 12.3453 18.4108C12.4466 18.0374 12.5906 17.6054 12.6706 17.4454C12.9746 16.8161 13.7106 16.1334 14.1639 16.0481C14.4146 16.0001 14.6919 16.0534 14.8413 16.1708C15.0706 16.3521 15.6039 16.9761 16.1906 17.7388C16.8626 18.6241 17.3373 19.1468 17.7266 19.4241C17.8759 19.5361 18.1213 19.7227 18.2653 19.8401C18.4146 19.9574 18.6866 20.1281 18.8786 20.2134C19.1826 20.3521 19.2839 20.3734 19.7106 20.3734C20.1586 20.3734 20.2173 20.3574 20.5959 20.1707C21.1293 19.9094 21.5293 19.4827 22.3826 18.2614C23.0919 17.2534 23.4973 16.7628 23.8813 16.4428C24.4519 15.9734 24.7826 16.2188 26.2759 18.1868C27.0973 19.2801 27.4866 19.7227 27.8653 20.0001C27.9826 20.0907 28.2013 20.2561 28.3453 20.3734C29.2466 21.0987 30.1319 21.0081 30.9693 20.1121C31.3799 19.6747 31.8439 18.9121 32.6866 17.3068C33.2946 16.1548 33.5186 15.8188 33.7906 15.6481C33.9559 15.5468 33.9986 15.5414 34.2226 15.5948C34.6546 15.7068 34.8573 15.8508 35.3906 16.4374C36.2173 17.3441 37.1186 18.2241 37.4493 18.4481C37.7319 18.6401 37.7693 18.6508 37.9079 18.5921C38.0146 18.5494 38.1106 18.4321 38.2066 18.2508C38.2813 18.0961 38.3453 17.9468 38.3453 17.9148C38.3453 17.8828 38.3826 17.7814 38.4306 17.6854C38.4786 17.5894 38.5266 17.3761 38.5426 17.2108L38.5693 16.9068L38.1799 16.3734C37.9666 16.0801 37.5986 15.5414 37.3639 15.1734C36.3933 13.6481 35.9399 13.1628 35.1079 12.7361C34.8039 12.5814 34.4626 12.4374 34.3399 12.4214C34.0413 12.3734 33.5079 12.4641 32.4733 12.7468C31.7853 12.9281 31.4013 13.3548 30.4466 14.9601C30.0893 15.5628 29.6893 16.2188 29.5559 16.4161L29.3159 16.7788L29.1613 16.5921C29.0759 16.4854 28.6653 15.9414 28.2546 15.3761C26.9799 13.6321 26.3399 12.9654 25.7426 12.7628C25.6519 12.7308 25.4546 12.6294 25.3053 12.5388C25.0653 12.3894 25.0013 12.3734 24.6119 12.3788C23.8653 12.3841 22.5959 12.6614 22.1159 12.9228C21.5719 13.2161 20.9853 13.8614 20.0253 15.2268C19.7639 15.5948 19.5026 15.9574 19.4333 16.0374L19.3159 16.1814L19.0279 15.8508C18.8679 15.6694 18.4839 15.2054 18.1746 14.8268C17.2626 13.7068 16.4253 12.9068 16.0199 12.7734C15.9133 12.7361 15.7053 12.6348 15.5613 12.5441C15.3479 12.4108 15.2199 12.3734 14.9373 12.3574C14.7453 12.3468 14.5693 12.3521 14.5479 12.3734Z" fill="black"/>
<path d="M25.7588 26.464C25.5988 26.4747 24.5321 26.5547 23.3854 26.64C20.8521 26.832 19.9028 26.8907 17.8654 26.96C14.6068 27.0774 14.2441 27.12 11.2628 27.792C10.8361 27.888 10.7188 27.9894 10.7188 28.272C10.7188 28.5174 11.1348 29.2747 11.3748 29.472L11.5721 29.632L12.6121 29.552C13.9828 29.44 14.3561 29.4454 17.3321 29.6C20.5961 29.7707 22.1588 29.8294 24.4574 29.872C26.0468 29.904 26.4148 29.8934 26.9588 29.8187C28.8788 29.5467 31.8868 28.752 32.7721 28.2774C33.0281 28.144 33.0974 28.0747 33.1081 27.9627C33.1241 27.8347 33.0921 27.8027 32.7881 27.664C32.0361 27.3067 30.5214 26.9174 28.9054 26.672C27.5508 26.464 26.7028 26.4054 25.7588 26.464Z" fill="black"/>
<path d="M24.1863 37.2587C19.413 37.4027 15.3597 37.7547 13.397 38.1867C12.165 38.4641 10.8743 38.9654 10.6877 39.2534C10.5383 39.4827 10.533 39.7601 10.677 40.0161C10.837 40.2881 11.157 40.5441 11.4077 40.5921C11.509 40.6134 12.101 40.5974 12.7197 40.5601C14.3517 40.4587 15.4397 40.5227 20.5063 41.0081C23.0343 41.2534 25.733 41.3974 26.773 41.3387C28.3677 41.2587 31.0023 40.5814 32.3997 39.8987C33.077 39.5681 33.5463 39.1787 33.5463 38.9494C33.5463 38.8214 33.493 38.7894 32.8797 38.5387C31.6797 38.0427 30.2877 37.6534 28.9063 37.4187C27.5517 37.1947 26.9543 37.1734 24.1863 37.2587Z" fill="black"/>
</svg>
