<svg width="121" height="106" viewBox="0 0 121 106" fill="none" xmlns="http://www.w3.org/2000/svg">
<ellipse cx="60.1786" cy="52.7104" rx="52" ry="42" transform="rotate(13.1245 60.1786 52.7104)" fill="#FEF3C7"/>
<g clip-path="url(#clip0_60:179)">
<path fill-rule="evenodd" clip-rule="evenodd" d="M88.5683 63.4854C66.6607 77.0314 40.9443 72.8334 27.7278 50.4561C27.2879 49.7111 26.3274 49.4636 25.587 49.8954C24.84 50.3388 24.5918 51.3003 25.0317 52.0454C39.1917 76.0416 66.7355 80.6653 90.2134 66.1539C90.9466 65.7025 91.1777 64.7309 90.7242 63.9934C90.2641 63.2674 89.3016 63.0341 88.5683 63.4854Z" fill="#F59E0B"/>
<path d="M49.0881 51.5542C51.2706 52.8142 54.0612 52.0665 55.3213 49.8841C56.5813 47.7017 55.8335 44.911 53.6511 43.651C51.4686 42.391 48.678 43.1387 47.418 45.3211C46.158 47.5036 46.9057 50.2942 49.0881 51.5542Z" fill="#F59E0B"/>
<path d="M67.874 56.7956C70.0138 58.031 72.7499 57.2979 73.9853 55.1581C75.2207 53.0184 74.4875 50.2823 72.3478 49.0469C70.208 47.8115 67.4719 48.5446 66.2365 50.6844C65.0011 52.8241 65.7343 55.5602 67.874 56.7956Z" fill="#F59E0B"/>
</g>
<defs>
<clipPath id="clip0_60:179">
<rect width="65" height="65" fill="white" transform="translate(45.5 15) rotate(30)"/>
</clipPath>
</defs>
</svg>
