<svg width="1920" height="900" viewBox="0 0 1920 900" fill="none" xmlns="http://www.w3.org/2000/svg">
<mask id="mask0_57:1394" style="mask-type:alpha" maskUnits="userSpaceOnUse" x="0" y="0" width="1920" height="900">
<rect width="1920" height="900" fill="#C4C4C4"/>
</mask>
<g mask="url(#mask0_57:1394)">
<mask id="mask1_57:1394" style="mask-type:alpha" maskUnits="userSpaceOnUse" x="-238" y="416" width="1299" height="789">
<path d="M-194.982 1204.09L-237.504 770.482L1043.28 416.667L1060.94 906.236L-194.982 1204.09Z" fill="url(#paint0_linear_57:1394)"/>
</mask>
<g mask="url(#mask1_57:1394)">
<mask id="mask2_57:1394" style="mask-type:alpha" maskUnits="userSpaceOnUse" x="-244" y="394" width="1268" height="866">
<path d="M-243.546 660.581L-156.1 1259.95L1023.74 920.07L959.393 394.476L-243.546 660.581Z" fill="url(#paint1_linear_57:1394)"/>
</mask>
<g mask="url(#mask2_57:1394)">
<path d="M597.651 723.115C414.632 901.172 207.671 910.931 58.7475 901.915L-63.2489 902.984L-141.376 919.402L-13.3759 1075.37L212.195 1054.16L718.815 919.101C718.815 919.101 1112.52 685.125 999.08 682.93C902.124 669.118 787.592 587.532 597.651 723.115Z" fill="#FF9FC2"/>
<g filter="url(#filter0_f_57:1394)">
<path d="M597.651 723.115C401.034 877.256 398.542 890.406 136.322 905.471L-63.2489 902.984L-141.376 919.402L-13.3759 1075.37L212.195 1054.16L718.815 919.101C718.815 919.101 1112.52 685.125 999.08 682.93C902.124 669.118 787.592 587.532 597.651 723.115Z" fill="#FF9FC2"/>
</g>
<g filter="url(#filter1_f_57:1394)">
<path d="M597.651 723.115C336.504 965.333 333.306 881.239 71.0859 896.304L-4.88841 894.158L-84.1091 902.792L-141.376 919.402L-13.3759 1075.37L212.195 1054.16L718.815 919.101C718.815 919.101 1112.52 685.125 999.08 682.93C902.124 669.118 788.683 561.781 597.651 723.115Z" fill="#FF9FC2"/>
</g>
<g filter="url(#filter2_f_57:1394)">
<path d="M645.091 694.437C383.944 936.654 357.247 1011.46 33.2968 895.974L-42.6776 893.828L-163.615 902.081L-258.672 918.361L-13.094 1075.05L212.477 1053.84L719.097 918.782C719.097 918.782 1112.81 684.805 999.362 682.61C902.406 668.799 836.123 533.102 645.091 694.437Z" fill="#FF9FC2"/>
</g>
<g filter="url(#filter3_f_57:1394)">
<path d="M651.796 681.021C477.562 916.833 325.556 964.212 85.7525 889.334L-228.265 801.925L-269.766 867.097L-258.672 918.361L-13.094 1075.05L212.477 1053.84L719.097 918.782C719.097 918.782 1112.81 684.805 999.362 682.61C902.406 668.799 879.585 422.485 651.796 681.021Z" fill="#FF9FC2"/>
</g>
</g>
</g>
<mask id="mask3_57:1394" style="mask-type:alpha" maskUnits="userSpaceOnUse" x="853" y="416" width="1299" height="789">
<path d="M2109.04 1204.09L2151.56 770.482L870.776 416.667L853.118 906.236L2109.04 1204.09Z" fill="url(#paint2_linear_57:1394)"/>
</mask>
<g mask="url(#mask3_57:1394)">
<mask id="mask4_57:1394" style="mask-type:alpha" maskUnits="userSpaceOnUse" x="890" y="394" width="1268" height="866">
<path d="M2157.6 660.581L2070.16 1259.95L890.314 920.07L954.665 394.476L2157.6 660.581Z" fill="url(#paint3_linear_57:1394)"/>
</mask>
<g mask="url(#mask4_57:1394)">
<path d="M1316.41 723.115C1499.43 901.172 1706.39 910.931 1855.31 901.915L1977.31 902.984L2055.43 919.402L1927.43 1075.37L1701.86 1054.16L1195.24 919.101C1195.24 919.101 801.535 685.125 914.979 682.93C1011.93 669.118 1126.47 587.532 1316.41 723.115Z" fill="#FF9FC2"/>
<g filter="url(#filter4_f_57:1394)">
<path d="M1316.41 723.115C1513.02 877.256 1515.52 890.406 1777.74 905.471L1977.31 902.984L2055.43 919.402L1927.43 1075.37L1701.86 1054.16L1195.24 919.101C1195.24 919.101 801.535 685.125 914.979 682.93C1011.93 669.118 1126.47 587.532 1316.41 723.115Z" fill="#FF9FC2"/>
</g>
<g filter="url(#filter5_f_57:1394)">
<path d="M1316.41 723.115C1577.55 965.333 1580.75 881.239 1842.97 896.304L1918.95 894.158L1998.17 902.792L2055.43 919.402L1927.43 1075.37L1701.86 1054.16L1195.24 919.101C1195.24 919.101 801.535 685.125 914.979 682.93C1011.93 669.118 1125.38 561.781 1316.41 723.115Z" fill="#FF9FC2"/>
</g>
<g filter="url(#filter6_f_57:1394)">
<path d="M1268.97 694.437C1530.11 936.654 1556.81 1011.46 1880.76 895.974L1956.74 893.828L2077.67 902.081L2172.73 918.361L1927.15 1075.05L1701.58 1053.84L1194.96 918.782C1194.96 918.782 801.253 684.805 914.697 682.61C1011.65 668.799 1077.94 533.102 1268.97 694.437Z" fill="#FF9FC2"/>
</g>
<g filter="url(#filter7_f_57:1394)">
<path d="M1262.26 681.021C1436.5 916.833 1588.5 964.212 1828.31 889.334L2142.32 801.925L2183.82 867.097L2172.73 918.361L1927.15 1075.05L1701.58 1053.84L1194.96 918.782C1194.96 918.782 801.253 684.805 914.697 682.61C1011.65 668.799 1034.47 422.485 1262.26 681.021Z" fill="#FF9FC2"/>
</g>
</g>
</g>
</g>
<defs>
<filter id="filter0_f_57:1394" x="-153.317" y="634.063" width="1184.87" height="453.252" filterUnits="userSpaceOnUse" color-interpolation-filters="sRGB">
<feFlood flood-opacity="0" result="BackgroundImageFix"/>
<feBlend mode="normal" in="SourceGraphic" in2="BackgroundImageFix" result="shape"/>
<feGaussianBlur stdDeviation="5.97027" result="effect1_foregroundBlur_57:1394"/>
</filter>
<filter id="filter1_f_57:1394" x="-160.14" y="616.415" width="1198.51" height="477.723" filterUnits="userSpaceOnUse" color-interpolation-filters="sRGB">
<feFlood flood-opacity="0" result="BackgroundImageFix"/>
<feBlend mode="normal" in="SourceGraphic" in2="BackgroundImageFix" result="shape"/>
<feGaussianBlur stdDeviation="9.38185" result="effect1_foregroundBlur_57:1394"/>
</filter>
<filter id="filter2_f_57:1394" x="-291.082" y="583.71" width="1343.38" height="523.755" filterUnits="userSpaceOnUse" color-interpolation-filters="sRGB">
<feFlood flood-opacity="0" result="BackgroundImageFix"/>
<feBlend mode="normal" in="SourceGraphic" in2="BackgroundImageFix" result="shape"/>
<feGaussianBlur stdDeviation="16.205" result="effect1_foregroundBlur_57:1394"/>
</filter>
<filter id="filter3_f_57:1394" x="-322.645" y="510.535" width="1395.42" height="617.4" filterUnits="userSpaceOnUse" color-interpolation-filters="sRGB">
<feFlood flood-opacity="0" result="BackgroundImageFix"/>
<feBlend mode="normal" in="SourceGraphic" in2="BackgroundImageFix" result="shape"/>
<feGaussianBlur stdDeviation="26.4398" result="effect1_foregroundBlur_57:1394"/>
</filter>
<filter id="filter4_f_57:1394" x="882.509" y="634.063" width="1184.87" height="453.252" filterUnits="userSpaceOnUse" color-interpolation-filters="sRGB">
<feFlood flood-opacity="0" result="BackgroundImageFix"/>
<feBlend mode="normal" in="SourceGraphic" in2="BackgroundImageFix" result="shape"/>
<feGaussianBlur stdDeviation="5.97027" result="effect1_foregroundBlur_57:1394"/>
</filter>
<filter id="filter5_f_57:1394" x="875.686" y="616.415" width="1198.51" height="477.723" filterUnits="userSpaceOnUse" color-interpolation-filters="sRGB">
<feFlood flood-opacity="0" result="BackgroundImageFix"/>
<feBlend mode="normal" in="SourceGraphic" in2="BackgroundImageFix" result="shape"/>
<feGaussianBlur stdDeviation="9.38185" result="effect1_foregroundBlur_57:1394"/>
</filter>
<filter id="filter6_f_57:1394" x="861.758" y="583.71" width="1343.38" height="523.755" filterUnits="userSpaceOnUse" color-interpolation-filters="sRGB">
<feFlood flood-opacity="0" result="BackgroundImageFix"/>
<feBlend mode="normal" in="SourceGraphic" in2="BackgroundImageFix" result="shape"/>
<feGaussianBlur stdDeviation="16.205" result="effect1_foregroundBlur_57:1394"/>
</filter>
<filter id="filter7_f_57:1394" x="841.288" y="510.535" width="1395.42" height="617.4" filterUnits="userSpaceOnUse" color-interpolation-filters="sRGB">
<feFlood flood-opacity="0" result="BackgroundImageFix"/>
<feBlend mode="normal" in="SourceGraphic" in2="BackgroundImageFix" result="shape"/>
<feGaussianBlur stdDeviation="26.4398" result="effect1_foregroundBlur_57:1394"/>
</filter>
<linearGradient id="paint0_linear_57:1394" x1="411.878" y1="838.5" x2="444.751" y2="985.682" gradientUnits="userSpaceOnUse">
<stop stop-color="#C4C4C4"/>
<stop offset="1" stop-color="#C4C4C4" stop-opacity="0"/>
</linearGradient>
<linearGradient id="paint1_linear_57:1394" x1="1003.3" y1="716.205" x2="-153.631" y2="948.696" gradientUnits="userSpaceOnUse">
<stop stop-color="#C4C4C4" stop-opacity="0"/>
<stop offset="0.364583" stop-color="#C4C4C4"/>
<stop offset="0.609375" stop-color="#C4C4C4"/>
<stop offset="1" stop-color="#C4C4C4" stop-opacity="0"/>
</linearGradient>
<linearGradient id="paint2_linear_57:1394" x1="1502.18" y1="838.5" x2="1469.31" y2="985.682" gradientUnits="userSpaceOnUse">
<stop stop-color="#C4C4C4"/>
<stop offset="1" stop-color="#C4C4C4" stop-opacity="0"/>
</linearGradient>
<linearGradient id="paint3_linear_57:1394" x1="910.757" y1="716.205" x2="2067.69" y2="948.696" gradientUnits="userSpaceOnUse">
<stop stop-color="#C4C4C4" stop-opacity="0"/>
<stop offset="0.364583" stop-color="#C4C4C4"/>
<stop offset="0.609375" stop-color="#C4C4C4"/>
<stop offset="1" stop-color="#C4C4C4" stop-opacity="0"/>
</linearGradient>
</defs>
</svg>
