<svg width="41" height="40" viewBox="0 0 41 40" fill="none" xmlns="http://www.w3.org/2000/svg">
<path d="M21.2401 0.467941C21.1441 0.479942 21.0441 0.499943 21.0201 0.519943C21.0001 0.535942 20.9001 0.563942 20.8001 0.579945C20.5481 0.619942 20.4881 0.663944 20.1961 0.995945C20.0561 1.15994 19.5521 1.66394 19.0801 2.11594C17.4241 3.69994 16.1281 4.94794 14.8001 6.23994C14.0641 6.95594 13.0561 7.92794 12.5601 8.39994C12.0641 8.87194 11.4161 9.49194 11.1201 9.77994C8.18813 12.6159 6.70013 14.0719 3.21613 17.5359C2.00014 18.7399 0.968136 19.7559 0.924136 19.7879C0.768137 19.8959 0.640137 20.1719 0.640137 20.3919C0.640137 20.5679 0.680137 20.6759 0.904136 21.1119C1.16014 21.6079 1.23614 21.7039 1.59614 21.9959C1.90414 22.2399 1.86014 22.2719 3.53213 20.6079L5.00013 19.1399L4.98013 19.3199C4.95613 19.4999 4.80013 21.4079 4.72013 22.4399C4.69613 22.7359 4.66013 24.0759 4.64013 25.4199C4.60413 27.8399 4.58013 28.3239 4.40413 30.0399C4.27613 31.2839 4.24413 31.9959 4.23213 33.6999C4.22013 35.5399 4.20413 35.4319 4.63213 36.1799C4.75613 36.3999 4.89613 36.6639 4.94413 36.7639C5.05613 37.0039 5.28013 37.2519 5.56013 37.4399C5.68413 37.5239 5.80813 37.6199 5.84013 37.6599C6.00013 37.8519 6.51613 37.9919 7.04013 37.9799C7.14013 37.9759 7.76813 37.9599 8.44013 37.9439C9.72413 37.9079 9.87613 37.9159 12.2201 38.0999C12.9241 38.1519 13.9881 38.2359 14.5801 38.2799C15.1761 38.3239 16.4721 38.4319 17.4601 38.5199C19.5761 38.7039 20.5201 38.7759 21.9601 38.8599C22.5441 38.8919 24.0841 38.9919 25.3801 39.0799C29.3881 39.3479 30.5921 39.3959 32.4601 39.3799C33.5361 39.3679 33.7521 39.3559 34.0801 39.2839C35.1761 39.0479 35.7481 38.3839 36.2321 36.7999L36.3361 36.4599L36.3601 33.4999C36.3841 31.1759 36.4041 30.4119 36.4521 29.9399C36.7321 27.3919 37.0561 22.5359 37.1161 20.0479L37.1401 18.9599L38.2801 19.9599C39.6641 21.1799 40.1201 21.5639 40.2561 21.6359C40.3921 21.7119 40.4601 21.6519 40.5441 21.3799L40.6121 21.1719L40.4921 20.9559C40.3641 20.7239 38.3281 18.0239 37.6641 17.2039C37.2001 16.6319 36.1401 15.3919 35.6641 14.8599C35.0401 14.1679 33.7001 12.6959 33.4001 12.3799C33.2361 12.2039 32.8681 11.8079 32.5801 11.4999C31.9561 10.8279 31.4321 10.2719 29.7801 8.51994C29.6001 8.33194 29.3201 8.03594 29.1561 7.85994C28.9881 7.68394 28.7121 7.38794 28.5361 7.19994C28.3641 7.01594 28.0681 6.69994 27.8801 6.49994C27.6921 6.29994 27.2881 5.86794 26.9801 5.53994C25.2441 3.68394 23.9561 2.36394 23.0041 1.46394C22.5561 1.03994 21.9881 0.599941 21.8921 0.599941C21.8601 0.599941 21.7881 0.563942 21.7321 0.519943C21.6761 0.475945 21.5841 0.443943 21.5241 0.447945C21.4681 0.451942 21.3401 0.459942 21.2401 0.467941ZM22.2161 3.75994C22.9921 4.61594 23.9441 5.61594 25.5801 7.29994C26.2641 8.00394 27.3801 9.15594 28.0601 9.85994C31.0121 12.9039 32.0201 13.9399 33.3321 15.2639L34.7201 16.6679L34.5721 16.8239C34.2481 17.1639 34.2401 17.2919 34.3481 19.6959C34.4081 21.0239 34.4081 21.4239 34.3681 22.8759C34.3121 24.8719 34.1801 26.7959 33.9401 29.2199C33.6641 31.9599 33.6001 33.6159 33.7041 35.3359L33.7281 35.7319L33.1161 35.7039C32.7761 35.6879 32.0521 35.6399 31.5001 35.5959C30.9521 35.5559 30.1681 35.4919 29.7601 35.4599C26.3681 35.1919 22.6241 35.0719 14.1001 34.9599C11.0041 34.9199 9.11213 34.8359 7.55613 34.6759L7.13613 34.6319L7.15213 32.3639C7.19213 27.7439 7.18413 27.1879 7.06813 25.7599C7.00813 25.0439 6.91613 23.7759 6.86013 22.9399C6.69613 20.4879 6.56013 18.5639 6.52013 18.1999C6.49613 18.0119 6.48013 17.8199 6.48013 17.7679C6.48013 17.6999 7.12413 17.0279 8.97213 15.1679C11.2641 12.8639 12.0121 12.1039 14.0001 10.0599C14.3841 9.66394 15.3121 8.71994 16.0601 7.95994C17.7441 6.25594 18.8601 5.11194 19.7361 4.19994C20.1041 3.81594 20.5961 3.31194 20.8321 3.08794L21.2521 2.67194L21.4161 2.86794C21.5081 2.97194 21.8681 3.37594 22.2161 3.75994Z" fill="#34D399"/>
</svg>
