<svg width="38" height="39" viewBox="0 0 38 39" fill="none" xmlns="http://www.w3.org/2000/svg">
<path d="M1.31981 0.432053C1.06781 0.500053 1.05981 0.504051 1.01181 0.67205C0.971815 0.808052 0.975815 0.976051 1.01981 1.53205C1.05181 1.91205 1.09581 2.83205 1.11981 3.58005C1.33581 10.732 1.33981 10.692 1.09981 14.32C0.899815 17.36 0.855815 18.288 0.799815 20.54C0.711815 24.004 0.635815 25.86 0.479815 28.2C0.355816 30.056 0.319816 31.276 0.359816 32.26C0.423816 33.748 0.563815 34.28 1.16781 35.328C1.28381 35.532 1.43581 35.808 1.49981 35.936C1.63581 36.204 2.01581 36.636 2.23181 36.768C2.31581 36.816 2.46381 36.932 2.57181 37.028C2.67581 37.128 2.87981 37.26 3.02781 37.328C3.29181 37.452 3.29181 37.452 4.39581 37.504C6.58781 37.604 8.8158 37.652 10.3998 37.624C13.2918 37.576 16.7278 37.564 17.6398 37.6C18.8558 37.648 19.9598 37.704 21.8198 37.82C25.7518 38.068 27.9398 38.136 28.7598 38.044C30.5438 37.84 33.5078 36.824 34.5718 36.052C35.0438 35.708 35.3198 35.384 35.3198 35.172C35.3198 35.056 35.3158 35.052 34.4518 34.768C32.8478 34.236 30.6998 33.72 29.3598 33.54C28.7478 33.456 23.2598 33.352 19.2998 33.348C16.3718 33.344 16.0718 33.352 13.1598 33.52C10.5998 33.668 9.8918 33.696 8.3398 33.696C6.99181 33.7 5.51181 33.656 4.33581 33.576C3.96781 33.552 3.97181 33.556 3.85981 33.128C3.74781 32.68 3.71581 31.812 3.67981 27.86C3.65981 25.68 3.62381 23.448 3.60381 22.9C3.53181 21.12 3.47181 18.116 3.49981 17.48C3.51181 17.14 3.52781 15.572 3.52781 14C3.53581 10.612 3.50781 10.06 3.11581 6.12005C2.80781 3.02005 2.65981 2.07605 2.29181 0.888054C2.18381 0.536053 2.11981 0.440052 1.99981 0.440052C1.95981 0.440052 1.91181 0.420052 1.89981 0.400051C1.86381 0.344051 1.61981 0.356052 1.31981 0.432053Z" fill="#34D399"/>
<path d="M35.9399 0.724037C35.8319 0.744038 35.2559 0.832037 34.6599 0.924038C33.4319 1.10804 32.8519 1.22004 32.0799 1.42404C31.7799 1.50004 31.1999 1.60804 30.7799 1.66404C29.0719 1.88804 27.0079 2.24004 26.5999 2.37604C26.4999 2.40804 26.2759 2.46404 26.0999 2.50404C25.7359 2.58004 25.6079 2.68004 25.5239 2.96004C25.4239 3.29204 25.5399 3.70804 25.8999 4.31604C26.0199 4.52004 26.1519 4.76404 26.1959 4.85604C26.2839 5.06004 26.4919 5.30404 26.6439 5.38404C26.7079 5.41604 26.8519 5.52404 26.9639 5.62404C27.1119 5.75604 27.1919 5.80004 27.2559 5.78404C27.4319 5.74404 28.3919 5.55204 29.7999 5.28004C30.6039 5.12404 31.2839 4.98804 31.3159 4.97604C31.3799 4.95604 31.4519 4.84804 30.6319 5.99204C30.2879 6.47204 29.7759 7.22004 29.4919 7.65204C29.2119 8.08404 28.7199 8.84004 28.3999 9.32804C27.6199 10.524 26.9159 11.504 26.1639 12.436C25.8199 12.86 25.3279 13.472 25.0679 13.796C24.3199 14.72 23.2639 16.108 22.6399 16.992C22.1599 17.664 22.0559 17.788 22.0239 17.732C22.0039 17.692 21.6479 17.1 21.2399 16.42C20.8279 15.736 20.2519 14.756 19.9599 14.24C18.9279 12.412 18.3399 11.664 17.8239 11.536C17.7599 11.52 17.6319 11.46 17.5439 11.4C17.2679 11.22 17.1519 11.188 16.8119 11.216C16.3519 11.248 15.9399 11.304 15.8839 11.336C15.8559 11.352 15.6319 11.42 15.3799 11.48C14.8359 11.616 14.6079 11.736 14.1559 12.132C13.4639 12.74 12.8919 13.444 12.3199 14.396C11.4119 15.912 9.46786 20.244 8.29986 23.364C8.13986 23.792 7.82386 24.62 7.59986 25.204C6.57986 27.848 6.15186 29.412 6.27986 30.008C6.37186 30.448 6.80386 31.04 7.02786 31.04C7.14786 31.04 7.25186 30.9 7.47986 30.44C7.59586 30.208 7.86386 29.724 8.07986 29.36C8.92786 27.924 9.50786 26.828 10.8319 24.16C12.3439 21.108 13.1199 19.528 13.5399 18.64C14.4639 16.692 15.0079 15.836 15.8599 14.98C16.4959 14.34 16.7679 14.264 17.0719 14.636C17.3239 14.94 17.6439 15.42 18.0599 16.12C18.2759 16.484 18.6719 17.148 18.9439 17.6C19.2119 18.052 19.6679 18.84 19.9599 19.356C20.8239 20.892 21.0239 21.184 21.3559 21.412C21.4559 21.48 21.6079 21.596 21.6959 21.672C21.8919 21.848 22.1399 21.96 22.3319 21.96C22.5399 21.96 22.9279 21.824 23.1959 21.652C23.8399 21.244 24.2639 20.792 25.3599 19.344C26.3039 18.104 26.8639 17.4 27.7159 16.384C29.2599 14.552 30.1999 13.36 31.3479 11.768C31.6599 11.336 32.5239 10.168 33.2679 9.17604L34.6199 7.36804L34.6479 8.01604C34.6799 8.83604 34.8839 10.04 35.2399 11.5C35.3279 11.852 35.4079 12.216 35.4239 12.308C35.4599 12.532 35.5759 12.656 35.7159 12.62C35.8959 12.576 36.0719 12.36 36.3079 11.904C36.8199 10.9 37.2999 9.33604 37.4079 8.32004C37.4399 8.00804 37.4399 7.44804 37.4039 6.16004C37.3799 5.20404 37.3599 3.74404 37.3599 2.92004C37.3599 2.06004 37.3439 1.36004 37.3199 1.28404C37.2639 1.09204 37.1359 0.968039 36.9559 0.940037C36.8599 0.924038 36.7519 0.868038 36.6839 0.796038C36.5799 0.696037 36.5399 0.680038 36.3519 0.684038C36.2359 0.688038 36.0519 0.704037 35.9399 0.724037Z" fill="#34D399"/>
</svg>
