<svg width="327" height="189" viewBox="0 0 327 189" fill="none" xmlns="http://www.w3.org/2000/svg">
<path fill-rule="evenodd" clip-rule="evenodd" d="M125.487 188.274H80.906C79.4363 188.274 78.3721 186.655 78.767 185.019L85.0621 158.933C85.3305 157.824 86.2052 157.057 87.2019 157.057H131.783C133.253 157.057 134.317 158.676 133.922 160.311L127.626 186.397C127.358 187.506 126.484 188.274 125.487 188.274Z" fill="#57B9A2"/>
<path fill-rule="evenodd" clip-rule="evenodd" d="M292.01 116.92H214.605C212.053 116.92 210.206 114.487 210.89 112.03L221.822 72.8458C222.288 71.1798 223.806 70.0273 225.537 70.0273H302.942C305.493 70.0273 307.341 72.4588 306.656 74.9163L295.724 114.101C295.259 115.767 293.741 116.92 292.01 116.92Z" fill="#57B9A2"/>
<path fill-rule="evenodd" clip-rule="evenodd" d="M97.1714 166.417C99.8724 164.89 109.299 161.306 112.384 164.55C116.883 169.283 107.975 169.76 107.561 168.218C107.237 167.015 115.793 166.074 116.105 166.057C119.626 165.864 128.251 165.392 129.467 170.136C127.312 168.131 127.871 166.967 131.144 166.641C131.688 166.471 132.231 166.301 132.774 166.13C135.534 165.39 138.275 165.384 141.079 165.72C141.894 165.817 141.888 164.538 141.079 164.442C137.533 164.017 120.547 165.621 126.716 172.707C126.864 172.876 127.13 172.927 127.338 172.871C134.915 170.809 128.732 166.005 124.257 165.188C121.697 164.72 104.768 163.6 105.536 169.218C106.039 172.898 115.194 169.955 115.19 166.598C115.178 158.825 99.7444 163.494 96.5251 165.314C95.809 165.719 96.453 166.823 97.1714 166.417Z" fill="#4F266A"/>
<path fill-rule="evenodd" clip-rule="evenodd" d="M91.9323 176.447C94.6333 174.92 104.06 171.336 107.145 174.579C111.644 179.312 102.736 179.79 102.322 178.247C101.998 177.045 110.554 176.104 110.866 176.087C114.387 175.894 123.012 175.422 124.228 180.165C122.073 178.161 122.631 176.996 125.905 176.671C126.449 176.5 126.991 176.33 127.535 176.16C130.295 175.42 133.036 175.414 135.84 175.749C136.655 175.847 136.648 174.568 135.84 174.471C132.294 174.047 115.307 175.651 121.477 182.737C121.625 182.906 121.891 182.957 122.099 182.901C129.676 180.839 123.493 176.034 119.017 175.217C116.458 174.749 99.5285 173.63 100.297 179.247C100.799 182.927 109.955 179.985 109.951 176.628C109.939 168.855 94.5053 173.523 91.2868 175.343C90.5707 175.748 91.214 176.853 91.9323 176.447Z" fill="#4F266A"/>
<path fill-rule="evenodd" clip-rule="evenodd" d="M54.0984 87.0402H2.56883C0.869885 87.0402 -0.359857 85.421 0.0955464 83.7857L7.37433 57.6996C7.6833 56.5908 8.69377 55.8237 9.84608 55.8237H61.3756C63.0746 55.8237 64.3051 57.4429 63.8489 59.0782L56.5717 85.1643C56.2612 86.2731 55.2507 87.0402 54.0984 87.0402Z" fill="#57B9A2"/>
<path fill-rule="evenodd" clip-rule="evenodd" d="M136.52 78.6351H80.6554C78.813 78.6351 77.4798 76.019 77.9751 73.3768L85.8641 31.23C86.1999 29.4376 87.2955 28.1978 88.5452 28.1978H144.409C146.25 28.1978 147.585 30.8139 147.09 33.4561L139.2 75.6029C138.865 77.396 137.769 78.6351 136.52 78.6351Z" fill="#57B9A2"/>
<path fill-rule="evenodd" clip-rule="evenodd" d="M33.0237 46.4403C32.9631 46.4403 32.901 46.4349 32.8397 46.4242C32.2831 46.323 31.9151 45.7897 32.017 45.2349C32.0761 44.91 38.283 12.6996 68.5558 3.21984C98.7803 -6.24617 116.054 8.11262 116.776 8.72948C117.205 9.09654 117.254 9.74022 116.889 10.1701C116.522 10.6 115.877 10.6513 115.446 10.2851C115.278 10.141 98.2559 -3.9381 69.1669 5.17159C40.0617 14.2859 34.0863 45.2893 34.0295 45.6004C33.9391 46.0947 33.509 46.4403 33.0237 46.4403Z" fill="#1B1C1C"/>
<path fill-rule="evenodd" clip-rule="evenodd" d="M114.458 13.2167L121.867 14.5914L119.666 7.09937L114.458 13.2167ZM123.318 16.9241C123.255 16.9241 123.193 16.9188 123.131 16.9073L112.345 14.9065C111.986 14.8398 111.689 14.587 111.568 14.2429C111.446 13.8996 111.515 13.5164 111.752 13.2383L119.335 4.33242C119.579 4.04583 119.96 3.91939 120.328 3.99526C120.696 4.07342 120.991 4.34698 121.097 4.70791L124.3 15.6138C124.4 15.954 124.315 16.3234 124.077 16.5862C123.881 16.8046 123.604 16.9241 123.318 16.9241Z" fill="#1B1C1C"/>
<path fill-rule="evenodd" clip-rule="evenodd" d="M11.6785 67.3745C14.3795 65.8473 23.8057 62.2634 26.8908 65.5071C31.3904 70.2405 22.4824 70.7179 22.0677 69.1753C21.7441 67.973 30.3002 67.032 30.6122 67.0144C34.1328 66.822 42.7579 66.35 43.9738 71.0934C41.8187 69.0887 42.3783 67.9247 45.6513 67.5983C46.1948 67.4282 46.7376 67.2581 47.2812 67.0879C50.0412 66.3477 52.7821 66.3416 55.5866 66.6772C56.4015 66.7745 56.3946 65.4956 55.5866 65.399C52.0399 64.9745 35.0543 66.5784 41.223 73.6643C41.3709 73.8336 41.637 73.885 41.8455 73.829C49.4233 71.7669 43.2393 66.9623 38.7635 66.1454C36.2043 65.6772 19.2747 64.5576 20.0429 70.1753C20.5458 73.8551 29.7014 70.9125 29.6968 67.5554C29.6853 59.7829 14.2515 64.4511 11.033 66.2711C10.3169 66.6764 10.9601 67.7807 11.6785 67.3745Z" fill="#4F266A"/>
<path fill-rule="evenodd" clip-rule="evenodd" d="M6.43996 77.4033C9.14095 75.8761 18.5672 72.2922 21.6523 75.5359C26.1519 80.2685 17.2447 80.7467 16.8291 79.2034C16.5056 78.0018 25.0617 77.0608 25.3737 77.0432C28.8935 76.8501 37.5193 76.3788 38.7352 81.1214C36.5801 79.1175 37.1398 77.9528 40.4127 77.6271C40.9563 77.4562 41.4991 77.2869 42.0427 77.1168C44.8027 76.3765 47.5435 76.3704 50.348 76.706C51.163 76.8033 51.1561 75.5236 50.348 75.4271C46.8014 75.0033 29.8158 76.6064 35.9844 83.6931C36.1324 83.8617 36.3984 83.9138 36.607 83.8571C44.1848 81.7957 38.0008 76.9911 33.5249 76.1734C30.9658 75.706 14.0361 74.5857 14.8044 80.2041C15.3073 83.8839 24.4629 80.9406 24.4575 77.5842C24.4468 69.8117 9.01291 74.4799 5.79366 76.2999C5.07758 76.7045 5.72159 77.8095 6.43996 77.4033Z" fill="#4F266A"/>
<path fill-rule="evenodd" clip-rule="evenodd" d="M100.265 38.147C100.216 39.3785 100.166 40.6076 100.033 41.8344C99.9563 43.5709 99.6052 45.2414 98.9796 46.8452C99.0417 48.3502 98.4782 48.7839 97.2875 48.1433C94.6272 48.1648 97.9231 46.4245 98.5579 45.9594C99.632 45.1739 100.701 44.4621 101.864 43.8191C103.2 43.0804 105.312 41.7065 106.857 41.6038C107.37 41.4452 107.884 41.2873 108.396 41.1287C108.732 43.59 109.068 46.0506 109.406 48.5119C109.591 47.5709 109.777 46.6284 109.962 45.6866C110.375 45.354 110.787 45.0222 111.2 44.6896C111.968 43.7969 113.05 43.0636 113.899 42.2398C115.476 40.7111 117.2 38.5049 119.233 37.626C124.386 35.3999 124.576 42.259 123.949 45.7433C123.86 46.2291 123.727 47.2322 123.149 47.1916C123.571 47.2222 125.313 45.1686 125.682 44.8375C126.464 44.1356 128.069 42.3701 129.134 42C130.531 40.4536 131.411 41.1578 131.776 44.1134C133.435 45.3195 133.823 46.5579 132.945 47.8284C132.591 48.5671 133.694 49.2161 134.049 48.4736C135.332 45.7839 136.519 38.2696 131.614 39.1769C128.601 39.7333 125.565 43.1617 123.499 45.0981C121.34 47.1242 119.565 48.7541 120.239 51.8315C120.328 52.2392 120.837 52.4123 121.179 52.2131C124.196 50.456 125.72 46.2981 125.751 42.8835C125.772 40.6383 124.711 36.0144 122.149 35.3355C118.961 34.4911 114.87 39.5179 112.995 41.3356C109.994 44.2452 106.788 45.6697 107.95 50.1978C108.078 50.6997 108.663 50.7732 109.019 50.4797C111.533 48.4085 115.758 42.3425 111.083 39.9003C107.072 37.8053 98.3647 43.9371 95.8094 46.482C94.4141 47.8721 93.5193 51.2767 96.4289 51.3955C101.434 51.5993 101.432 40.9287 101.545 38.147C101.578 37.324 100.298 37.3256 100.265 38.147Z" fill="#4F266A"/>
<path fill-rule="evenodd" clip-rule="evenodd" d="M92.826 64.4592C95.2088 62.04 97.9757 60.0553 101.243 59.0131C103.621 58.2537 104.604 57.5595 105.54 60.0139C106.428 62.3465 105.077 63.5174 103.317 65.076C102.26 66.0124 100.942 66.7665 99.6908 67.4201C98.8237 67.7971 97.9566 68.1749 97.0902 68.5519C98.0317 67.6309 98.9739 66.7098 99.9146 65.7879C101.253 64.9917 103.284 64.7642 104.76 64.3159C105.406 64.1205 106.052 63.9243 106.698 63.7274C108.675 62.7756 109.333 64.109 108.673 67.7297C109.007 67.9872 109.343 68.2454 109.677 68.5037C111.487 66.099 113.569 64.3527 116.328 63.204C117.208 62.7626 118.133 62.4561 119.102 62.2829C123.163 64.1243 123.984 65.7887 121.562 67.2784C121.927 67.4293 122.291 67.5795 122.654 67.7305C124.291 66.3695 126.079 65.8232 128.019 66.0929C128.843 66.122 128.842 64.8431 128.019 64.8147C125.676 64.7312 121.631 64.6362 121.375 67.7305C121.327 68.3213 122.088 68.5221 122.467 68.1818C125.149 65.7841 126.66 61.7794 121.942 60.807C116.871 59.7626 111.338 64.1825 108.573 67.8584C108.111 68.4722 109.063 69.0738 109.578 68.6332C111.208 67.2354 113.492 64.699 111.444 62.5978C109.69 60.7986 106.205 62.5411 104.42 63.0837C102.174 63.7664 96.8449 64.3603 95.5722 66.9213C94.919 68.2355 94.9267 69.5382 96.5213 69.9543C100.189 70.9106 110.251 62.24 108.397 58.1756C107.601 56.4292 104.62 56.9357 103.22 57.1671C98.8221 57.8966 94.9888 60.4423 91.9213 63.5542C91.3425 64.1412 92.2471 65.0461 92.826 64.4592Z" fill="#4F266A"/>
<path fill-rule="evenodd" clip-rule="evenodd" d="M227.731 89.4561C229.371 86.6592 231.637 84.6277 234.836 83.7319C236.567 83.2377 238.315 83.1725 240.077 83.5381C241.154 86.073 240.904 88.24 239.327 90.0408C239.717 90.0914 240.106 90.1427 240.496 90.1933C239.973 88.6216 244.941 86.3189 246.105 86.0737C248.694 85.5266 256.6 84.1664 252.027 92.4025C252.417 92.5665 252.807 92.7297 253.196 92.8945C254.132 89.5059 256.275 87.0599 259.335 85.3473C260.541 84.6722 261.84 84.0806 263.159 83.6622C263.891 83.3902 264.647 83.2178 265.43 83.145C268.367 82.1158 270.302 83.7764 271.235 88.1251C271.624 88.2891 272.014 88.4531 272.404 88.617C273.391 85.4469 275.314 83.5097 278.314 82.2116C279.692 81.5181 281.165 81.1511 282.733 81.112C284.624 80.633 285.881 81.5173 286.504 83.7634L287.126 84.8323C288.914 83.0859 294.524 79.9986 297.117 82.1948L297.895 84.84C298.362 83.7235 299.105 82.9312 300.126 82.4653C301.534 81.5633 303.358 81.0576 304.944 80.5955C311.667 78.6323 318.725 78.5403 325.579 79.7802C326.384 79.925 326.729 78.6936 325.919 78.5472C317.322 76.9924 299.153 76.0445 295.212 86.2699C295.044 86.7029 295.562 87.2285 295.998 87.0553C298.405 86.1051 303.019 84.2216 299.367 81.8055C295.197 79.0461 289.517 80.7081 286.222 83.9273C285.772 84.3664 286.229 85.1864 286.844 84.9963C290.264 83.9396 288.277 80.4706 285.609 79.8974C279.525 78.5893 272.967 82.5074 271.17 88.2776C270.951 88.9826 271.966 89.378 272.339 88.7695C275.326 83.9044 269.471 81.1219 265.327 81.7764C259.388 82.7135 253.599 86.6293 251.963 92.555C251.772 93.2455 252.775 93.6884 253.132 93.0478C260.632 79.5395 237.165 84.2346 239.262 90.5328C239.439 91.0646 240.125 91.1542 240.431 90.6853C242.853 86.9848 244.808 82.7411 238.937 82.079C233.808 81.5005 229.133 84.535 226.627 88.8109C226.21 89.522 227.314 90.1665 227.731 89.4561Z" fill="#4F266A"/>
<path fill-rule="evenodd" clip-rule="evenodd" d="M226.904 102.422C230.558 98.3816 235.445 95.6107 240.974 95.3142C244.106 95.1456 249.326 96.6199 244.713 99.8506C242.732 101.238 240.543 101.984 238.203 102.458C238.444 102.771 238.685 103.084 238.926 103.396C241.625 99.2031 246.073 97.5249 250.725 96.4912C252.901 96.0077 255.14 95.6536 257.352 95.4084C258.493 95.282 259.637 95.1862 260.783 95.1188C260.037 97.3533 258.652 98.5495 256.629 98.7081C256.869 99.0215 257.11 99.3341 257.35 99.6476C259.648 96.0375 264.269 94.6605 268.223 93.8467C270 93.4804 274.619 91.9126 274.55 95.6751C274.528 96.8621 270.867 98.4475 269.934 98.9525C270.227 99.2437 270.518 99.5349 270.81 99.8261C272.294 96.5165 277.528 95.7479 280.659 95.3494C282.136 95.1601 283.558 95.0375 285.046 95.0988C286.463 95.1586 295.026 95.613 287.864 99.8407C288.155 100.133 288.446 100.424 288.739 100.715C291.597 96.2927 298.17 94.7203 303.18 95.341C305.846 95.6713 307.708 97.5303 310.442 97.5855C311.266 97.6023 311.266 96.3241 310.442 96.308C307.916 96.2559 305.917 94.3096 303.45 93.9846C301.625 93.7456 299.622 94.1318 297.808 94.4007C293.578 95.0299 290.012 96.3908 287.634 100.071C287.281 100.616 287.973 101.261 288.509 100.944C292.811 98.4054 293.1 94.7586 287.815 94.0276C282.715 93.3226 272.222 93.5686 269.705 99.1816C269.451 99.7464 269.981 100.381 270.58 100.056C272.819 98.8429 280.134 93.9073 274.428 92.1057C269.05 90.4076 259.249 94.285 256.245 99.0016C255.932 99.4943 256.449 100.061 256.968 99.941C260.209 99.1954 266.991 93.7073 259.925 93.9019C252.233 94.1126 242.285 95.8169 237.821 102.752C237.499 103.252 238.029 103.795 238.544 103.691C241.541 103.083 253.116 98.3226 246.571 94.7985C239.921 91.2168 230.354 96.7019 226 101.518C225.449 102.127 226.351 103.035 226.904 102.422Z" fill="#4F266A"/>
</svg>
