<svg class="hidden lg:block absolute left-full transform -translate-x-96 -translate-y-1/8" width="460" height="393" viewBox="0 0 460 393" fill="none" xmlns="http://www.w3.org/2000/svg">
<path d="M429.78 37.3419L292.519 44.0777C285.542 44.4203 280.293 50.5665 281.048 57.5107L291.897 157.337C292.566 163.496 297.767 168.162 303.962 168.162H394.841C394.841 168.162 400.671 180.061 404.241 185.654C407.811 191.247 417.687 201.718 417.687 201.718C417.687 201.718 414.474 193.507 413.522 188.272C412.571 183.036 412.333 168.162 412.333 168.162H429.026C435.668 168.162 441.077 162.822 441.161 156.18L442.512 49.6185C442.599 42.6208 436.769 36.9986 429.78 37.3419Z" fill="#57B9A2"/>
<path d="M293.529 122.024C293.529 122.024 290.335 119.747 280.528 119.946C271.158 119.5 264.203 116.542 260.544 112.705C256.067 108.543 253.547 98.3739 253.547 98.3739C253.547 98.3739 251.606 98.6329 251.249 100.418C250.892 102.203 252.504 107.488 252.655 108.369C252.209 109.618 248.567 110.546 244.901 109.854C241.17 109.15 235.075 106.852 235.075 106.852C235.075 106.852 230.523 110.69 232.397 116.847C234.271 123.005 238.912 124.522 238.912 124.522C238.912 124.522 243.768 122.091 248.855 121.913C253.942 121.734 262.604 125.619 266.53 127.671C270.635 129.097 296.147 139.689 296.147 139.689L293.529 122.024Z" fill="white"/>
<path d="M293.529 122.48C293.469 122.48 293.408 122.469 293.35 122.444C293.301 122.423 288.292 120.301 284.243 120.41C282.324 120.454 272.484 120.549 266.778 117.508C261.625 114.762 259.323 112.146 256.877 108.279C255.227 105.671 254.333 102.353 253.798 100.371C253.644 99.7992 253.486 99.2127 253.373 98.9032C252.82 99.0982 252.001 99.6125 251.678 101.487C251.481 102.626 251.955 104.117 252.374 105.43C252.89 107.054 253.337 108.456 252.565 109.214C251.261 110.494 247.732 110.956 244.697 110.241C241.677 109.531 235.204 107.376 234.93 107.285C234.691 107.204 234.561 106.946 234.641 106.707C234.722 106.469 234.982 106.34 235.219 106.419C235.286 106.442 241.927 108.652 244.906 109.353C247.863 110.047 250.978 109.494 251.926 108.563C252.298 108.197 251.877 106.875 251.504 105.706C251.054 104.293 250.543 102.691 250.778 101.331C251.265 98.5064 252.874 98.081 253.401 97.941C254.035 97.7701 254.202 98.3634 254.679 100.133C255.2 102.065 256.073 105.3 257.649 107.79C260.011 111.525 262.234 114.052 267.208 116.703C271.475 118.978 279.032 119.631 284.22 119.497C288.454 119.392 293.495 121.515 293.707 121.604C293.94 121.702 294.048 121.97 293.949 122.202C293.874 122.375 293.707 122.48 293.529 122.48Z" fill="#1D1D1B"/>
<path d="M244.445 113.466C244.44 113.466 244.435 113.466 244.428 113.466C244.224 113.457 239.397 113.269 236.318 111.909C233.326 110.59 231.787 109.958 231.772 109.951C231.538 109.855 231.427 109.589 231.523 109.356C231.62 109.123 231.889 109.012 232.117 109.107C232.133 109.113 233.682 109.75 236.687 111.076C239.607 112.364 244.413 112.552 244.462 112.554C244.713 112.564 244.91 112.774 244.901 113.027C244.892 113.272 244.69 113.466 244.445 113.466Z" fill="#1D1D1B"/>
<path d="M241.153 116.572C240.123 116.572 238.897 116.531 237.534 116.41C233.458 116.047 231.778 115.048 231.709 115.005C231.493 114.874 231.425 114.594 231.556 114.379C231.687 114.163 231.969 114.095 232.183 114.227C232.197 114.235 233.786 115.161 237.615 115.501C241.529 115.847 244.361 115.506 244.389 115.502C244.62 115.467 244.867 115.648 244.898 115.899C244.929 116.148 244.752 116.377 244.503 116.408C244.423 116.417 243.161 116.572 241.153 116.572Z" fill="#1D1D1B"/>
<path d="M234.234 121.14C234.012 121.14 233.818 120.978 233.784 120.753C233.745 120.503 233.917 120.271 234.166 120.233C234.19 120.229 236.564 119.872 239.482 119.518C242.319 119.173 245.023 117.878 245.05 117.864C245.277 117.755 245.55 117.849 245.659 118.077C245.769 118.304 245.674 118.577 245.447 118.686C245.331 118.742 242.578 120.061 239.592 120.423C236.688 120.776 234.326 121.131 234.302 121.134C234.28 121.139 234.257 121.14 234.234 121.14Z" fill="#1D1D1B"/>
<path d="M296.148 140.145C296.089 140.145 296.029 140.134 295.971 140.11C295.584 139.947 257.265 123.793 251.921 122.467C246.709 121.17 239.192 124.893 239.117 124.931C238.894 125.042 238.617 124.955 238.505 124.727C238.392 124.503 238.483 124.228 238.709 124.115C239.028 123.955 246.599 120.202 252.14 121.582C257.553 122.925 294.745 138.602 296.325 139.269C296.558 139.367 296.666 139.635 296.568 139.867C296.495 140.04 296.325 140.145 296.148 140.145Z" fill="#1D1D1B"/>
<path d="M333.829 9.28692C332.288 15.8758 332.613 15.9391 328.205 17.8771C323.326 20.3761 320.784 18.2129 319.118 22.0205C317.452 25.8281 320.827 30.4895 320.827 30.4895C320.827 30.4895 315.786 49.4762 319.118 57.9249C321.721 64.949 329.672 67.9517 331.814 68.3086C333.956 68.6655 335.701 67.8523 335.701 67.8523C335.701 67.8523 337.648 72.0273 338.124 75.1211C338.6 78.2149 338.086 86.8909 338.086 86.8909L345.22 85.8203L353.43 71.184C353.43 71.184 351.05 66.3058 350.931 63.5688C350.812 60.8319 351.05 54.2874 351.05 54.2874C351.05 54.2874 359.639 44.9368 358.687 35.8941C358.307 25.365 353.668 22.3977 350.931 21.2081C348.194 20.0185 344.981 19.3039 344.981 19.3039C344.981 19.3039 349.146 18.2333 349.146 15.4964C349.147 12.7602 335.284 3.85677 333.829 9.28692Z" fill="white"/>
<path d="M336.826 163.069L338.23 168.162H377.675L375.623 158.702L336.826 163.069Z" fill="#FFD141"/>
<path d="M336.624 61.8394C336.462 61.8394 336.305 61.7528 336.223 61.6007C336.103 61.3786 336.186 61.1015 336.407 60.9825C336.424 60.9735 338.07 60.079 340.346 58.5912C342.607 57.1125 345.833 54.1602 345.865 54.1308C346.051 53.9614 346.34 53.9727 346.51 54.1587C346.68 54.3439 346.669 54.633 346.482 54.8025C346.348 54.9252 343.17 57.8353 340.846 59.3547C338.536 60.8658 336.858 61.7754 336.842 61.7844C336.771 61.8213 336.698 61.8394 336.624 61.8394Z" fill="#1D1D1B"/>
<path d="M337.043 62.1917L334.918 63.419C334.486 63.6682 333.933 63.5207 333.684 63.0885C333.434 62.6563 333.582 62.1036 334.014 61.8544L336.14 60.6271C336.572 60.3779 337.125 60.5255 337.375 60.9577C337.624 61.3899 337.475 61.9425 337.043 62.1917Z" fill="#FFD141"/>
<path d="M373.387 137.449L387.581 132.197L388.206 127.646L389.813 126.397C389.813 126.397 389.634 121.31 388.652 120.774C387.67 120.239 384.636 110.779 384.279 107.566C383.922 104.354 380.204 80.1093 372.945 73.8027C365.687 67.4961 361.284 70.2331 361.284 70.2331C361.284 70.2331 359.856 64.9972 355.453 66.3065C351.051 67.6159 348.79 78.3248 345.339 81.7755C341.888 85.2262 338.565 84.279 338.565 84.279C338.565 84.279 338.807 78.5974 338.565 77.0757C338.323 75.5533 338.009 74.2665 338.009 74.2665C338.009 74.2665 336.058 74.2793 334.75 75.7664C333.441 77.2541 332.905 79.7524 332.905 79.7524C332.905 79.7524 326.629 77.4913 321.631 83.4711C316.633 89.4502 306.906 112.118 305.924 114.617C304.942 117.116 305.032 118.365 303.782 118.365C302.532 118.365 301.372 117.294 300.659 118.008C299.945 118.722 301.819 121.31 300.659 121.667C299.498 122.024 297.356 119.347 296.375 119.704C295.393 120.061 295.215 121.221 295.215 121.221L293.073 120.596L295.839 140.765C295.839 140.765 300.659 142.282 301.283 142.192C301.908 142.103 302.443 139.872 303.068 139.872C303.693 139.872 307.351 141.032 309.493 140.318C311.636 139.604 328.77 116.49 328.77 116.49C328.77 116.49 330.466 128.716 331.626 133.268C332.786 137.819 333.857 146.922 333.678 147.993C333.5 149.064 331.536 156.471 332.251 156.649C332.965 156.828 334.928 162.54 334.928 162.54C334.928 162.54 346.798 166.377 358.935 164.235C371.072 162.093 375.624 158.702 375.624 158.702L373.387 137.449Z" fill="#4F266A"/>
<circle cx="352.093" cy="48.8144" r="10.6495" fill="#FFD141"/>
<path d="M355.038 44.7094C355.038 44.7094 356.049 35.7849 355.513 31.2635C354.978 26.7422 353.39 22.8668 353.39 22.8668C353.39 22.8668 353.075 20.9107 351.052 19.959C349.028 19.0073 344.983 19.3047 344.983 19.3047C344.983 19.3047 348.017 26.8604 348.493 31.204C348.969 35.547 348.909 44.3525 348.909 44.3525L355.038 44.7094Z" fill="#FFD141"/>
<path d="M386.494 132.599L388.385 168.162H377.675L376.287 158.702L373.386 137.449L386.494 132.599Z" fill="white"/>
<path d="M335.701 68.3086C335.501 68.3086 335.317 68.176 335.261 67.9735C335.194 67.7303 335.337 67.4796 335.58 67.4126C337.254 66.951 340.132 64.0055 341.1 62.91C341.266 62.7218 341.556 62.7045 341.743 62.8701C341.932 63.0365 341.95 63.3256 341.783 63.5139C341.633 63.6833 338.098 67.6648 335.822 68.2927C335.782 68.3033 335.742 68.3086 335.701 68.3086Z" fill="#1D1D1B"/>
<path d="M338.318 83.7776C338.316 83.7776 338.313 83.7776 338.313 83.7776C338.059 83.773 337.858 83.5652 337.862 83.313C337.863 83.243 337.976 76.2068 337.562 74.3644C337.227 72.8623 335.951 69.6684 335.467 68.4825C334.002 69.1044 329.319 70.1645 321.877 63.1585C313.383 55.1639 319.532 33.2535 320.32 30.5889C318.755 28.5597 316.852 23.0407 319.813 20.2541C321.327 18.8281 323.315 18.5209 325.239 18.2227C327.076 17.9389 328.974 17.6445 330.536 16.3901C333.649 13.8888 333.393 8.54679 333.39 8.49333C333.376 8.24185 333.57 8.02651 333.82 8.01296C334.078 8.00242 334.287 8.19216 334.301 8.44289C334.314 8.68081 334.582 14.3082 331.107 17.1001C329.355 18.5081 327.333 18.8206 325.378 19.1232C323.51 19.4116 321.746 19.6857 320.438 20.9175C317.836 23.3675 319.796 28.5944 321.172 30.1906C321.274 30.3088 321.308 30.4722 321.263 30.622C321.19 30.8607 314.057 54.545 322.502 62.4929C330.832 70.3362 335.402 67.5014 335.449 67.4713C335.56 67.3953 335.702 67.3749 335.834 67.4163C335.963 67.4555 336.07 67.5496 336.121 67.6753C336.199 67.8598 338.021 72.2306 338.454 74.1634C338.889 76.1104 338.779 83.0337 338.775 83.3281C338.77 83.578 338.568 83.7776 338.318 83.7776Z" fill="#1D1D1B"/>
<path d="M325.706 28.3278C325.532 28.3278 325.366 28.2284 325.29 28.059C325.241 27.9521 324.129 25.414 325.751 23.1446C326.676 21.8504 327.871 21.5612 329.383 21.1953C330.53 20.9182 331.957 20.5734 333.708 19.6729C337.472 17.7348 337.876 12.953 337.879 12.9048C337.899 12.6533 338.127 12.4583 338.369 12.4839C338.62 12.5027 338.808 12.721 338.79 12.9718C338.775 13.1886 338.351 18.3086 334.126 20.483C332.279 21.4332 330.794 21.7931 329.599 22.0823C328.168 22.4279 327.222 22.656 326.496 23.674C325.175 25.5217 326.113 27.6622 326.123 27.6841C326.226 27.9137 326.124 28.184 325.894 28.2872C325.832 28.315 325.769 28.3278 325.706 28.3278Z" fill="#1D1D1B"/>
<path d="M345.205 41.1503C344.99 41.1503 344.798 40.9959 344.757 40.7768C344.751 40.7422 344.119 37.3487 343.159 35.6524C342.27 34.084 338.707 32.3696 336.098 32.2544C334.082 32.1648 330.537 31.1604 329.125 29.5092C328.662 28.9686 328.461 28.4009 328.525 27.8211C328.739 25.9019 331.731 24.6874 335.197 23.2809C336.172 22.8841 337.176 22.4775 338.148 22.0408C342.114 20.2602 342.8 15.9481 342.807 15.9044C342.844 15.656 343.073 15.4828 343.326 15.5212C343.574 15.5581 343.747 15.79 343.709 16.04C343.68 16.2372 342.939 20.8896 338.522 22.8728C337.54 23.3141 336.524 23.7259 335.54 24.1257C332.613 25.3138 329.585 26.5426 329.433 27.922C329.397 28.2412 329.527 28.5748 329.818 28.9159C330.942 30.2297 334.052 31.2492 336.139 31.3426C338.808 31.46 342.802 33.1722 343.953 35.2029C344.99 37.0325 345.629 40.4651 345.655 40.6104C345.7 40.8589 345.537 41.0961 345.289 41.142C345.26 41.1473 345.232 41.1503 345.205 41.1503Z" fill="#1D1D1B"/>
<path d="M353.071 69.974C352.959 69.974 352.846 69.9326 352.759 69.8491C352.685 69.779 352.011 69.0969 351.227 66.9766C350.437 64.8413 350.46 59.6175 350.462 59.3961C350.463 59.1446 350.667 58.9428 350.918 58.9428H350.921C351.173 58.9443 351.377 59.1491 351.374 59.4014C351.374 59.4541 351.35 64.6802 352.083 66.6596C352.792 68.5774 353.387 69.1865 353.393 69.1925C353.569 69.3687 353.573 69.6563 353.398 69.8347C353.308 69.9274 353.19 69.974 353.071 69.974Z" fill="#1D1D1B"/>
<path d="M326.052 51.6409C325.503 51.6409 324.736 51.5076 324.311 50.845C323.709 49.9076 325.244 47.1888 326.213 45.6513C326.348 45.4382 326.63 45.3742 326.842 45.509C327.055 45.6438 327.119 45.9254 326.984 46.1377C325.817 47.9907 324.928 49.9649 325.083 50.3617C325.426 50.8955 326.491 50.6914 326.5 50.6884C326.753 50.6357 326.99 50.7916 327.043 51.037C327.097 51.284 326.941 51.5264 326.695 51.5799C326.669 51.5859 326.405 51.6409 326.052 51.6409Z" fill="#1D1D1B"/>
<path d="M326.413 57.004C325.672 57.004 325.236 56.8768 325.201 56.8662C324.959 56.7925 324.825 56.5372 324.897 56.297C324.969 56.0576 325.227 55.9228 325.464 55.9921C325.478 55.9974 326.927 56.4009 329.107 55.5305C331.153 54.7121 331.385 53.7943 331.386 53.7852C331.441 53.5458 331.682 53.3824 331.92 53.4306C332.161 53.478 332.324 53.6987 332.285 53.9418C332.263 54.0834 331.993 55.3574 329.445 56.3768C328.196 56.8768 327.153 57.004 326.413 57.004Z" fill="#1D1D1B"/>
<path d="M358.53 40.7957C358.513 40.7957 358.495 40.7949 358.478 40.7934C358.227 40.7648 358.047 40.5397 358.075 40.2889C358.081 40.2355 358.657 34.9122 357.483 30.0746C356.333 25.3297 353.175 23.2711 353.144 23.2516C352.931 23.116 352.869 22.8337 353.004 22.6214C353.141 22.4083 353.425 22.348 353.634 22.4813C353.776 22.5724 357.133 24.7612 358.37 29.8586C359.582 34.8573 359.007 40.1662 358.982 40.3898C358.956 40.6232 358.759 40.7957 358.53 40.7957Z" fill="#1D1D1B"/>
<path d="M331.769 44.0649C330.931 44.0649 330.254 43.9248 330.212 43.9158C329.965 43.8639 329.808 43.6229 329.86 43.376C329.913 43.129 330.161 42.9739 330.4 43.0228C330.413 43.0258 331.798 43.3097 332.927 43.0266C334.049 42.7457 334.472 42.4694 334.475 42.4672C334.683 42.3301 334.967 42.3813 335.107 42.5884C335.248 42.7947 335.199 43.074 334.995 43.2171C334.942 43.2547 334.442 43.5875 333.148 43.912C332.689 44.0265 332.207 44.0649 331.769 44.0649Z" fill="#1D1D1B"/>
<path d="M320.92 43.8631C320.153 43.8631 319.685 43.6553 319.656 43.6425C319.427 43.5378 319.326 43.2675 319.43 43.0386C319.534 42.809 319.802 42.7096 320.03 42.8105C320.065 42.8256 320.813 43.1358 321.993 42.7902C322.928 42.5138 323.209 42.3595 323.268 42.3226C323.404 42.1856 323.619 42.1441 323.8 42.2353C324.024 42.3482 324.114 42.623 324.001 42.8481C323.934 42.9807 323.821 43.2028 322.25 43.6651C321.746 43.8119 321.298 43.8631 320.92 43.8631Z" fill="#1D1D1B"/>
<path d="M343.941 85.0869C343.746 85.0869 343.566 84.9612 343.505 84.7654C343.431 84.5245 343.566 84.27 343.807 84.1954C343.891 84.1691 352.308 81.5165 354.69 76.8385C357.227 71.8564 360.918 69.9078 361.074 69.8272C361.299 69.7113 361.572 69.7994 361.688 70.023C361.804 70.2459 361.717 70.5207 361.494 70.6374C361.458 70.6554 357.899 72.5468 355.503 77.2511C352.946 82.274 344.436 84.9544 344.075 85.0658C344.031 85.0801 343.986 85.0869 343.941 85.0869Z" fill="#1D1D1B"/>
<path d="M335.699 86.6026C335.618 86.6026 335.536 86.5815 335.461 86.5348C335.361 86.4731 334.455 85.8647 333.272 83.5268C332.373 81.7537 332.43 80.8569 332.467 80.2636C332.478 80.0927 332.487 79.9564 332.463 79.8616C332.402 79.6176 332.55 79.3699 332.795 79.3082C333.037 79.2487 333.287 79.3955 333.348 79.6402C333.406 79.8721 333.392 80.089 333.378 80.3201C333.345 80.8449 333.3 81.5632 334.086 83.115C335.15 85.2157 335.941 85.757 335.949 85.7631C336.157 85.9008 336.218 86.1817 336.082 86.3917C335.995 86.528 335.848 86.6026 335.699 86.6026Z" fill="#1D1D1B"/>
<path d="M328.77 116.947C328.536 116.947 328.336 116.766 328.317 116.528C328.313 116.484 327.956 112.103 327.669 107.865C327.379 103.584 328.281 96.8989 328.32 96.6166C328.354 96.3658 328.588 96.1821 328.833 96.2266C329.082 96.2604 329.257 96.4901 329.223 96.7401C329.214 96.8086 328.297 103.616 328.58 107.803C328.866 112.036 329.222 116.41 329.226 116.453C329.247 116.705 329.061 116.925 328.809 116.945C328.796 116.946 328.782 116.947 328.77 116.947Z" fill="#1D1D1B"/>
<path d="M328.067 107.041C327.958 107.041 327.849 107.003 327.762 106.924C327.72 106.886 326.698 105.955 325.427 103.684C324.147 101.399 323.695 97.5193 323.676 97.3552C323.648 97.1052 323.828 96.8786 324.078 96.85C324.326 96.8251 324.554 97.0013 324.584 97.252C324.588 97.2904 325.034 101.114 326.224 103.239C327.411 105.36 328.364 106.238 328.373 106.247C328.559 106.416 328.574 106.704 328.405 106.89C328.315 106.99 328.192 107.041 328.067 107.041Z" fill="#1D1D1B"/>
<path d="M297.608 139.076C297.582 139.076 297.558 139.074 297.534 139.07C297.17 138.997 296.315 138.827 294.494 122.61C294.466 122.36 294.646 122.134 294.897 122.106C295.14 122.078 295.373 122.258 295.401 122.508C296.042 128.21 296.905 134.45 297.504 137.063C297.552 135.304 297.396 132.16 297.293 130.057C297.151 127.197 297.07 125.415 297.178 124.878C297.266 124.434 297.585 124.383 297.68 124.378C298.238 124.349 298.403 124.758 299.639 128.741C299.951 129.748 300.367 131.084 300.698 132.002C300.679 130.937 300.551 129.315 300.383 127.877C300.355 127.626 300.534 127.4 300.784 127.371C301.033 127.346 301.26 127.521 301.29 127.772C301.942 133.397 301.447 133.656 301.18 133.796C301.019 133.884 300.764 133.902 300.536 133.701C300.147 133.36 299.699 132.01 298.767 129.012C298.549 128.311 298.293 127.485 298.058 126.779C298.088 127.701 298.146 128.867 298.201 130.013C298.54 136.846 298.503 138.516 298.005 138.944C297.917 139.02 297.744 139.076 297.608 139.076Z" fill="#1D1D1B"/>
<path d="M375.445 133.055C375.249 133.055 375.069 132.928 375.008 132.731C374.935 132.489 375.072 132.236 375.313 132.163C377.635 131.461 381.1 130.326 382.94 129.554C381.999 129.636 380.728 129.79 379.615 129.926C373.916 130.62 372.79 130.623 372.522 129.956C372.475 129.84 372.485 129.622 372.539 129.508C372.796 128.953 374.124 128.446 378.892 126.866C381.562 125.981 385.511 124.672 386.316 124.012C385.434 123.652 381.508 123.922 378.102 124.438C377.86 124.48 377.62 124.306 377.583 124.056C377.544 123.806 377.716 123.574 377.965 123.536C379.808 123.258 385.905 122.423 387.043 123.399C387.225 123.555 387.325 123.764 387.325 123.987C387.325 124.895 385.491 125.641 379.18 127.732C377.345 128.34 375.174 129.06 374.055 129.545C375.334 129.526 377.76 129.232 379.506 129.02C384.112 128.461 384.672 128.452 384.911 128.946C384.99 129.108 384.998 129.359 384.781 129.575C383.854 130.502 376.952 132.62 375.578 133.036C375.533 133.049 375.489 133.055 375.445 133.055Z" fill="#1D1D1B"/>
<path fill-rule="evenodd" clip-rule="evenodd" d="M334.043 160.602H334.178C335.223 160.602 342.119 160.545 349.912 159.151C358.243 157.66 367.81 154.759 368.077 154.678L368.082 154.677C368.198 154.641 368.295 154.561 368.352 154.454C368.409 154.346 368.42 154.22 368.385 154.104L365.618 145.18C365.551 144.959 365.321 144.825 365.097 144.867C365.058 144.875 361.184 145.587 358.811 143.125C356.326 140.548 354.825 137.242 354.8 137.188L354.8 137.188C354.717 137.003 354.534 136.895 354.324 136.921L336.767 139.236C336.533 139.267 336.361 139.473 336.372 139.71C336.372 139.711 336.372 139.713 336.372 139.716C336.379 139.882 336.495 143.006 335.746 145.166C335.022 147.26 333.404 148.046 333.39 148.052C333.257 148.114 333.162 148.235 333.134 148.377L331.657 155.753C331.638 155.846 331.648 155.943 331.687 156.03L333.631 160.333C333.704 160.495 333.864 160.6 334.043 160.602ZM334.341 159.689L332.58 155.788L333.986 148.766C334.521 148.455 335.911 147.482 336.608 145.465C337.268 143.559 337.307 141.069 337.293 140.087L354.112 137.869C354.554 138.779 355.972 141.496 358.152 143.758C360.417 146.107 363.714 145.964 364.862 145.824L367.376 153.936C365.397 154.525 357.088 156.94 349.751 158.253C342.353 159.577 335.777 159.683 334.341 159.689Z" fill="#1D1D1B"/>
<path d="M348.541 136.668C348.062 136.668 347.645 136.639 347.325 136.569C346.84 136.464 346.76 136.15 346.747 136.02C346.684 135.356 347.602 134.901 351.909 133.074C354.585 131.937 358.216 130.396 358.926 129.549C358.114 129.108 354.01 129.081 351.249 129.063C347.484 129.038 343.929 129.014 342.826 128.393C342.48 128.198 342.29 127.889 342.29 127.524C342.291 125.544 349.259 121.484 351.395 120.286C351.613 120.165 351.892 120.242 352.016 120.462C352.139 120.681 352.06 120.959 351.841 121.083C347.687 123.412 343.204 126.537 343.202 127.525C343.202 127.539 343.202 127.558 343.274 127.598C344.172 128.103 347.935 128.128 351.255 128.15C356.959 128.188 359.33 128.29 359.81 129.158C359.942 129.398 359.927 129.682 359.769 129.939C359.152 130.935 356.398 132.159 352.266 133.912C350.806 134.533 349.077 135.265 348.186 135.746C350.249 135.819 354.388 135.108 355.989 134.783C356.241 134.735 356.477 134.892 356.528 135.14C356.577 135.387 356.418 135.628 356.171 135.678C355.937 135.725 351.248 136.668 348.541 136.668Z" fill="#1D1D1B"/>
<path d="M388.385 168.618C388.143 168.618 387.942 168.429 387.929 168.186L386.039 132.623C386.025 132.371 386.218 132.156 386.47 132.143C386.736 132.117 386.936 132.324 386.95 132.574L388.84 168.138C388.854 168.389 388.661 168.604 388.409 168.617C388.401 168.618 388.392 168.618 388.385 168.618Z" fill="#1D1D1B"/>
<path d="M377.674 168.618C377.451 168.618 377.256 168.453 377.223 168.225L373.015 138.088L370.616 139.047C370.491 139.098 370.351 139.09 370.232 139.026C370.114 138.963 370.029 138.851 370.002 138.72C369.992 138.675 369.016 134.155 368.665 132.706C368.43 131.732 368.505 131.435 368.766 130.892C368.888 130.635 369.042 130.314 369.202 129.676C369.357 129.056 368.97 128.843 367.73 128.515C367.137 128.359 366.577 128.211 366.267 127.857C365.713 127.224 366.215 126.316 366.745 125.355C367.106 124.702 367.514 123.962 367.584 123.34C367.634 122.804 366.386 119.256 365.18 115.825C362.927 109.422 359.843 100.651 358.882 94.7892C357.317 85.2556 358.358 80.9496 358.404 80.7711C358.466 80.5272 358.715 80.3788 358.957 80.4406C359.2 80.5016 359.35 80.7485 359.289 80.9932C359.278 81.0361 358.254 85.3294 359.783 94.6416C360.731 100.425 363.8 109.151 366.041 115.523C367.752 120.386 368.57 122.755 368.492 123.444C368.401 124.245 367.946 125.069 367.544 125.796C367.31 126.221 366.821 127.106 366.954 127.256C367.08 127.401 367.57 127.53 367.962 127.633C368.907 127.882 370.486 128.299 370.087 129.898C369.904 130.626 369.722 131.008 369.588 131.287C369.413 131.654 369.37 131.742 369.553 132.492C369.834 133.653 370.51 136.755 370.779 138.001L373.219 137.026C373.348 136.972 373.495 136.984 373.617 137.055C373.738 137.125 373.82 137.248 373.84 137.386L378.128 168.099C378.163 168.348 377.989 168.58 377.74 168.614C377.717 168.617 377.696 168.618 377.674 168.618Z" fill="#1D1D1B"/>
<path d="M197.741 47.886C197.507 41.4025 191.999 36.3729 185.521 36.7268L12.9336 46.1588C6.86646 46.4901 2.08458 51.4496 1.9739 57.5243L0.00196976 165.633C-0.114735 172.027 4.96907 177.308 11.363 177.436L38.0996 177.969H38.0989C38.0989 177.969 38.1056 182.083 36.4401 189.58C34.7747 197.077 29.8957 204.752 29.8957 204.752C29.8957 204.752 42.0329 199.576 46.1379 194.221C49.8198 189.419 54.0731 180.165 54.9118 178.305L190.291 181.007C196.949 181.139 202.35 175.651 202.109 168.997L197.741 47.886Z" fill="#FFD141"/>
<path d="M79.2471 13.0132C79.2471 13.0132 77.9083 -3.95791 68.389 0.861614C58.8697 5.68114 60.6549 20.6735 62.9152 23.351C65.1763 26.0284 70.431 22.8751 70.431 22.8751L79.2471 13.0132Z" fill="#1B1C1C"/>
<path d="M70.4317 26.3002C70.4317 26.3002 70.0492 24.9269 70.4317 22.8744C70.8142 20.8219 78.5333 13.1465 79.247 13.0132C79.9608 12.8792 81.5985 14.1953 81.5985 14.1953L70.4317 26.3002Z" fill="#FFD141"/>
<path d="M116.863 41.4364C116.863 41.4364 121.37 40.9899 123.244 38.1348C125.118 35.2789 123.69 34.7436 123.69 34.7436C123.69 34.7436 127.855 30.4601 124.211 26.8905C120.566 23.3208 117.443 25.5518 116.283 20.733C115.123 15.9135 114.141 10.9163 108.787 9.30951C103.432 7.70351 88.4396 8.23884 77.9979 16.7169C67.5563 25.1949 68.895 33.1376 70.5018 37.1537C72.1078 41.1699 77.8195 47.8627 80.6754 49.6479C83.5312 51.4323 84.5131 52.3253 83.0848 54.0209C81.6564 55.7165 80.14 56.6983 81.9245 57.0552C83.7097 57.4121 84.7804 56.8768 85.4053 56.2519C86.0302 55.6269 86.476 53.8425 86.476 53.8425C86.476 53.8425 86.61 55.3596 87.2793 56.5643C87.9487 57.769 88.6188 58.1432 88.6188 58.1432L116.863 41.4364Z" fill="#1B1C1C"/>
<path d="M100.169 70.9709C100.169 70.9709 110.481 59.5535 115.926 63.9265C121.369 68.2995 122.351 107.388 122.351 107.388L111.261 110.958C111.261 110.958 111.374 114.795 110.482 118.989C109.59 123.184 108.251 124.79 108.608 131.037C108.965 137.284 116.761 179.539 116.761 179.539L68.8193 178.582C68.8193 178.582 74.6952 157.453 74.6952 142.013C74.6952 126.574 68.7162 103.46 68.7162 103.46L52.8308 119.345L36.4395 101.764C36.4395 101.764 57.3815 77.2527 63.6881 72.6116C69.9946 67.9713 73.9212 63.6871 78.2046 64.5206C82.4881 65.3533 84.6896 67.4359 84.6896 67.4359L100.169 70.9709Z" fill="#EE4266"/>
<path d="M116.461 29.8352C116.461 29.8352 118.068 44.8284 114.854 51.0754C111.642 57.3225 109.202 57.9173 106.882 58.0958C104.562 58.2742 101.646 58.0958 101.646 58.0958L99.981 72.6123C99.981 72.6123 96.2329 83.2618 91.2349 81.8342C86.237 80.4067 84.6904 67.4367 84.6904 67.4367C84.6904 67.4367 88.1268 64.2126 88.7359 57.4415C89.4497 52.4435 88.3196 47.5058 88.3196 47.5058L95.102 35.9633C95.102 35.9633 102.955 34.5358 106.287 29.1809C109.619 23.8268 109.381 19.1857 109.381 19.1857C109.381 19.1857 111.88 23.945 113.307 25.7302C114.736 27.5147 116.461 29.8352 116.461 29.8352Z" fill="white"/>
<path d="M101.201 53.9404C101.129 53.9404 101.056 53.9238 100.988 53.8877C100.885 53.8334 98.4626 52.5489 96.9266 51.4956C95.3846 50.437 91.9745 47.2137 91.83 47.0774C91.647 46.9034 91.6395 46.6151 91.8119 46.4321C91.9843 46.2491 92.2735 46.2394 92.4572 46.414C92.4918 46.4472 95.9591 49.7247 97.4431 50.7427C98.9346 51.7651 101.39 53.067 101.414 53.0798C101.637 53.198 101.722 53.4735 101.605 53.6964C101.522 53.8523 101.364 53.9404 101.201 53.9404Z" fill="#1D1D1B"/>
<path d="M102.361 8.59122C102.361 8.59122 101.052 7.40535 97.8992 7.2269C94.7459 7.04846 90.9511 10.2145 90.9511 10.2145C90.9511 10.2145 86.4162 14.0093 84.6912 21.0297C82.9655 28.05 83.9774 32.3937 83.9774 32.3937L89.3323 31.9773C89.3323 31.9773 89.2133 23.8268 92.664 18.7099C96.114 13.5929 102.361 8.59122 102.361 8.59122Z" fill="#4F266A"/>
<ellipse cx="87.3757" cy="39.6745" rx="10.1804" ry="10.6871" fill="#4F266A"/>
<path d="M103.716 54.8672L101.325 54.3168C100.839 54.2046 100.535 53.7197 100.647 53.2334C100.758 52.747 101.244 52.4435 101.73 52.5557L104.122 53.1061C104.609 53.2183 104.912 53.7032 104.8 54.1896C104.688 54.6752 104.203 54.9787 103.716 54.8672Z" fill="#4F266A"/>
<path d="M40.114 105.706C40.114 105.706 25.751 119.708 25.5989 126.095C25.48 130.14 62.8563 159.595 64.1649 160.904C66.8792 162.851 71.0979 173.152 75.2413 173.761C76.3119 174.236 87.9628 169.174 86.9516 166.497C85.9404 163.82 79.0985 162.987 78.7409 161.499C78.384 160.012 80.764 158.465 81.2994 157.335C81.8347 156.204 80.764 154.419 80.764 154.419C80.764 154.419 76.7569 156.94 75.5071 157.416C74.2579 157.892 70.1078 155.927 68.3226 154.261C66.5381 152.596 43.2221 126.635 43.1031 126.04C42.9841 125.445 51.1429 117.536 51.1429 117.536L40.114 105.706Z" fill="white"/>
<path d="M122.352 107.387L128.039 179.764L118.63 179.576L111.046 115.383L110.767 111.131L122.352 107.387Z" fill="white"/>
<path d="M84.6904 67.8929C84.5843 67.8929 84.4781 67.856 84.3923 67.7815C84.2018 67.6166 84.1814 67.3282 84.3463 67.1385C84.3825 67.0963 87.9634 62.9123 88.0892 58.4963C88.2194 53.9283 88.0907 50.1704 88.0892 50.1328C88.0801 49.8805 88.2774 49.6697 88.5296 49.6607C88.7796 49.6675 88.9927 49.8497 89.0017 50.1011C89.0025 50.1388 89.1327 53.9238 89.0017 58.5234C88.8662 63.2692 85.1926 67.5564 85.0368 67.7371C84.9457 67.8395 84.8184 67.8929 84.6904 67.8929Z" fill="#1D1D1B"/>
<path d="M100.171 71.4265C100.153 71.4265 100.135 71.4257 100.118 71.4235C99.8672 71.3941 99.6873 71.169 99.7159 70.9182L101.193 58.0431C101.207 57.9173 101.273 57.8044 101.375 57.7284C101.476 57.6538 101.606 57.6252 101.728 57.6455C101.807 57.6606 109.82 59.0377 112.385 54.2867C115.071 49.3091 115.887 47.3733 116.119 44.1387C116.35 40.9184 116.402 37.3593 116.403 37.3231C116.407 37.0724 116.61 36.8729 116.859 36.8729C116.859 36.8729 116.864 36.8729 116.865 36.8729C117.118 36.8766 117.319 37.0837 117.316 37.3352C117.315 37.3721 117.262 40.956 117.03 44.2042C116.786 47.6082 115.947 49.608 113.19 54.7189C110.668 59.3886 103.927 58.8623 102.046 58.6146L100.623 71.0199C100.596 71.2548 100.399 71.4265 100.171 71.4265Z" fill="#1D1D1B"/>
<path d="M108.514 47.2031C108.263 47.2031 108.06 47.0006 108.058 46.7498C108.056 46.4976 108.259 46.2928 108.511 46.2913C109.485 46.2853 110.513 46.0971 110.667 45.8975C110.65 45.4977 109.875 43.6749 109.326 42.5274C109.217 42.3 109.313 42.0274 109.54 41.919C109.765 41.8114 110.039 41.9055 110.149 42.1336C110.385 42.6253 111.562 45.1243 111.562 45.9593C111.562 47.0262 109.654 47.1978 108.516 47.2039C108.516 47.2031 108.515 47.2031 108.514 47.2031Z" fill="#1D1D1B"/>
<path d="M109.421 51.7486C107.639 51.7486 106.103 51.022 106.03 50.9858C105.803 50.8774 105.708 50.6049 105.817 50.3782C105.927 50.1508 106.197 50.0552 106.425 50.1636C106.443 50.1727 108.242 51.0205 110.04 50.8006C111.831 50.583 113.392 49.0952 113.408 49.0802C113.59 48.9078 113.879 48.91 114.054 49.093C114.228 49.2737 114.223 49.5628 114.042 49.7382C113.969 49.8075 112.242 51.4534 110.151 51.7064C109.905 51.7365 109.661 51.7486 109.421 51.7486Z" fill="#1D1D1B"/>
<circle cx="103.892" cy="38.3569" r="1.02625" fill="#1D1D1B"/>
<circle cx="113.412" cy="38.3569" r="1.02625" fill="#1D1D1B"/>
<path d="M101.646 34.6201C101.418 34.6201 101.223 34.4507 101.194 34.2188C101.163 33.9696 101.341 33.7414 101.591 33.7113L104.864 33.3092C105.103 33.2723 105.34 33.4561 105.371 33.7068C105.402 33.956 105.224 34.1841 104.974 34.2143L101.701 34.6163C101.683 34.6193 101.664 34.6201 101.646 34.6201Z" fill="#1D1D1B"/>
<path d="M111.107 34.218C110.864 34.218 110.663 34.0283 110.651 33.7843C110.638 33.5329 110.832 33.319 111.084 33.307L114.7 33.1278C114.962 33.0909 115.166 33.3092 115.177 33.5607C115.189 33.8122 114.996 34.026 114.744 34.0381L111.128 34.2173C111.122 34.218 111.113 34.218 111.107 34.218Z" fill="#1D1D1B"/>
<path d="M75.6561 174.292C75.5966 174.292 75.5356 174.281 75.4769 174.256C75.3361 174.197 72.0164 172.764 70.4729 170.624C70.0453 170.031 69.5257 169.141 68.9234 168.109C67.4273 165.545 65.3786 162.033 63.3268 160.777C60.6999 159.167 29.4501 133.816 25.7164 128.091C21.9931 122.382 39.0696 106.067 39.7992 105.375C39.9807 105.202 40.2705 105.207 40.443 105.393C40.6169 105.576 40.6094 105.864 40.4264 106.037C35.6159 110.603 23.7324 123.378 26.4806 127.591C30.0216 133.023 61.251 158.435 63.8034 159.998C66.0502 161.376 68.1659 165.002 69.711 167.649C70.302 168.66 70.811 169.534 71.2123 170.089C72.6075 172.023 75.8029 173.404 75.8353 173.416C76.0672 173.515 76.1749 173.783 76.0755 174.015C76.0025 174.188 75.8338 174.292 75.6561 174.292Z" fill="#1D1D1B"/>
<path d="M79.395 172.009C79.3513 172.009 79.3076 172.003 79.264 171.99C79.1638 171.96 76.7981 171.242 74.5107 169.797C72.1149 168.284 71.6496 166.203 71.6307 166.114C71.578 165.868 71.7362 165.627 71.9824 165.574C72.221 165.526 72.4688 165.679 72.5222 165.923C72.5267 165.942 72.9424 167.728 74.9971 169.026C77.1753 170.402 79.5027 171.109 79.5252 171.117C79.7669 171.189 79.904 171.443 79.8309 171.685C79.773 171.882 79.5915 172.009 79.395 172.009Z" fill="#1D1D1B"/>
<path d="M84.534 170.046C84.5227 170.046 84.5107 170.046 84.4994 170.046C84.3669 170.035 81.2271 169.791 79.2176 168.938C77.1914 168.078 75.8497 166.691 75.794 166.633C75.6201 166.451 75.6261 166.162 75.8083 165.989C75.9913 165.814 76.2789 165.822 76.4536 166.002C76.4656 166.015 77.7283 167.315 79.5745 168.099C81.444 168.892 84.5378 169.134 84.5679 169.135C84.8194 169.155 85.0084 169.374 84.9896 169.625C84.97 169.864 84.7705 170.046 84.534 170.046Z" fill="#1D1D1B"/>
<path d="M87.1992 167.264C86.3333 167.264 85.1023 167.157 83.509 166.76C80.1592 165.926 79.1827 165.078 79.0833 164.984C78.8996 164.811 78.8898 164.523 79.0622 164.339C79.2339 164.156 79.5193 164.146 79.703 164.314C79.7301 164.336 80.6456 165.106 83.7304 165.874C86.8754 166.658 88.4799 166.238 88.4957 166.235C88.7329 166.166 88.9881 166.31 89.0559 166.552C89.1229 166.794 88.9836 167.044 88.7419 167.113C88.7035 167.124 88.1885 167.264 87.1992 167.264Z" fill="#1D1D1B"/>
<path d="M79.2076 160.825L78.481 160.275C78.481 160.275 80.2858 157.887 80.9408 157.052C81.1652 156.766 80.9213 155.824 80.5087 154.919C79.5991 156.007 77.3817 158.115 74.1102 157.759C70.7695 157.39 65.3446 152.81 57.5254 143.761C55.5512 141.477 53.4543 138.775 51.4266 136.161C47.9782 131.718 44.721 127.52 42.8726 126.432C39.9361 124.705 35.8507 123.816 35.8093 123.807C35.5624 123.754 35.4057 123.511 35.4584 123.266C35.5119 123.019 35.7559 122.868 35.9998 122.915C36.173 122.953 40.2727 123.844 43.3356 125.647C45.3347 126.823 48.4917 130.892 52.1472 135.603C54.1681 138.208 56.2567 140.9 58.2151 143.165C65.7715 151.909 71.1527 156.514 74.2096 156.853C77.9058 157.249 80.1796 153.848 80.203 153.814C80.2903 153.681 80.4266 153.589 80.6005 153.606C80.7601 153.611 80.9062 153.699 80.9845 153.838C81.2375 154.29 82.461 156.595 81.6591 157.615C81.0048 158.446 79.2076 160.825 79.2076 160.825Z" fill="#1D1D1B"/>
<path d="M43.1036 126.496C42.9915 126.496 42.8785 126.455 42.7897 126.371C42.6075 126.198 42.5992 125.909 42.7716 125.726L50.8122 117.222C50.9861 117.041 51.2745 117.031 51.4574 117.204C51.6404 117.377 51.6479 117.666 51.4755 117.849L43.4357 126.353C43.3446 126.448 43.2249 126.496 43.1036 126.496Z" fill="#1D1D1B"/>
<path d="M128.037 179.995C127.803 179.995 127.603 179.813 127.584 179.575L121.897 107.423C121.876 107.172 122.064 106.953 122.315 106.933C122.542 106.911 122.786 107.1 122.805 107.352L128.493 179.503C128.513 179.755 128.325 179.974 128.074 179.993C128.062 179.994 128.049 179.995 128.037 179.995Z" fill="#1D1D1B"/>
<path d="M116.211 140.228C116.168 140.228 116.141 140.227 116.128 140.225C115.876 140.205 115.69 139.985 115.71 139.734C115.73 139.485 115.972 139.285 116.193 139.315C116.224 139.309 117.085 139.335 119.232 138.468C121.35 137.611 121.904 136.281 121.926 136.225C122.02 135.993 122.281 135.876 122.518 135.969C122.751 136.06 122.867 136.322 122.777 136.556C122.749 136.626 122.083 138.298 119.574 139.314C117.497 140.153 116.501 140.228 116.211 140.228Z" fill="#1D1D1B"/>
<path d="M118.625 179.995C118.396 179.995 118.198 179.824 118.172 179.59L110.314 111.182L104.835 90.2189C104.771 89.9757 104.917 89.7265 105.161 89.6632C105.407 89.5947 105.654 89.7453 105.717 89.9893L111.207 111.016L119.079 179.487C119.107 179.737 118.927 179.963 118.677 179.993C118.66 179.994 118.643 179.995 118.625 179.995Z" fill="#1D1D1B"/>
<path d="M68.7162 103.917C68.6198 103.917 68.5242 103.888 68.4421 103.825C68.2411 103.674 68.2004 103.388 68.3518 103.187L69.8968 101.134C70.0489 100.932 70.3357 100.892 70.5353 101.044C70.7363 101.195 70.777 101.481 70.6256 101.682L69.0806 103.735C68.991 103.855 68.854 103.917 68.7162 103.917Z" fill="#1D1D1B"/>
<path d="M84.5326 146.664C84.3029 146.664 84.1041 146.489 84.08 146.255C84.0544 146.004 84.2359 145.78 84.4866 145.754C84.5363 145.749 89.5569 145.184 93.6732 141.611C97.7443 138.079 98.3496 136.277 98.3549 136.258C98.4294 136.021 98.6794 135.884 98.9234 135.957C99.162 136.03 99.2991 136.278 99.2298 136.517C99.2065 136.599 98.6071 138.538 94.2717 142.3C89.9296 146.068 84.7976 146.638 84.5807 146.661C84.5642 146.663 84.5484 146.664 84.5326 146.664Z" fill="#1D1D1B"/>
<path d="M91.0067 85.6448C90.174 85.6448 89.3262 85.5116 88.4679 85.2435C81.0673 82.938 79.9364 65.8374 79.8919 65.1109C79.8769 64.8594 80.0674 64.6433 80.3196 64.6282C80.5628 64.6147 80.7864 64.8044 80.8022 65.0559C80.8128 65.2268 81.9354 82.2536 88.7382 84.3731C90.7809 85.0101 92.7468 84.7955 94.5877 83.7377C101.146 79.9685 104.227 66.8163 104.258 66.6845C104.313 66.439 104.555 66.2839 104.803 66.3419C105.05 66.3984 105.203 66.6431 105.147 66.8878C105.02 67.445 101.943 80.5625 95.0425 84.5282C93.7482 85.2729 92.3974 85.6448 91.0067 85.6448Z" fill="#1D1D1B"/>
<path d="M101.586 58.5543C101.314 58.5543 100.591 58.4858 98.9683 57.9806C96.9414 57.3496 94.7414 56.1675 94.6487 56.1178C94.4266 55.9974 94.3438 55.721 94.4635 55.4997C94.584 55.2768 94.8633 55.1977 95.0817 55.3144C95.1043 55.3265 97.2983 56.5063 99.2394 57.1094C101.034 57.6681 101.575 57.6433 101.603 57.6425C101.847 57.6267 102.069 57.8067 102.094 58.0506C102.119 58.2946 101.953 58.5137 101.71 58.5475C101.689 58.5498 101.65 58.5543 101.586 58.5543Z" fill="#1D1D1B"/>
<path d="M448.808 242.845L271.202 239.107C265.472 238.986 260.715 243.504 260.541 249.232L257.48 349.567C257.3 355.458 262.027 360.332 267.922 360.332H390.913C390.913 360.332 398.528 373.064 404.835 379.728C411.142 386.391 420.423 392.46 420.423 392.46C420.423 392.46 417.924 389.842 415.188 381.156C412.451 372.469 412.689 360.333 412.689 360.333H441.531C447.005 360.333 451.551 356.107 451.95 350.648L459.008 254.052C459.443 248.085 454.789 242.972 448.808 242.845Z" fill="#EE4266"/>
<path d="M318.844 218.156C318.844 218.156 313.282 210.711 310.644 204.504C307.856 197.943 307.664 188.605 308.305 188.585C308.305 188.585 305.739 188.091 304.77 190.391C303.878 193.127 304.238 200.007 301.824 200.568C300.575 200.627 296.077 197.51 294.292 193.584C292.508 189.657 292.319 183.027 290.534 182.581C288.749 182.135 282.86 190.792 283.395 196.771C283.93 202.75 285.369 206.336 290.991 211.145C296.613 215.954 303.564 218.814 306.063 220.866C308.562 222.919 312.427 227.311 312.427 227.311L318.844 218.156Z" fill="white"/>
<path d="M298.097 232.422C298.097 232.422 287.381 220.032 285.358 216.343C283.335 212.655 283.361 198.376 283.361 198.376C283.361 198.376 280.242 197.781 279.051 200.756C277.862 203.731 279.051 209.919 277.147 209.919C275.244 209.919 271.427 206.05 270.236 203.789C269.047 201.528 268.412 191.732 265.556 191.018C262.7 190.304 256.205 205.635 257.514 212.656C258.822 219.676 264.296 221.461 270.008 224.793C275.72 228.125 288.041 243.307 288.041 243.307L298.097 232.422Z" fill="white"/>
<path d="M318.843 218.613C318.708 218.613 318.575 218.553 318.484 218.438C318.201 218.075 311.515 209.482 309.285 202.167C307.366 195.871 307.588 190.528 307.706 188.99C307.46 188.992 307.074 189.026 306.657 189.249C305.766 189.729 305.039 190.865 304.558 192.535C304.012 194.432 303.99 196.007 303.974 197.274C303.95 199.089 303.931 200.523 302.024 200.788C299.113 201.197 296.322 198.028 294.682 194.931C293.064 191.877 291.921 186.733 291.873 186.515C291.818 186.269 291.974 186.026 292.22 185.972C292.47 185.92 292.71 186.073 292.763 186.319C292.775 186.371 293.929 191.56 295.487 194.503C296.915 197.2 299.461 200.228 301.898 199.884C302.981 199.734 303.036 199.176 303.06 197.263C303.078 196.011 303.1 194.298 303.68 192.283C304.244 190.327 305.11 189.03 306.254 188.431C307.357 187.855 308.305 188.162 308.342 188.175C308.546 188.243 308.674 188.446 308.65 188.66C308.643 188.719 307.98 194.77 310.155 201.903C312.336 209.057 319.131 217.789 319.2 217.876C319.355 218.075 319.32 218.362 319.122 218.517C319.041 218.58 318.943 218.613 318.843 218.613Z" fill="#1D1D1B"/>
<path d="M295.087 200.973C295.063 200.973 295.039 200.972 295.014 200.968C294.914 200.951 292.509 200.514 290.383 195.52C288.333 190.708 287.319 184.887 287.307 184.829C287.265 184.581 287.432 184.345 287.68 184.302C287.932 184.259 288.165 184.426 288.208 184.675C288.218 184.732 289.215 190.451 291.223 195.163C293.122 199.623 295.146 200.064 295.167 200.069C295.411 200.116 295.576 200.351 295.533 200.597C295.493 200.816 295.304 200.973 295.087 200.973Z" fill="#1D1D1B"/>
<path d="M293.836 204.989C293.781 204.989 293.724 204.979 293.669 204.958C293.524 204.901 290.086 203.516 287.372 199.245C284.704 195.049 282.974 192.281 282.974 192.281C282.841 192.068 282.906 191.787 283.119 191.653C283.334 191.521 283.615 191.584 283.747 191.799C283.747 191.799 285.478 194.564 288.142 198.756C290.699 202.778 293.971 204.096 294.003 204.109C294.237 204.202 294.353 204.466 294.261 204.701C294.19 204.88 294.018 204.989 293.836 204.989Z" fill="#1D1D1B"/>
<path d="M290.802 207.667C290.749 207.667 290.696 207.658 290.643 207.638C290.538 207.6 288.066 206.655 285.956 203.351C283.904 200.139 281.228 196.037 281.228 196.037L281.992 195.538C281.992 195.538 284.671 199.646 286.724 202.859C288.659 205.888 290.939 206.774 290.961 206.783C291.196 206.871 291.316 207.134 291.228 207.37C291.16 207.554 290.986 207.667 290.802 207.667Z" fill="#1D1D1B"/>
<path d="M312.427 227.765C312.303 227.765 312.18 227.716 312.09 227.616C312.07 227.595 310.088 225.424 308.145 223.413C306.102 221.298 302.178 219.01 298.242 216.851C293.816 214.423 287.71 208.94 287.452 208.707C287.264 208.538 287.249 208.25 287.419 208.063C287.588 207.877 287.876 207.861 288.062 208.03C288.125 208.086 294.348 213.673 298.68 216.05C302.68 218.244 306.673 220.577 308.8 222.779C310.754 224.8 312.744 226.979 312.763 227.001C312.933 227.187 312.92 227.476 312.734 227.645C312.646 227.726 312.536 227.765 312.427 227.765Z" fill="#1D1D1B"/>
<path d="M298.098 232.879C297.977 232.879 297.858 232.831 297.768 232.738C297.266 232.213 285.457 219.842 284.549 215.606C283.74 211.83 283.066 201.092 282.929 198.814C282.143 198.833 280.29 199.162 279.239 201.676C278.627 203.142 278.628 204.972 278.63 206.587C278.632 208.269 278.633 209.597 277.901 210.142C277.564 210.392 277.129 210.44 276.611 210.283C273.802 209.442 269.743 204.906 268.855 201.619C267.966 198.333 267.246 193.942 267.239 193.898C267.198 193.649 267.366 193.415 267.615 193.374C267.859 193.332 268.097 193.501 268.139 193.75C268.146 193.794 268.86 198.14 269.735 201.38C270.611 204.619 274.563 208.716 276.873 209.409C277.104 209.476 277.265 209.478 277.357 209.41C277.721 209.138 277.72 207.782 277.718 206.586C277.717 204.97 277.715 202.958 278.399 201.323C280.007 197.473 283.395 197.918 283.427 197.924C283.642 197.956 283.804 198.133 283.816 198.35C283.823 198.479 284.568 211.34 285.442 215.414C286.295 219.4 298.306 231.98 298.427 232.107C298.601 232.288 298.595 232.577 298.413 232.752C298.325 232.836 298.211 232.879 298.098 232.879Z" fill="#1D1D1B"/>
<path d="M269.474 210.522C269.353 210.522 269.233 210.475 269.143 210.381C269.069 210.303 267.291 208.417 265.409 204.741C263.521 201.055 262.714 195.264 262.681 195.019C262.646 194.77 262.821 194.539 263.071 194.505C263.315 194.469 263.55 194.645 263.583 194.895C263.592 194.953 264.404 200.779 266.22 204.325C268.035 207.871 269.785 209.733 269.803 209.751C269.977 209.934 269.97 210.223 269.788 210.397C269.7 210.481 269.587 210.522 269.474 210.522Z" fill="#1D1D1B"/>
<path d="M265.636 213.692C265.529 213.692 265.425 213.656 265.338 213.582C265.244 213.5 263.022 211.57 261.834 209.104C260.663 206.675 259.355 200.862 259.3 200.616C259.246 200.37 259.401 200.126 259.646 200.071C259.898 200.021 260.135 200.172 260.191 200.417C260.205 200.476 261.531 206.373 262.655 208.708C263.762 211.004 265.912 212.871 265.933 212.89C266.123 213.055 266.145 213.342 265.981 213.533C265.891 213.639 265.764 213.692 265.636 213.692Z" fill="#1D1D1B"/>
<path d="M265.099 217.84C265.025 217.84 264.949 217.822 264.88 217.784C264.805 217.742 263.027 216.757 261.136 215.045C259.205 213.299 257.047 207.964 256.957 207.737C256.862 207.503 256.976 207.237 257.21 207.144C257.445 207.051 257.71 207.163 257.803 207.397C257.824 207.451 259.972 212.764 261.747 214.368C263.556 216.005 265.302 216.975 265.32 216.985C265.541 217.106 265.621 217.383 265.499 217.604C265.417 217.755 265.261 217.84 265.099 217.84Z" fill="#1D1D1B"/>
<path d="M288.042 243.761C287.914 243.761 287.786 243.707 287.696 243.602C287.634 243.53 281.507 236.362 277.403 231.914C273.414 227.591 270.056 225.339 264.878 222.46C259.898 219.692 258.498 216.758 258.44 216.634C258.335 216.406 258.434 216.136 258.662 216.03C258.891 215.922 259.162 216.023 259.268 216.249C259.282 216.278 260.629 219.054 265.323 221.664C270.467 224.524 274.023 226.906 278.074 231.296C282.188 235.756 288.328 242.937 288.389 243.009C288.553 243.2 288.53 243.489 288.339 243.652C288.252 243.726 288.147 243.761 288.042 243.761Z" fill="#1D1D1B"/>
<path d="M320.471 215.283C320.471 215.283 338.765 235.451 339.836 235.987C340.907 236.522 340.014 236.879 340.461 238.129C340.907 239.378 343.584 237.593 343.852 239.111C344.12 240.628 343.674 242.591 346.53 245.983C349.385 249.374 362.563 258.005 362.563 258.005L376.956 270.975C376.956 270.975 390.913 271.03 395.197 279.091C399.48 287.153 389.247 308.095 380.68 319.281C372.113 330.465 364.854 338.557 364.854 338.557L365.092 360.333H292.449C292.449 360.333 287.629 355.394 292.449 343.079C297.267 330.764 317.437 316.128 321.899 310.238C326.361 304.348 329.573 287.808 329.573 287.808C329.573 287.808 316.722 280.252 308.334 272.755C299.946 265.258 285.131 245.983 285.131 245.983L300.302 229.562C300.302 229.562 311.904 242.68 316.723 247.678C321.542 252.676 322.256 254.55 323.862 254.282C325.469 254.014 327.164 254.014 327.7 255.531C328.236 257.048 327.343 258.119 328.86 257.495C330.378 256.87 335.286 260.976 335.286 260.976L308.959 231.704L320.471 215.283Z" fill="#1DAA6B"/>
<path d="M384.012 212.427C384.012 212.427 379.46 209.035 374.998 212.427C370.537 215.818 371.518 221.886 371.518 221.886C371.518 221.886 359.559 233.666 358.399 241.342C356.674 250.34 363.039 253.657 363.039 253.657C363.039 253.657 362.235 262.225 361.254 265.883C360.273 269.543 360.773 267.56 360.773 267.56L376.956 270.975C376.956 270.975 376.247 267.133 377.229 262.671C378.21 258.209 386.242 249.373 386.242 249.373C386.242 249.373 395.434 252.496 399.003 244.465C402.573 236.432 399.628 229.383 397.04 226.705C394.452 224.028 389.989 224.742 389.365 222.957C388.742 221.172 389.545 215.283 384.012 212.427Z" fill="white"/>
<path d="M366.391 251.907C366.15 251.907 365.95 251.72 365.935 251.478C365.92 251.227 366.112 251.011 366.364 250.996C366.383 250.996 368.252 250.883 370.943 250.497C373.621 250.114 377.79 248.805 377.832 248.791C378.073 248.718 378.329 248.849 378.404 249.088C378.48 249.329 378.347 249.585 378.107 249.661C377.933 249.716 373.824 251.007 371.074 251.401C368.343 251.791 366.437 251.906 366.418 251.907C366.408 251.907 366.399 251.907 366.391 251.907Z" fill="#1D1D1B"/>
<path d="M366.428 252.362L363.983 252.575C363.486 252.617 363.048 252.25 363.005 251.752C362.962 251.255 363.329 250.817 363.827 250.774L366.272 250.562C366.769 250.519 367.207 250.886 367.25 251.384C367.293 251.881 366.925 252.319 366.428 252.362Z" fill="#FFD141"/>
<circle cx="385.753" cy="246.595" r="10.6501" transform="rotate(-64.9648 385.753 246.595)" fill="#FFD141"/>
<path d="M390.13 244.136C390.13 244.136 392.627 240.529 394.445 236.355C396.376 231.922 396.76 229.888 396.76 229.888C396.76 229.888 397.807 226.758 396.377 225.04C394.947 223.322 391.021 224.114 391.021 224.114C391.021 224.114 391.322 224.995 389.915 229.131C388.509 233.268 384.729 241.22 384.729 241.22L390.13 244.136Z" fill="#FFD141"/>
<path d="M340.668 294.352C340.668 294.352 327.789 319.697 322.612 332.012C317.436 344.328 313.509 360.332 313.509 360.332H338.141C338.141 360.332 338.018 341.591 340.668 327.341C343.317 313.092 348.671 297.207 348.671 297.207C348.671 297.207 343.73 296.077 340.668 294.352Z" fill="#FFD141"/>
<path d="M372.18 255.54C372.17 255.54 372.16 255.54 372.15 255.54C371.868 255.521 365.226 255.076 362.862 254.077C360.624 253.129 356.716 249.234 357.948 241.271C359.061 234.083 369.594 223.186 371.046 221.713C370.987 220.803 370.929 217.308 373.088 213.687C375.637 209.409 381.46 210.763 381.519 210.778C381.763 210.837 381.914 211.083 381.854 211.328C381.795 211.574 381.548 211.72 381.304 211.665C381.252 211.651 376.075 210.457 373.872 214.154C371.569 218.016 371.967 221.796 371.972 221.833C371.987 221.971 371.939 222.109 371.841 222.207C371.723 222.325 359.975 234.146 358.85 241.409C357.704 248.817 361.205 252.384 363.217 253.235C365.44 254.176 372.142 254.624 372.209 254.628C372.461 254.645 372.651 254.861 372.635 255.113C372.619 255.355 372.418 255.54 372.18 255.54Z" fill="#1D1D1B"/>
<path d="M376.957 271.43C376.715 271.43 376.514 271.241 376.501 270.998C376.487 270.727 376.16 264.321 377.246 261.166C378.336 257.999 380.411 255.837 380.499 255.746C380.673 255.567 380.962 255.561 381.143 255.736C381.324 255.912 381.328 256.2 381.154 256.381C381.133 256.402 379.13 258.496 378.109 261.464C377.081 264.452 377.409 270.885 377.412 270.95C377.426 271.201 377.233 271.416 376.981 271.429C376.973 271.43 376.964 271.43 376.957 271.43Z" fill="#1D1D1B"/>
<path d="M376.902 222.877H376.891C376.64 222.871 376.44 222.663 376.445 222.411C376.448 222.301 376.524 219.687 377.981 216.774C379.248 214.241 382.275 214.406 383.699 214.847C383.94 214.92 384.074 215.176 384 215.416C383.927 215.656 383.673 215.794 383.43 215.718C383.293 215.676 380.033 214.712 378.797 217.182C377.431 219.915 377.359 222.408 377.358 222.432C377.352 222.679 377.149 222.877 376.902 222.877Z" fill="#1D1D1B"/>
<path d="M384.729 236.468C384.723 236.468 384.715 236.468 384.708 236.467C384.456 236.456 384.262 236.243 384.274 235.991C384.343 234.432 384.203 230.106 382.732 228.835C380.569 226.967 379.871 223.992 380.994 221.435C382.14 218.824 385.517 218.305 385.66 218.284C385.908 218.253 386.141 218.42 386.176 218.669C386.213 218.918 386.041 219.15 385.792 219.186C385.762 219.191 382.771 219.657 381.83 221.801C380.868 223.99 381.471 226.539 383.329 228.144C385.436 229.964 385.196 235.784 385.185 236.031C385.173 236.277 384.971 236.468 384.729 236.468Z" fill="#1D1D1B"/>
<path d="M389.367 223.413C389.246 223.413 389.126 223.366 389.036 223.272C388.224 222.418 387.877 218.443 387.789 217.243C387.771 216.992 387.96 216.773 388.212 216.755C388.442 216.727 388.681 216.925 388.7 217.178C388.867 219.478 389.297 222.222 389.697 222.643C389.871 222.825 389.864 223.115 389.681 223.288C389.593 223.372 389.48 223.413 389.367 223.413Z" fill="#1D1D1B"/>
<path d="M396.206 248.941C396.069 248.941 395.935 248.879 395.845 248.763C395.691 248.564 395.728 248.278 395.926 248.123C395.968 248.09 400.157 244.744 400.198 237.054C400.24 229.417 396.83 227.111 396.795 227.089C396.585 226.951 396.523 226.67 396.66 226.459C396.794 226.25 397.075 226.185 397.286 226.32C397.445 226.419 401.155 228.869 401.111 237.06C401.067 245.221 396.672 248.701 396.483 248.846C396.401 248.91 396.303 248.941 396.206 248.941Z" fill="#1D1D1B"/>
<path d="M365.848 238.069C365.256 238.069 364.456 237.855 364.133 237.048C364.074 236.901 364.03 236.664 364.156 236.376C364.586 235.39 367.03 234.409 367.516 234.222C367.754 234.131 368.015 234.25 368.106 234.484C368.196 234.719 368.079 234.983 367.844 235.073C366.42 235.621 365.058 236.424 364.985 236.755C365.196 237.252 366.03 237.145 366.041 237.143C366.279 237.11 366.519 237.282 366.555 237.531C366.591 237.779 366.421 238.009 366.172 238.046C366.076 238.059 365.966 238.069 365.848 238.069Z" fill="#1D1D1B"/>
<path fill-rule="evenodd" clip-rule="evenodd" d="M361.485 246.338C361.623 246.662 361.887 246.847 362.193 246.847C362.271 246.847 362.351 246.834 362.433 246.809C363.574 246.472 365.749 242.676 365.576 241.707C365.407 240.759 363.28 240.069 362.024 239.741C361.819 239.681 361.596 239.752 361.441 239.924C360.757 240.692 360.988 245.154 361.485 246.338ZM362.288 245.883C361.881 244.731 361.855 241.589 362.071 240.698C363.357 241.064 364.563 241.603 364.677 241.853C364.7 242.469 363.006 245.432 362.288 245.883Z" fill="#1D1D1B"/>
<path d="M374.016 236.414C373.947 236.414 373.875 236.398 373.808 236.363C373.765 236.342 372.759 235.818 371.867 234.981C370.893 234.066 370.882 233.141 370.884 233.039C370.888 232.79 371.092 232.592 371.34 232.592C371.343 232.592 371.345 232.592 371.349 232.592C371.598 232.596 371.798 232.801 371.796 233.05C371.797 233.089 371.821 233.684 372.492 234.316C373.288 235.064 374.217 235.548 374.227 235.552C374.451 235.668 374.538 235.943 374.423 236.167C374.341 236.323 374.182 236.414 374.016 236.414Z" fill="#1D1D1B"/>
<path d="M367.097 232.099C366.863 232.099 366.579 232.063 366.253 231.958C365.285 231.652 364.789 231.029 364.769 231.001C364.613 230.803 364.648 230.517 364.847 230.362C365.041 230.205 365.328 230.24 365.485 230.438C365.497 230.453 365.851 230.874 366.527 231.089C367.137 231.282 367.445 231.132 367.457 231.126C367.676 231.013 367.953 231.092 368.07 231.306C368.19 231.522 368.124 231.788 367.914 231.915C367.872 231.941 367.589 232.099 367.097 232.099Z" fill="#1D1D1B"/>
<path d="M288.55 250.795C288.436 250.795 288.322 250.752 288.234 250.667C288.052 250.492 288.046 250.204 288.222 250.023L303.951 233.718C304.126 233.536 304.415 233.532 304.595 233.707C304.776 233.881 304.782 234.17 304.606 234.351L288.877 250.655C288.789 250.749 288.67 250.795 288.55 250.795Z" fill="#1D1D1B"/>
<path d="M314.126 237.904C314.034 237.904 313.942 237.877 313.863 237.82C313.657 237.675 313.609 237.389 313.755 237.185L325.381 220.812C325.526 220.607 325.812 220.559 326.016 220.704C326.222 220.85 326.27 221.135 326.124 221.34L314.498 237.712C314.409 237.838 314.268 237.904 314.126 237.904Z" fill="#1D1D1B"/>
<path d="M360.773 268.016C360.735 268.016 360.697 268.011 360.658 268.001L335.17 261.417C334.926 261.354 334.78 261.105 334.843 260.861C334.907 260.618 335.154 260.471 335.398 260.534L360.448 267.005C360.748 265.858 361.551 262.597 361.942 259.289C362.432 255.125 362.584 253.615 362.585 253.611C362.61 253.36 362.854 253.171 363.084 253.203C363.336 253.228 363.518 253.452 363.492 253.702C363.492 253.702 363.34 255.216 362.847 259.396C362.356 263.558 361.223 267.642 361.212 267.683C361.156 267.884 360.973 268.016 360.773 268.016Z" fill="#1D1D1B"/>
<path d="M378.13 301.789C371.37 301.789 349.552 297.832 348.589 297.656L340.514 294.782C340.483 294.771 340.453 294.756 340.425 294.739C337.75 293.058 330.558 288.617 329.43 288.239C329.191 288.159 329.061 287.901 329.141 287.662C329.222 287.422 329.482 287.295 329.719 287.374C331.148 287.851 340.082 293.446 340.869 293.939L348.825 296.778C348.998 296.803 373.28 301.209 378.836 300.857C384.224 300.52 388.386 294.379 388.426 294.317C388.567 294.107 388.851 294.053 389.059 294.191C389.268 294.331 389.325 294.614 389.185 294.823C389.006 295.091 384.735 301.401 378.893 301.767C378.666 301.782 378.41 301.789 378.13 301.789Z" fill="#1D1D1B"/>
<path d="M348.671 349.247C348.47 349.247 348.286 349.112 348.231 348.908C348.166 348.665 348.31 348.415 348.553 348.349C348.579 348.342 351.261 347.604 356.662 344.642C362.04 341.693 364.457 338.327 364.481 338.293C364.628 338.087 364.914 338.039 365.118 338.184C365.322 338.33 365.371 338.614 365.226 338.821C365.124 338.965 362.662 342.392 357.1 345.442C351.583 348.468 348.9 349.201 348.789 349.231C348.75 349.241 348.709 349.247 348.671 349.247Z" fill="#1D1D1B"/>
<path d="M304.279 354.601C304.274 354.601 304.27 354.601 304.265 354.601C304.014 354.593 303.816 354.383 303.822 354.131C303.824 354.086 303.964 349.566 305.029 343.593C306.108 337.535 310.816 331.785 311.016 331.544C311.178 331.349 311.465 331.321 311.658 331.482C311.852 331.642 311.88 331.93 311.72 332.124C311.672 332.182 306.964 337.935 305.927 343.752C304.875 349.655 304.736 354.113 304.735 354.157C304.727 354.404 304.524 354.601 304.279 354.601Z" fill="#1D1D1B"/>
<path d="M357.901 332.608C357.159 332.608 356.427 332.516 355.921 332.233C355.693 332.105 355.56 331.893 355.557 331.654C355.549 330.968 356.514 330.34 359.502 328.57C361.767 327.229 364.586 325.56 366.062 324.021C366.445 323.622 366.632 323.282 366.573 323.092C366.406 322.542 364.562 322.145 362.935 321.793C360.743 321.32 358.259 320.785 356.501 319.55C355.714 318.997 355.635 318.394 355.709 317.986C356.23 315.08 367.433 311.992 369.674 311.403C369.913 311.335 370.168 311.485 370.231 311.728C370.295 311.971 370.15 312.22 369.906 312.284C364.936 313.592 356.931 316.34 356.607 318.147C356.592 318.227 356.549 318.468 357.025 318.803C358.633 319.931 361.021 320.447 363.128 320.901C365.447 321.402 367.121 321.763 367.446 322.825C367.613 323.372 367.376 323.969 366.72 324.653C365.159 326.281 362.28 327.985 359.967 329.355C358.667 330.126 357.087 331.06 356.598 331.538C357.636 331.896 359.748 331.562 360.532 331.388C360.783 331.334 361.022 331.489 361.076 331.735C361.13 331.981 360.975 332.225 360.73 332.279C360.509 332.328 359.19 332.608 357.901 332.608Z" fill="#1D1D1B"/>
<path d="M184.26 230.921L25.7612 229.638C20.7218 229.597 16.7576 233.933 17.2493 238.948L29.0816 359.763C29.5326 364.371 33.5954 367.766 38.2109 367.391L52.4097 366.24C52.4097 366.24 52.4737 374.313 51.6703 379.222C50.867 384.13 44.3526 391.359 44.3526 391.359C44.3526 391.359 58.5424 387.789 63.1827 381.632C67.8238 375.474 69.7174 364.836 69.7174 364.836L184.877 355.492C189.282 355.134 192.674 351.456 192.674 347.037V239.404C192.674 234.746 188.918 230.959 184.26 230.921Z" fill="#4F266A"/>
<path d="M209.641 299.637C209.641 299.637 204.108 297.257 193.637 300.053C183.166 302.849 182.035 307.728 182.035 307.728C182.035 307.728 188.282 313.142 198.485 309.691C208.688 306.241 209.641 299.637 209.641 299.637Z" fill="#1B1C1C"/>
<path d="M209.641 299.637C209.641 299.637 210.176 314.332 211.842 319.092C213.508 323.852 214.936 327.6 214.936 327.6C214.936 327.6 212.199 334.977 204.108 337.773C196.017 340.57 189.115 338.309 189.115 338.309L183.76 317.665L182.63 311L182.035 307.728C182.035 307.728 188.996 309.87 197.564 307.609C206.131 305.348 209.641 299.637 209.641 299.637Z" fill="#1DAA6B"/>
<path d="M166.682 317.422L182.63 311L183.936 318.701C183.936 318.701 187.359 318.407 190.394 316.712C193.428 315.016 195.034 311.089 196.016 311C196.998 310.911 200.746 319.299 200.835 322.78C200.925 326.26 199.05 327.332 196.819 328.402C194.588 329.473 191.269 329.424 191.269 329.424C191.269 329.424 196.06 330.162 197.355 332.062C198.425 333.222 197.801 336.256 197.801 336.256C197.801 336.256 193.607 334.649 190.751 333.847C187.895 333.043 182.288 331.591 178.896 331.591C175.505 331.591 167.103 333.043 167.103 333.043L166.682 317.422Z" fill="white"/>
<path d="M166.681 317.879C166.501 317.879 166.33 317.772 166.258 317.593C166.164 317.36 166.277 317.094 166.511 317L182.459 310.577C182.689 310.484 182.959 310.596 183.052 310.83C183.147 311.064 183.034 311.33 182.799 311.424L166.852 317.846C166.797 317.868 166.739 317.879 166.681 317.879Z" fill="#1D1D1B"/>
<path d="M184.324 319.153C183.032 319.153 182.408 318.721 182.363 318.688C182.159 318.54 182.113 318.255 182.26 318.051C182.406 317.849 182.689 317.803 182.892 317.945C182.936 317.974 184.612 319.013 188.468 317.017C192.545 314.907 194.706 311.53 194.727 311.497C194.861 311.284 195.144 311.223 195.355 311.354C195.568 311.488 195.632 311.769 195.498 311.982C195.406 312.129 193.194 315.598 188.886 317.828C186.886 318.863 185.381 319.153 184.324 319.153Z" fill="#1D1D1B"/>
<path d="M188.321 322.015C188.023 322.015 187.854 321.981 187.83 321.977C187.583 321.923 187.426 321.681 187.479 321.435C187.532 321.191 187.772 321.035 188.017 321.084C188.055 321.092 190.006 321.414 193.249 319.037C196.633 316.555 198.083 314.236 198.098 314.213C198.229 313.999 198.509 313.932 198.725 314.063C198.939 314.195 199.006 314.475 198.875 314.689C198.814 314.79 197.33 317.175 193.789 319.772C191.098 321.744 189.175 322.015 188.321 322.015Z" fill="#1D1D1B"/>
<path d="M190.165 326.053C189.013 326.053 188.422 325.77 188.376 325.747C188.15 325.634 188.059 325.361 188.172 325.135C188.284 324.91 188.559 324.821 188.779 324.929C188.82 324.947 190.733 325.785 194.634 323.974C198.734 322.068 201.258 319.513 201.282 319.487C201.458 319.308 201.747 319.303 201.928 319.48C202.108 319.656 202.111 319.945 201.934 320.125C201.827 320.235 199.269 322.825 195.019 324.802C192.88 325.793 191.267 326.053 190.165 326.053Z" fill="#1D1D1B"/>
<path d="M197.616 336.792C197.477 336.792 197.315 336.755 197.133 336.655C196.214 336.144 184.94 331.968 181.097 332.123C177.177 332.276 167.252 333.391 167.152 333.403C166.915 333.418 166.676 333.251 166.647 333C166.62 332.75 166.799 332.524 167.05 332.495C167.15 332.485 177.109 331.366 181.061 331.211C185.185 331.07 196.505 335.28 197.563 335.85C197.685 335.533 197.727 334.323 196.927 332.224C196.131 330.132 190.707 329.661 188.87 329.661C188.618 329.661 188.414 329.457 188.414 329.205C188.414 328.953 188.618 328.749 188.87 328.749C189.185 328.749 196.595 328.784 197.781 331.899C198.441 333.635 198.929 335.908 198.128 336.6C198.046 336.673 197.868 336.792 197.616 336.792Z" fill="#1D1D1B"/>
<path d="M198.087 293.588C198.048 293.588 198.009 293.582 197.97 293.569C197.772 293.505 197.665 293.292 197.729 293.094C197.733 293.083 198.121 291.819 197.716 289.35C197.468 287.837 197.064 287.233 196.554 286.469C196.225 285.977 195.852 285.419 195.49 284.55C194.542 282.275 196.089 279.134 196.156 279.002C196.249 278.817 196.474 278.739 196.661 278.833C196.847 278.926 196.922 279.152 196.83 279.338C196.815 279.368 195.37 282.305 196.187 284.26C196.52 285.061 196.856 285.564 197.18 286.05C197.698 286.823 198.185 287.554 198.459 289.228C198.897 291.902 198.464 293.271 198.445 293.328C198.393 293.487 198.246 293.588 198.087 293.588Z" fill="#1B1C1C"/>
<path d="M204.226 293.171C204.152 293.171 204.077 293.15 204.013 293.104C203.841 292.986 203.799 292.751 203.917 292.581C203.923 292.571 204.643 291.479 204.52 289.382C204.426 287.787 203.863 287.173 203.083 286.325C202.826 286.045 202.554 285.748 202.28 285.396C201.078 283.859 202.096 280.362 202.216 279.968C202.278 279.77 202.485 279.657 202.686 279.718C202.885 279.779 202.997 279.989 202.937 280.188C202.642 281.154 202.058 283.89 202.873 284.933C203.135 285.268 203.394 285.549 203.638 285.816C204.456 286.706 205.162 287.475 205.272 289.338C205.412 291.716 204.573 292.958 204.537 293.009C204.463 293.115 204.345 293.171 204.226 293.171Z" fill="#1B1C1C"/>
<path d="M122.371 230.269C122.371 230.269 126.753 224.98 124.373 221.113C121.993 217.246 117.353 218.079 117.353 218.079C117.353 218.079 120.923 210.107 112.771 209.868C104.621 209.63 103.669 211.236 103.669 211.236C103.669 211.236 98.8498 207.667 93.0785 211.534C87.3073 215.401 87.9616 218.495 84.8686 221.112C81.7748 223.73 75.3492 224.504 72.6718 231.048C69.9944 237.593 75.1113 245.267 75.1113 245.267C75.1113 245.267 70.4115 246.279 70.8279 251.039C71.2442 255.798 78.2646 259.963 78.2646 259.963C78.2646 259.963 77.0155 265.377 81.5963 267.043C86.1779 268.708 89.6278 265.377 89.6278 265.377C89.6278 265.377 90.8175 267.697 94.7448 268.292C98.6713 268.887 102.609 265.138 102.609 265.138L122.371 230.269Z" fill="#1B1C1C"/>
<path d="M82.6724 363.784C82.6724 363.784 84.2739 340.461 84.2739 333.797C84.2739 327.134 81.299 294.649 84.2739 286.32C87.2487 277.991 102.241 269.424 102.241 269.424L119.414 266.806C119.414 266.806 131.394 261.57 136.153 265.377C140.912 269.185 147.695 302.026 149.48 309.285C151.265 316.543 152.574 319.637 152.574 319.637L166.852 315.115L167.447 337.129L154.715 339.985L159.826 357.524L82.6724 363.784Z" fill="#FFD141"/>
<path d="M118.187 222.779C118.187 222.779 128.269 236.784 126.841 246.779C125.701 255.731 117.234 258.952 117.234 258.952L119.415 266.805C119.415 266.805 119.733 280.251 114.498 280.608C109.262 280.965 102.242 269.423 102.242 269.423C102.242 269.423 102.815 264.754 101.982 261.66C101.149 258.566 98.5532 252.526 98.5532 252.526C98.5532 252.526 104.86 240.746 104.86 233.369C104.86 225.992 102.837 220.161 102.837 220.161C102.837 220.161 106.679 224.444 110.767 225.04C114.855 225.635 118.187 222.779 118.187 222.779Z" fill="white"/>
<path d="M112.781 252.709C112.75 252.709 112.72 252.706 112.69 252.7C112.576 252.676 109.888 252.133 108.117 251.559C106.337 250.982 102.151 248.861 101.975 248.771C101.75 248.657 101.66 248.382 101.774 248.158C101.889 247.933 102.164 247.845 102.388 247.958C102.431 247.98 106.686 250.137 108.399 250.691C110.12 251.249 112.842 251.8 112.87 251.805C113.117 251.855 113.278 252.096 113.227 252.343C113.183 252.559 112.993 252.709 112.781 252.709Z" fill="#1D1D1B"/>
<path d="M111.641 209.847C111.641 209.847 109.387 208.499 106.234 208.321C103.081 208.142 100.519 209.931 100.519 209.931C100.519 209.931 95.0942 220.505 93.3685 227.525C91.6427 234.546 92.6547 238.888 92.6547 238.888L98.0088 238.472C98.0088 238.472 99.294 228.592 102 223.046C105.484 215.907 111.641 209.847 111.641 209.847Z" fill="#EE4266"/>
<ellipse cx="96.0535" cy="246.17" rx="10.1804" ry="10.6871" fill="#EE4266"/>
<path d="M115.585 252.864L113.135 253.015C112.638 253.046 112.208 252.667 112.178 252.169C112.147 251.67 112.525 251.242 113.024 251.211L115.473 251.06C115.971 251.029 116.4 251.407 116.431 251.906C116.462 252.404 116.083 252.833 115.585 252.864Z" fill="#EE4266"/>
<path d="M112.429 260.717C112.209 260.717 112.015 260.556 111.979 260.332C111.94 260.084 112.11 259.849 112.358 259.81C112.469 259.794 123.447 257.957 125.866 249.075C128.311 240.098 122.055 230.617 121.992 230.522C121.851 230.313 121.908 230.029 122.117 229.889C122.324 229.748 122.609 229.805 122.749 230.014C123.018 230.416 129.298 239.94 126.746 249.315C124.17 258.772 112.616 260.693 112.501 260.711C112.477 260.715 112.453 260.717 112.429 260.717Z" fill="#1D1D1B"/>
<path d="M119.414 267.261C119.214 267.261 119.031 267.129 118.975 266.927L116.795 259.074C116.727 258.831 116.87 258.579 117.112 258.513C117.358 258.444 117.607 258.587 117.673 258.83L119.853 266.683C119.921 266.926 119.778 267.178 119.536 267.245C119.495 267.256 119.455 267.261 119.414 267.261Z" fill="#1D1D1B"/>
<path d="M102.242 269.879C102.223 269.879 102.205 269.878 102.186 269.875C101.937 269.845 101.758 269.618 101.788 269.368C101.791 269.348 102.032 267.264 101.725 262.911C101.425 258.643 99.784 256.244 99.7666 256.219C99.6236 256.014 99.6733 255.729 99.8796 255.586C100.085 255.44 100.369 255.491 100.514 255.697C100.587 255.801 102.315 258.309 102.635 262.847C102.949 267.303 102.703 269.392 102.693 269.479C102.666 269.71 102.47 269.879 102.242 269.879Z" fill="#1D1D1B"/>
<path d="M110.526 236.309C110.323 236.309 110.138 236.173 110.085 235.967C110.021 235.724 110.168 235.475 110.412 235.411L112.784 234.798L113.41 233.352C113.51 233.12 113.778 233.013 114.01 233.114C114.241 233.214 114.347 233.483 114.247 233.714L113.533 235.365C113.476 235.494 113.364 235.59 113.228 235.626L110.64 236.296C110.602 236.304 110.563 236.309 110.526 236.309Z" fill="#1D1D1B"/>
<path d="M119.414 234.211C119.239 234.211 119.073 234.11 118.997 233.942C118.894 233.711 118.997 233.442 119.227 233.339L121.055 232.524L121.567 231.183C121.658 230.948 121.921 230.831 122.156 230.92C122.391 231.011 122.509 231.274 122.419 231.509L121.839 233.026C121.796 233.139 121.709 233.23 121.599 233.28L119.598 234.171C119.539 234.198 119.476 234.211 119.414 234.211Z" fill="#1D1D1B"/>
<path d="M119.958 241.708C119.77 241.708 119.594 241.592 119.528 241.404C119.445 241.166 119.569 240.906 119.806 240.821C120.307 240.644 120.836 240.387 121.066 240.217C120.679 239.861 119.288 238.886 118.079 238.111C117.866 237.975 117.804 237.693 117.941 237.48C118.078 237.267 118.362 237.207 118.571 237.343C121.848 239.442 121.985 239.9 122.029 240.05C122.093 240.264 122.288 240.912 120.111 241.683C120.06 241.7 120.009 241.708 119.958 241.708Z" fill="#1D1D1B"/>
<path d="M119.661 246.081C117.721 246.081 116.082 245.168 116.013 245.13C115.794 245.005 115.717 244.727 115.841 244.508C115.963 244.289 116.241 244.21 116.462 244.334C116.477 244.343 117.968 245.169 119.662 245.169C121.311 245.169 122.546 244.206 122.558 244.197C122.756 244.041 123.042 244.075 123.199 244.27C123.356 244.466 123.324 244.752 123.128 244.91C123.067 244.958 121.641 246.081 119.661 246.081Z" fill="#1D1D1B"/>
<path d="M115.31 289.518C106.565 289.518 96.8168 273.898 96.3906 273.209C96.2589 272.994 96.3244 272.713 96.5397 272.581C96.7536 272.451 97.0352 272.515 97.1677 272.73C97.2731 272.901 107.747 289.739 116.172 288.546C124.477 287.366 124.624 265.119 124.625 264.895C124.626 264.643 124.83 264.439 125.081 264.439H125.082C125.334 264.44 125.538 264.644 125.537 264.896C125.536 265.846 125.379 288.159 116.301 289.449C115.973 289.495 115.642 289.518 115.31 289.518Z" fill="#1D1D1B"/>
<path d="M126.969 323.035C126.682 323.035 126.444 323.026 126.259 323.006C124.189 322.791 116.911 313.909 106.856 301.387C101.794 295.084 97.0124 289.129 95.7972 288.303C92.7937 286.262 88.9907 286.063 88.9523 286.061C88.7008 286.05 88.5066 285.837 88.5186 285.585C88.5299 285.334 88.7279 285.134 88.9945 285.151C89.1601 285.158 93.0874 285.359 96.3099 287.548C97.6374 288.451 102.019 293.908 107.566 300.816C114.31 309.215 124.502 321.906 126.353 322.1C129.683 322.446 152.284 319.218 152.51 319.186C152.749 319.156 152.99 319.322 153.026 319.572C153.061 319.821 152.888 320.053 152.64 320.089C151.754 320.215 132.006 323.035 126.969 323.035Z" fill="#1D1D1B"/>
<path d="M115.579 343.589C113.814 343.589 112.421 343.516 111.554 343.347C104.634 342.001 86.9805 319.666 86.8194 319.443C86.6718 319.239 86.7177 318.954 86.9218 318.806C87.1258 318.66 87.4112 318.703 87.5588 318.909C88.7898 320.61 105.646 341.269 111.729 342.451C118.013 343.675 154.299 339.574 154.665 339.531C154.903 339.508 155.14 339.682 155.17 339.933C155.198 340.184 155.019 340.409 154.768 340.438C153.47 340.585 126.889 343.589 115.579 343.589Z" fill="#1D1D1B"/>
<path d="M161.919 338.824C161.676 338.824 161.475 338.634 161.464 338.389L160.495 317.004C160.483 316.753 160.678 316.539 160.929 316.529C161.193 316.502 161.393 316.712 161.405 316.963L162.374 338.347C162.385 338.599 162.191 338.812 161.939 338.823C161.933 338.824 161.925 338.824 161.919 338.824Z" fill="#1D1D1B"/>
<path d="M136.088 322.246C135.863 322.246 135.667 322.079 135.637 321.849L131.358 289.12C131.326 288.871 131.501 288.642 131.752 288.609C131.997 288.578 132.23 288.754 132.263 289.003L136.542 321.731C136.574 321.981 136.398 322.21 136.148 322.243C136.128 322.246 136.108 322.246 136.088 322.246Z" fill="#1D1D1B"/>
<path d="M139.31 359.645C139.075 359.645 138.876 359.464 138.857 359.225L137.446 341.738C137.426 341.487 137.612 341.267 137.864 341.247C138.108 341.237 138.335 341.414 138.355 341.665L139.766 359.152C139.786 359.404 139.599 359.623 139.348 359.643C139.335 359.644 139.323 359.645 139.31 359.645Z" fill="#1D1D1B"/>
<path d="M102 360.788C101.775 360.788 101.579 360.62 101.548 360.39C101.516 360.141 101.692 359.912 101.942 359.879C101.99 359.873 106.609 359.253 108.365 357.831C107.32 357.17 101.704 356.449 97.9215 355.963C94.7035 355.549 91.6647 355.159 90.2763 354.762C89.7093 354.6 89.6016 354.297 89.6114 354.071C89.6498 353.16 91.9839 352.53 104.306 350.103C109.132 349.152 115.024 347.993 116.59 347.374C114.336 346.273 101.784 343.926 90.332 342.152C90.0828 342.114 89.9126 341.881 89.9502 341.632C89.9894 341.384 90.2303 341.214 90.4705 341.251C100.457 342.797 117.276 345.632 117.736 347.248C117.803 347.48 117.726 347.72 117.53 347.888C116.749 348.557 112.063 349.506 104.481 350.999C99.5404 351.972 92.9996 353.26 91.0089 354.008C92.4959 354.347 95.1959 354.694 98.036 355.059C106.249 356.115 109.035 356.634 109.344 357.626C109.385 357.756 109.442 358.094 109.091 358.412C107.22 360.093 102.269 360.757 102.059 360.785C102.04 360.787 102.02 360.788 102 360.788Z" fill="#1D1D1B"/>
</svg>
