<svg width="118" height="51" viewBox="0 0 118 51" fill="none" xmlns="http://www.w3.org/2000/svg">
<path d="M20.0736 47.8306H24.2549C24.1891 47.2709 24.0903 46.1515 24.0903 44.9004V31.632H19.7114V41.0483C19.7114 42.9249 18.592 44.2419 16.6495 44.2419C14.6082 44.2419 13.6863 42.7932 13.6863 40.9824V31.632H9.30746V41.8714C9.30746 45.3942 11.5463 48.2586 15.4642 48.2586C17.1763 48.2586 19.0529 47.6001 19.9419 46.0856C19.9419 46.7441 20.0077 47.5014 20.0736 47.8306ZM31.1998 47.8306V45.8552C32.0558 47.238 33.7679 48.2257 36.0067 48.2257C40.6161 48.2257 43.6451 44.5711 43.6451 39.6655C43.6451 34.8586 40.9124 31.204 36.1713 31.204C33.7679 31.204 31.99 32.2576 31.2657 33.4099V23.9937H26.9526V47.8306H31.1998ZM39.2662 39.6984C39.2662 42.6615 37.4883 44.3077 35.2495 44.3077C33.0436 44.3077 31.1998 42.6286 31.1998 39.6984C31.1998 36.7352 33.0436 35.122 35.2495 35.122C37.4883 35.122 39.2662 36.7352 39.2662 39.6984ZM56.5613 47.8306H60.7426C60.6768 47.2709 60.578 46.1515 60.578 44.9004V31.632H56.1991V41.0483C56.1991 42.9249 55.0797 44.2419 53.1372 44.2419C51.0959 44.2419 50.174 42.7932 50.174 40.9824V31.632H45.7952V41.8714C45.7952 45.3942 48.034 48.2586 51.9519 48.2586C53.664 48.2586 55.5406 47.6001 56.4296 46.0856C56.4296 46.7441 56.4954 47.5014 56.5613 47.8306ZM67.8192 38.5131C67.8192 36.6365 68.9386 35.1549 70.8482 35.1549C72.9553 35.1549 73.8443 36.5706 73.8443 38.3814V47.8306H78.2232V37.6242C78.2232 34.0684 76.3794 31.204 72.3627 31.204C70.6177 31.204 68.6752 31.9613 67.6875 33.6404V31.632H63.4403V47.8306H67.8192V38.5131ZM86.5853 26.7922H82.6345V29.064C82.6345 30.5126 81.8443 31.632 80.1322 31.632H79.3091V35.517H82.2394V43.0566C82.2394 46.1844 84.2148 48.0611 87.3755 48.0611C88.6595 48.0611 89.4497 47.8306 89.8448 47.666V44.0443C89.6143 44.1102 89.0217 44.176 88.4949 44.176C87.2438 44.176 86.5853 43.7151 86.5853 42.2994V35.517H89.8448V31.632H86.5853V26.7922ZM103.082 47.8306H107.263C107.197 47.2709 107.098 46.1515 107.098 44.9004V31.632H102.72V41.0483C102.72 42.9249 101.6 44.2419 99.6577 44.2419C97.6164 44.2419 96.6945 42.7932 96.6945 40.9824V31.632H92.3156V41.8714C92.3156 45.3942 94.5545 48.2586 98.4724 48.2586C100.184 48.2586 102.061 47.6001 102.95 46.0856C102.95 46.7441 103.016 47.5014 103.082 47.8306Z" fill="#4C1D95"/>
<path d="M90.535 19.9846C90.4266 19.9905 90.318 19.9905 90.2096 19.9846C89.3876 19.8518 88.6358 19.4407 88.0796 18.8199C87.673 18.3989 87.3117 17.9363 87.0016 17.4396C84.3689 12.8796 81.7537 8.30886 79.1559 3.72746C78.9557 3.38013 78.8041 3.00681 78.7055 2.61803C78.4353 1.51733 79.6238 0.396248 80.7164 0.693262C81.2347 0.871992 81.6921 1.19402 82.0356 1.62216C84.2614 3.95168 86.4892 6.2812 88.7189 8.61073C89.0598 8.9574 89.4324 9.27132 89.8318 9.54836C90.0727 9.72695 90.3634 9.82551 90.663 9.83021C90.9627 9.83491 91.2563 9.74552 91.5026 9.57457C91.8173 9.38021 92.1097 9.1517 92.3744 8.89318C94.391 6.88688 96.3931 4.86893 98.401 2.85681C98.8746 2.38216 99.3366 1.89297 99.8539 1.46492C100.644 0.806825 101.551 0.833033 102.373 1.46492C102.776 1.77574 103.057 2.21754 103.169 2.71412V3.11597C103.052 3.5187 102.895 3.90884 102.702 4.28073C99.6737 8.98054 96.6343 13.6745 93.5832 18.3627C93.063 19.0579 92.3431 19.5771 91.5201 19.8507C91.1991 19.9287 90.871 19.9736 90.5408 19.9846" fill="#B75AFF"/>
<path d="M94.7867 3.58103C94.7709 4.52494 94.4174 5.42371 93.8033 6.08149C93.1891 6.73927 92.3641 7.10274 91.5079 7.09269C89.7966 7.10998 88.3571 5.4737 88.3388 3.49173C88.3429 2.56214 88.6815 1.67236 89.2801 1.01774C89.8786 0.363118 90.6884 -0.00283331 91.5314 0.000230812C91.9596 -0.00515383 92.3845 0.0837253 92.7811 0.261662C93.1778 0.439599 93.5382 0.703017 93.8414 1.03649C94.1445 1.36996 94.3843 1.76678 94.5466 2.2037C94.709 2.64063 94.7906 3.10888 94.7867 3.58103Z" fill="#B75AFF"/>
<path d="M80.4131 20.9945C80.3875 21.063 80.3647 21.1553 80.3305 21.2269C80.0161 21.7783 79.5293 22.1993 78.9526 22.4186C78.5592 22.5868 78.1498 22.7107 77.7313 22.7881C73.9201 23.3542 70.1166 23.9153 66.3207 24.4714C66.0307 24.5132 65.7366 24.5132 65.4466 24.4714C64.6296 24.3523 64.194 23.1873 64.6922 22.4961C64.954 22.1804 65.2953 21.9481 65.6772 21.8257C67.8637 20.9051 70.0502 19.9934 72.2252 19.0638C72.5535 18.9224 72.8673 18.7467 73.1619 18.5394C73.351 18.4186 73.4985 18.2381 73.5834 18.024C73.6684 17.8099 73.6862 17.5731 73.6345 17.3476C73.5906 17.0659 73.5171 16.7901 73.4153 16.5253C72.6039 14.5261 71.7811 12.5299 70.9669 10.5337C70.7733 10.063 70.5655 9.5952 70.4174 9.10955C70.3024 8.77639 70.3078 8.41068 70.4326 8.08138C70.5574 7.75208 70.793 7.48194 71.095 7.3219C71.4156 7.12679 71.7906 7.05315 72.1569 7.11334L72.4416 7.22656C72.6794 7.42385 72.8978 7.64542 73.0936 7.88799C75.4546 11.3699 77.8062 14.8598 80.1483 18.3577C80.478 18.9249 80.634 19.584 80.5953 20.2466C80.5594 20.4964 80.5003 20.7419 80.4188 20.9796" fill="#FF7744"/>
<path d="M70.4288 13.7346C70.7809 13.8646 71.1008 14.055 71.3701 14.2949C71.6395 14.5348 71.853 14.8195 71.9986 15.1328C72.1442 15.446 72.2189 15.7817 72.2186 16.1207C72.2182 16.4597 72.1428 16.7952 71.9965 17.1083C71.8503 17.4213 71.6362 17.7057 71.3663 17.9451C71.0965 18.1846 70.7763 18.3745 70.4239 18.5039C70.0715 18.6333 69.6939 18.6998 69.3127 18.6995C68.9314 18.6991 68.554 18.6321 68.2019 18.5021C67.4984 18.2476 66.9372 17.7553 66.6415 17.1333C66.3458 16.5113 66.3398 15.8104 66.6247 15.1844C66.7644 14.8651 66.9742 14.5737 67.242 14.3273C67.5098 14.0809 67.8302 13.8845 68.1844 13.7495C68.5386 13.6145 68.9196 13.5436 69.3049 13.5411C69.6903 13.5385 70.0724 13.6043 70.4288 13.7346Z" fill="#FF7744"/>
<path d="M102.057 20.704C102.019 20.6312 101.986 20.5564 101.957 20.4798C101.81 19.8652 101.874 19.2173 102.137 18.6454C102.303 18.2404 102.509 17.854 102.751 17.4923C105.057 14.3013 107.374 11.1192 109.703 7.94586C109.88 7.70392 110.087 7.48766 110.32 7.30294C110.983 6.78684 112.081 7.2823 112.198 8.13166C112.223 8.54072 112.138 8.94889 111.952 9.31133C111.026 11.5556 110.091 13.797 109.171 16.0472C109.035 16.3873 108.931 16.7398 108.86 17.1001C108.808 17.3223 108.825 17.5557 108.908 17.7673C108.992 17.979 109.138 18.1582 109.325 18.2797C109.549 18.4435 109.788 18.5819 110.04 18.6926C111.97 19.4968 113.904 20.297 115.842 21.0933C116.297 21.282 116.76 21.456 117.197 21.6831C117.506 21.8316 117.752 22.0921 117.887 22.4152C118.021 22.7382 118.037 23.1011 117.929 23.4349C117.835 23.8071 117.619 24.1342 117.317 24.3609L117.049 24.4818C116.745 24.5097 116.44 24.5097 116.137 24.4818C112.099 23.7721 108.061 23.0505 104.023 22.3172C103.405 22.1627 102.848 21.8157 102.428 21.3233C102.282 21.1248 102.157 20.9102 102.057 20.6833" fill="#02B784"/>
<path d="M114.325 18.4109C113.978 18.5821 113.6 18.6793 113.214 18.6966C112.829 18.714 112.444 18.651 112.083 18.5117C111.722 18.3724 111.394 18.1596 111.117 17.8865C110.841 17.6134 110.622 17.2858 110.475 16.9238C110.328 16.5618 110.256 16.1731 110.263 15.7817C110.27 15.3903 110.355 15.0044 110.515 14.6479C110.674 14.2913 110.904 13.9717 111.189 13.7086C111.475 13.4455 111.811 13.2446 112.176 13.1182C112.857 12.8272 113.624 12.8221 114.308 13.104C114.992 13.386 115.538 13.9319 115.826 14.6219C115.977 14.9702 116.059 15.3455 116.065 15.7261C116.072 16.1066 116.003 16.4846 115.864 16.838C115.725 17.1915 115.518 17.5132 115.255 17.7843C114.991 18.0555 114.677 18.2706 114.331 18.4171" fill="#02B784"/>
<path d="M88.0401 18.9407C88.5761 19.4974 89.3007 19.866 90.0929 19.9851C90.1974 19.9904 90.3021 19.9904 90.4066 19.9851C90.7248 19.9752 91.041 19.935 91.3504 19.865C92.1436 19.6197 92.8375 19.1542 93.3388 18.5308C94.6813 16.6056 96.0237 14.6805 97.3661 12.7553C93.0003 11.2929 88.2369 11.2249 83.8251 12.5621C84.8875 14.2767 85.9489 15.9903 87.0094 17.7031C87.3062 18.1453 87.6516 18.5575 88.0401 18.9329" fill="#BC66FF"/>
<path d="M78.9493 22.4663C79.5295 22.2426 80.0188 21.8132 80.3343 21.2509C80.3674 21.1738 80.3962 21.0947 80.4203 21.0139C80.5029 20.7718 80.5615 20.5213 80.5952 20.2664C80.6342 19.592 80.4782 18.9211 80.1479 18.3431C79.3698 17.1702 78.5908 15.9994 77.8109 14.8306C74.8471 17.1897 72.4824 20.2916 70.929 23.8579C73.1904 23.5176 75.4529 23.1743 77.7163 22.8279C78.1377 22.7485 78.55 22.6222 78.9464 22.4511" fill="#FF885B"/>
<path d="M102.146 18.9773C101.873 19.5393 101.807 20.1756 101.961 20.7789C101.985 20.8542 102.036 20.9324 102.063 20.9991C102.17 21.2207 102.3 21.4313 102.451 21.6276C102.891 22.1113 103.473 22.4521 104.119 22.6037L111.552 23.8579C109.967 20.5652 107.59 17.6903 104.621 15.4754C104.008 16.2652 103.398 17.055 102.791 17.8448C102.536 18.1992 102.319 18.5789 102.146 18.9773Z" fill="#00CA91"/>
</svg>
