<svg width="83" height="83" viewBox="0 0 83 83" fill="none" xmlns="http://www.w3.org/2000/svg">
<path d="M3.87677 25.954C7.19301 17.9755 12.9499 11.2517 20.3225 6.7462C27.695 2.2407 36.3047 0.184843 44.9174 0.873281C53.5302 1.56172 61.704 4.95912 68.2672 10.5785C74.8304 16.198 79.4462 23.7509 81.4529 32.1549C83.4597 40.5589 82.7544 49.3824 79.4381 57.3609C76.1219 65.3394 70.365 72.0633 62.9924 76.5688C55.6199 81.0743 47.0103 83.1301 38.3975 82.4417C29.7847 81.7532 21.611 78.3558 15.0477 72.7364C8.48451 67.117 3.86874 59.564 1.86199 51.1601C-0.144757 42.7561 0.560531 33.9325 3.87677 25.954Z" fill="#EC4899"/>
</svg>
