<svg width="83" height="41" viewBox="0 0 83 41" fill="none" xmlns="http://www.w3.org/2000/svg">
<path d="M3.87677 25.3803C7.19301 17.4018 12.9499 10.678 20.3225 6.17247C27.695 1.66697 36.3047 -0.388888 44.9174 0.299551C53.5302 0.987993 61.704 4.38539 68.2672 10.0048C74.8304 15.6242 79.4462 23.1772 81.4529 31.5812C83.4597 39.9851 82.7544 48.8087 79.4381 56.7872C76.1219 64.7657 70.365 71.4895 62.9924 75.995C55.6199 80.5005 47.0103 82.5564 38.3975 81.868C29.7847 81.1795 21.611 77.7821 15.0477 72.1627C8.48451 66.5433 3.86874 58.9903 1.86199 50.5863C-0.144757 42.1824 0.560531 33.3588 3.87677 25.3803Z" fill="#EC4899"/>
</svg>
