<svg width="38" height="39" viewBox="0 0 38 39" fill="none" xmlns="http://www.w3.org/2000/svg">
<path d="M22.9039 0.828152C22.8879 0.844151 22.7639 0.87215 22.6279 0.884151C22.3679 0.916149 21.7639 1.05215 21.6079 1.12015C21.5559 1.14415 21.4799 1.24015 21.4319 1.34415C21.2919 1.66815 21.3679 1.96415 21.7919 2.74015C22.0719 3.25615 22.1839 3.40015 22.4359 3.56815C22.5359 3.64015 22.6999 3.76015 22.7999 3.84415C22.9959 4.00415 23.5879 4.37615 24.8199 5.10015C26.8399 6.29215 29.0199 7.63615 28.9879 7.66415C28.9759 7.67615 28.6679 7.62015 28.2959 7.54415C27.0599 7.29215 26.1639 7.15615 24.7599 7.01215C23.8839 6.92415 21.3759 6.91215 20.5999 6.99215C19.8719 7.06815 18.2439 7.30415 17.4879 7.44415C15.7039 7.77215 12.7759 8.56015 11.4399 9.06815C8.79195 10.0761 6.86795 11.6441 4.93195 14.3801C3.71596 16.0961 2.91196 17.9562 2.29996 20.4562C1.61196 23.2761 1.26796 25.4482 1.03996 28.4202C0.863959 30.7402 0.863959 32.1882 1.03996 33.5082C1.15596 34.3722 1.24796 34.8442 1.51996 35.9002C1.65196 36.4042 1.79196 36.9922 1.83596 37.2042C1.92396 37.6482 2.06396 37.9522 2.24796 38.0962C2.36396 38.1842 2.38796 38.1922 2.45996 38.1442C2.56796 38.0722 2.66396 37.8922 2.76396 37.5562C2.84396 37.2962 2.84796 37.2122 2.82796 36.5442C2.81596 36.1482 2.76796 35.5402 2.72396 35.2002C2.46796 33.2242 2.51196 31.7282 2.89996 29.3802C3.25196 27.2522 3.58396 25.8442 4.37995 23.1202C5.20395 20.3001 5.39995 19.7281 5.81995 18.9321C6.35995 17.9081 7.28395 16.6481 8.39195 15.4282C9.61595 14.0801 11.1039 13.0521 12.8239 12.3681C13.9359 11.9241 16.4079 11.2321 18.0599 10.9001C19.8559 10.5401 20.9559 10.4281 22.6599 10.4241C25.0439 10.4201 27.3119 10.6601 30.0999 11.2001C30.9039 11.3561 32.1279 11.6402 32.1719 11.6761C32.1879 11.6921 31.6199 11.8841 30.9119 12.1001C27.7119 13.0681 26.7199 13.4441 25.9239 13.9761C24.8319 14.7041 23.6399 15.9562 23.1759 16.8601C22.9119 17.3721 22.8599 17.5361 22.9199 17.6801C22.9959 17.8641 23.1799 17.9002 24.0199 17.8961C24.8079 17.8921 25.3919 17.8242 26.3399 17.6362C27.4639 17.4161 27.9519 17.2561 28.9519 16.8041C29.1959 16.6922 30.2239 16.2481 31.2319 15.8201C33.2039 14.9761 34.7079 14.2521 35.4399 13.7961C35.9959 13.4481 36.5239 13.0441 36.6519 12.8681C36.7839 12.6922 37.1199 12.0041 37.1199 11.9121C37.1199 11.8721 37.1439 11.7961 37.1759 11.7481C37.3079 11.5441 37.4159 10.8441 37.3639 10.5681C37.3159 10.3321 37.1879 10.2121 36.5799 9.82815C35.5159 9.16415 34.6959 8.58015 34.1599 8.10015C33.2479 7.28815 32.9799 7.06415 31.8039 6.12015C30.2399 4.86815 26.8519 2.63615 25.1559 1.74415C23.9679 1.12015 23.2719 0.800152 23.0999 0.800152C23.0079 0.800152 22.9199 0.812149 22.9039 0.828152Z" fill="#34D399"/>
</svg>
