<svg width="40" height="34" viewBox="0 0 40 34" fill="none" xmlns="http://www.w3.org/2000/svg">
<path d="M27.1997 0.364185C26.2317 0.436188 24.9037 0.772186 23.9397 1.18019C22.7557 1.68419 21.0077 2.76819 19.9437 3.65619C18.8317 4.58819 17.9397 5.43619 16.8397 6.60819C15.3317 8.20819 14.8477 8.91219 13.5798 11.3202C13.3398 11.7722 13.0478 12.3282 12.9278 12.5522L12.7118 12.9682L12.5718 12.7162C11.9998 11.6842 11.3638 11.1562 10.0678 10.6442C9.45575 10.4002 8.63176 10.3122 8.12376 10.4362C7.96776 10.4762 7.75976 10.4842 7.35176 10.4642C5.39576 10.3642 4.16776 10.5002 3.29176 10.9162C2.34376 11.3722 2.21976 11.7402 1.47976 16.3602C1.32376 17.3402 1.12776 18.5522 1.03976 19.0602C0.599764 21.6362 0.467765 23.5522 0.555764 26.1002C0.611764 27.7802 0.683764 28.4602 0.899764 29.3802C1.07976 30.1362 1.35976 30.7802 1.77176 31.3722C1.95176 31.6322 2.43176 32.0322 2.76376 32.2002C3.54776 32.6002 5.43576 33.0562 6.99976 33.2162C8.50376 33.3762 9.18375 33.3922 10.4558 33.3002C11.8678 33.1962 12.2278 33.0962 12.6118 32.7122C12.8438 32.4802 13.1798 31.8642 13.3798 31.3082C13.4398 31.1402 13.5037 31.0002 13.5157 31.0002C13.5317 31.0002 13.6158 31.0362 13.7037 31.0762C14.0037 31.2202 14.5477 31.3922 14.8397 31.4362C15.2157 31.4922 16.7237 31.6202 17.9797 31.7002C20.7797 31.8842 27.4157 31.8842 29.9597 31.7002C32.1037 31.5442 33.9677 31.2362 34.8197 30.9002C35.6717 30.5602 36.5117 29.8802 37.0317 29.1122C37.3037 28.7082 37.7157 27.9082 37.9317 27.3522C38.4797 25.9642 38.7357 24.9522 39.0997 22.7602C39.3677 21.1162 39.4957 20.1442 39.5997 18.9202C39.8197 16.2842 39.8037 14.9802 39.5357 14.0802C39.3837 13.5682 39.0357 13.0682 38.6077 12.7522C38.3397 12.5522 37.3197 12.0442 36.9597 11.9282C36.0797 11.6442 34.7477 11.4882 32.9357 11.4522C31.6797 11.4282 31.1197 11.4602 29.6997 11.6442C28.5357 11.7962 27.7597 11.8402 27.7597 11.7522C27.7597 11.6362 28.0557 10.7562 28.5837 9.30819C29.2677 7.43619 29.4037 7.01619 29.5997 6.22419C29.9317 4.87219 30.0597 3.87619 30.0277 2.87219C29.9917 1.59619 29.7517 1.12019 28.9357 0.692188C28.3157 0.372189 27.9677 0.304188 27.1997 0.364185ZM28.0397 2.62019C28.1437 2.68419 28.0117 3.79219 27.7797 4.80819C27.5997 5.59219 27.4077 6.21219 27.0037 7.35219C26.2797 9.38819 25.8357 10.8522 25.6997 11.6722C25.6117 12.1842 25.6517 12.4442 25.8877 12.8802C25.9757 13.0442 26.0997 13.2842 26.1677 13.4122C26.2357 13.5402 26.3637 13.7082 26.4557 13.7842C27.0557 14.2882 27.1597 14.3322 27.9037 14.4042C28.3837 14.4522 28.7677 14.4362 29.9997 14.3162C31.7357 14.1522 32.3317 14.1682 34.4837 14.4202C35.9917 14.6002 36.4757 14.7042 37.0917 14.9762L37.3077 15.0722L37.3317 15.3202C37.4957 16.8682 36.9597 22.3842 36.4437 24.5042C36.2877 25.1322 36.0077 25.9842 35.8277 26.3642C35.6077 26.8202 35.2477 27.3482 34.9317 27.6642C34.6277 27.9722 34.1037 28.3402 33.7477 28.4962C33.3557 28.6722 32.5037 28.8002 30.7997 28.9362C29.1077 29.0762 26.3837 29.1442 20.3997 29.2002C16.4157 29.2402 15.8077 29.2642 14.8197 29.4202C14.5997 29.4562 14.2797 29.5202 14.1037 29.5642C13.9317 29.6082 13.7837 29.6362 13.7717 29.6242C13.7638 29.6162 13.7917 29.2522 13.8357 28.8122C14.0797 26.4722 14.0877 24.6962 13.8797 21.9882C13.8357 21.4322 13.7557 20.3242 13.6997 19.5202C13.5798 17.7962 13.4678 16.5362 13.3558 15.6802C13.3118 15.3402 13.2678 14.9762 13.2517 14.8762C13.2318 14.7082 13.2398 14.6802 13.3278 14.6242C13.4478 14.5442 14.6237 13.2922 14.9437 12.9002C15.0677 12.7442 15.3277 12.4122 15.5197 12.1602C17.1117 10.0762 19.9077 7.19219 22.0797 5.39619C24.0477 3.76419 25.8397 2.78419 27.2197 2.58419C27.3957 2.56019 27.9837 2.58419 28.0397 2.62019ZM8.31976 12.0002L9.17976 12.0402L9.33575 12.2122C9.41975 12.3042 9.77575 12.7202 10.1238 13.1402C10.7118 13.8442 10.7678 13.9242 10.8838 14.2402C11.1918 15.0922 11.4678 16.7522 11.7038 19.1202C11.7598 19.6802 11.8758 20.8602 11.9598 21.7402C12.1878 24.0202 12.1958 24.1162 12.2398 25.1922C12.2878 26.3282 12.2478 27.3562 12.0958 29.0002C11.9638 30.4762 11.8838 30.8402 11.6158 31.1882C11.4118 31.4562 11.3878 31.4602 10.1198 31.4562C9.13175 31.4562 8.81976 31.4362 7.75976 31.3242C6.21976 31.1642 5.55176 31.0722 4.69976 30.9002C3.75976 30.7082 3.27576 30.5522 3.07976 30.3762C2.62376 29.9642 2.47976 29.0642 2.47976 26.6602C2.47976 23.9162 2.57576 22.6242 2.97976 19.8402C3.16776 18.5602 3.24376 17.9002 3.47976 15.6602C3.75976 12.9682 3.81576 12.5602 3.92776 12.4642C4.19976 12.2442 4.71176 12.0682 5.27976 12.0042C5.71176 11.9562 7.31976 11.9522 8.31976 12.0002Z" fill="#34D399"/>
</svg>
