<svg width="52" height="49" viewBox="0 0 52 49" fill="none" xmlns="http://www.w3.org/2000/svg">
<path d="M51.5998 0.274685C51.3491 0.381351 49.8291 1.62935 47.9998 3.23469C47.5145 3.66135 47.1091 4.02402 47.0931 4.04002C47.0771 4.05602 46.8265 4.28535 46.5331 4.54668C45.6798 5.30402 43.5358 7.34135 43.0131 7.89069C42.5278 8.39735 41.7278 9.30402 40.2131 11.0534C39.7598 11.5814 39.2798 12.1307 39.1465 12.28C39.0131 12.4294 38.6291 12.872 38.2931 13.2667C37.9571 13.656 37.4185 14.28 37.0931 14.648C33.9945 18.2054 32.2985 20.248 30.4211 22.68C28.4051 25.2934 25.6638 28.936 24.4105 30.6694C21.1038 35.2347 20.9918 35.4054 18.1171 40.1734C17.8505 40.6107 17.5251 41.1494 17.3865 41.3627L17.1411 41.7467L16.6078 40.9094C15.9838 39.9334 14.5545 37.6027 12.8265 34.76C11.2371 32.1467 10.8638 31.5547 9.89313 30.12C8.24513 27.6827 7.02913 25.992 5.52513 24.0667C3.73846 21.7734 3.38113 21.3894 2.6558 21.0267C2.08513 20.744 2.04246 20.7387 1.24246 20.92C0.927798 20.9947 0.874464 21.3254 1.10913 21.7894C1.26913 22.12 1.76513 22.6534 1.90913 22.6534C2.0158 22.6534 2.04246 22.696 2.8638 24.0614C3.20513 24.616 3.9038 25.752 4.42646 26.5734C6.0318 29.1227 7.4878 31.5974 8.5118 33.5334C9.0398 34.5414 12.2878 41.0587 14.0265 44.6C14.4265 45.4214 14.8638 46.2747 14.9918 46.4934C15.1198 46.712 15.3118 47.0587 15.4131 47.2614C15.6318 47.688 15.9251 48.04 16.2025 48.2054C16.3091 48.2747 16.5331 48.4454 16.6931 48.584C17.0451 48.8987 17.2158 48.952 17.5838 48.8667C17.9945 48.7707 18.3998 48.504 19.0078 47.9227C19.9038 47.0747 20.5171 46.2267 22.5865 42.9734C24.6025 39.8 25.5091 38.52 29.4291 33.2934C33.2478 28.2054 34.9651 26.0294 37.7171 22.776C40.7678 19.1707 41.7171 17.992 43.8558 15.1387C45.9305 12.376 46.8371 11 48.4265 8.19469C49.3011 6.65335 50.7305 3.77335 51.1358 2.76002C51.4665 1.90668 51.8505 0.786686 51.9091 0.482685C51.9518 0.258686 51.8291 0.178684 51.5998 0.274685Z" fill="black"/>
</svg>
