<svg width="34" height="33" viewBox="0 0 34 33" fill="none" xmlns="http://www.w3.org/2000/svg">
<path d="M24.0196 0.624081C22.7516 0.71608 21.7316 0.880081 20.5876 1.16408C19.1116 1.53608 18.0356 1.94008 16.3596 2.75208C13.9876 3.90408 12.2476 5.06408 10.8036 6.45608C9.09163 8.11208 7.21163 10.8801 6.31963 13.0721C6.13163 13.5241 6.08763 13.6081 5.99963 13.6281C5.15563 13.8281 4.36363 14.1161 3.49963 14.5481C2.24363 15.1721 1.09563 15.9081 0.595633 16.4001C0.299633 16.7001 0.251633 16.8001 0.359633 16.9321C0.431633 17.0161 0.455633 17.0201 1.29963 17.0361C2.41963 17.0521 3.73963 16.9521 4.93163 16.7641L5.36363 16.6921L5.33163 16.9361C5.31563 17.0721 5.29963 17.5841 5.30363 18.0801C5.31163 19.3241 5.46763 20.3281 5.84363 21.5081C5.93163 21.7841 5.99963 22.0121 5.99163 22.0201C5.98363 22.0281 5.74763 22.1161 5.45963 22.2201C4.19563 22.6761 3.86763 22.8441 3.24763 23.3401C2.29963 24.1041 1.63563 24.9481 1.69563 25.3161C1.72363 25.5001 1.93163 25.6881 2.23563 25.8041C2.90763 26.0601 3.82763 26.2041 4.77963 26.2041C5.57563 26.2081 5.73963 26.1761 6.96763 25.7641L7.91163 25.4481L8.29563 25.9001C9.00763 26.7441 10.1476 27.7201 11.3796 28.5401C13.7516 30.1201 17.2436 31.4761 20.5356 32.1001C22.1596 32.4041 23.5516 32.5561 25.0796 32.5881C25.9636 32.6041 26.2836 32.5961 26.7116 32.5441C28.8356 32.2841 31.2276 31.5161 32.4636 30.6961C32.8676 30.4321 33.3876 29.9401 33.4236 29.7921C33.4636 29.6121 33.4236 29.5721 33.1316 29.5241C32.9836 29.4961 32.2756 29.3441 31.5596 29.1801C28.5036 28.4881 27.3556 28.3161 25.2316 28.2201C23.3516 28.1361 22.1916 28.0321 20.6196 27.8161C17.3596 27.3641 14.1676 26.3561 12.3596 25.2161C11.8956 24.9201 11.1076 24.3601 11.1276 24.3361C11.1356 24.3321 11.4636 24.2121 11.8596 24.0681C12.2556 23.9241 13.3796 23.5161 14.3596 23.1601C18.9516 21.4921 19.9836 21.1201 21.1396 20.7201C25.1756 19.3161 25.7916 19.0721 26.1276 18.7441C26.2676 18.6081 26.4396 18.2121 26.4396 18.0321C26.4396 17.9521 26.4076 17.9081 26.3116 17.8641C26.1516 17.7801 26.0516 17.7841 25.3156 17.8801C23.8156 18.0801 22.1076 18.3881 18.4596 19.1161C17.2516 19.3601 15.6196 19.6761 14.8396 19.8201C12.5476 20.2441 10.4676 20.7121 8.82763 21.1761L8.47963 21.2721L8.37963 21.1081C8.23563 20.8601 7.90363 20.0681 7.78363 19.6801C7.49963 18.7841 7.39163 18.0641 7.39563 17.1201C7.39963 16.7121 7.41163 16.3081 7.43163 16.2241L7.45963 16.0641L8.33963 15.7761C9.62763 15.3481 10.8236 14.9841 12.9596 14.3601C14.0036 14.0561 15.2756 13.6801 15.7796 13.5281C23.0996 11.3161 24.3756 10.9161 24.7956 10.7001C24.9076 10.6441 25.0316 10.6001 25.0716 10.6001C25.1236 10.6001 25.1676 10.5481 25.2156 10.4321C25.2716 10.2881 25.2716 10.2561 25.2236 10.2081C25.1396 10.1241 24.3676 10.2201 22.1116 10.6001C21.0716 10.7761 19.6276 11.0081 18.8996 11.1161C16.9356 11.4121 14.1596 11.8881 11.3796 12.4041C10.4036 12.5881 8.53563 12.9721 8.40763 13.0201C8.25563 13.0761 9.46763 11.0361 10.2156 9.98008C11.2956 8.46408 12.5796 7.14408 14.0276 6.07208C15.6636 4.86008 18.3276 3.34808 19.9796 2.70008C21.4276 2.12808 23.1116 1.71608 24.6996 1.54408C25.9196 1.41208 28.4156 1.32008 28.6596 1.40008C28.7956 1.44408 28.8196 1.44408 28.8676 1.37608C28.8996 1.33208 28.9196 1.25608 28.9116 1.20408C28.8996 1.12008 28.8516 1.09608 28.4996 0.99608C27.7076 0.772079 26.5556 0.644081 25.1796 0.624081C24.6516 0.616081 24.1316 0.616081 24.0196 0.624081Z" fill="#34D399"/>
</svg>
