<svg width="118" height="59" viewBox="0 0 118 59" fill="none" xmlns="http://www.w3.org/2000/svg">
<path d="M14.2169 53.8274H18.7716C18.6999 53.2177 18.5923 51.9984 18.5923 50.6355V36.1825H13.8225V46.4395C13.8225 48.4837 12.6031 49.9183 10.4871 49.9183C8.2636 49.9183 7.25942 48.3403 7.25942 46.3678V36.1825H2.48956V47.3361C2.48956 51.1735 4.92828 54.2936 9.19605 54.2936C11.061 54.2936 13.1052 53.5763 14.0735 51.9266C14.0735 52.6439 14.1452 53.4688 14.2169 53.8274ZM26.3366 53.8274V51.6756C27.269 53.1818 29.134 54.2578 31.5727 54.2578C36.5936 54.2578 39.893 50.2769 39.893 44.9332C39.893 39.6971 36.9164 35.7163 31.752 35.7163C29.134 35.7163 27.1973 36.8639 26.4083 38.1191V27.8622H21.7102V53.8274H26.3366ZM35.1232 44.9691C35.1232 48.1968 33.1865 49.99 30.7478 49.99C28.345 49.99 26.3366 48.1609 26.3366 44.9691C26.3366 41.7414 28.345 39.9841 30.7478 39.9841C33.1865 39.9841 35.1232 41.7414 35.1232 44.9691ZM53.9625 53.8274H58.5171C58.4454 53.2177 58.3378 51.9984 58.3378 50.6355V36.1825H53.568V46.4395C53.568 48.4837 52.3486 49.9183 50.2327 49.9183C48.0091 49.9183 47.0049 48.3403 47.0049 46.3678V36.1825H42.2351V47.3361C42.2351 51.1735 44.6738 54.2936 48.9416 54.2936C50.8065 54.2936 52.8507 53.5763 53.819 51.9266C53.819 52.6439 53.8907 53.4688 53.9625 53.8274ZM66.2256 43.678C66.2256 41.6338 67.4449 40.0199 69.525 40.0199C71.8203 40.0199 72.7886 41.5621 72.7886 43.5345V53.8274H77.5585V42.7097C77.5585 38.8364 75.5501 35.7163 71.1747 35.7163C69.274 35.7163 67.158 36.5412 66.0821 38.3702V36.1825H61.4557V53.8274H66.2256V43.678ZM86.6673 30.9106H82.3636V33.3852C82.3636 34.9632 81.5029 36.1825 79.638 36.1825H78.7414V40.4144H81.9333V48.6272C81.9333 52.0342 84.0851 54.0784 87.528 54.0784C88.9267 54.0784 89.7874 53.8274 90.2177 53.6481V49.7031C89.9667 49.7748 89.3212 49.8465 88.7473 49.8465C87.3845 49.8465 86.6673 49.3444 86.6673 47.8023V40.4144H90.2177V36.1825H86.6673V30.9106ZM104.637 53.8274H109.191C109.12 53.2177 109.012 51.9984 109.012 50.6355V36.1825H104.242V46.4395C104.242 48.4837 103.023 49.9183 100.907 49.9183C98.6832 49.9183 97.679 48.3403 97.679 46.3678V36.1825H92.9092V47.3361C92.9092 51.1735 95.3479 54.2936 99.6157 54.2936C101.481 54.2936 103.525 53.5763 104.493 51.9266C104.493 52.6439 104.565 53.4688 104.637 53.8274Z" fill="#4C1D95"/>
<path d="M88.0827 22.1201C87.9646 22.1266 87.8463 22.1266 87.7282 22.1201C86.8328 21.9755 86.0139 21.5277 85.4081 20.8514C84.9652 20.3928 84.5716 19.8889 84.2338 19.3479C81.3661 14.3807 78.5174 9.4019 75.6876 4.41145C75.4695 4.03311 75.3044 3.62646 75.197 3.20296C74.9027 2.00399 76.1972 0.782807 77.3874 1.10634C77.952 1.30103 78.4502 1.65181 78.8244 2.11817C81.249 4.65569 83.6756 7.1932 86.1044 9.73072C86.4758 10.1084 86.8817 10.4503 87.3167 10.7521C87.5791 10.9466 87.8957 11.054 88.2221 11.0591C88.5485 11.0642 88.8683 10.9668 89.1367 10.7806C89.4795 10.5689 89.7979 10.32 90.0863 10.0384C92.283 7.85296 94.4638 5.65484 96.651 3.46306C97.1669 2.94604 97.6702 2.41316 98.2336 1.94689C99.0945 1.23004 100.082 1.25859 100.978 1.94689C101.416 2.28547 101.723 2.76671 101.845 3.30764V3.74536C101.717 4.18405 101.547 4.60902 101.336 5.01412C98.0374 10.1336 94.7265 15.2466 91.403 20.3534C90.8364 21.1107 90.0522 21.6763 89.1557 21.9742C88.8061 22.0593 88.4486 22.1082 88.089 22.1201" fill="#6C49A5"/>
<path d="M92.0117 3.89732C91.9945 4.83204 91.6094 5.72205 90.9404 6.37342C90.2714 7.02479 89.3727 7.38472 88.4401 7.37477C86.576 7.39189 85.008 5.77155 84.988 3.80888C84.9926 2.88835 85.3613 2.00723 86.0133 1.35899C86.6654 0.710747 87.5474 0.34836 88.4657 0.351394C88.9321 0.346062 89.3949 0.434076 89.827 0.61028C90.2591 0.786483 90.6517 1.04734 90.9819 1.37756C91.3122 1.70778 91.5733 2.10073 91.7502 2.53341C91.927 2.96608 92.0159 3.42977 92.0117 3.89732" fill="#6C49A5"/>
<path d="M77.0572 23.2202C77.0292 23.2948 77.0044 23.3954 76.9672 23.4733C76.6247 24.074 76.0945 24.5325 75.4663 24.7715C75.0377 24.9547 74.5917 25.0896 74.1359 25.1739C69.9845 25.7906 65.8413 26.4018 61.7065 27.0076C61.3906 27.053 61.0703 27.053 60.7544 27.0076C59.8644 26.8778 59.3899 25.6088 59.9326 24.8559C60.2177 24.512 60.5896 24.2589 61.0056 24.1256C63.3873 23.1228 65.769 22.1297 68.1382 21.1171C68.4958 20.9631 68.8376 20.7717 69.1585 20.5459C69.3645 20.4143 69.5252 20.2177 69.6177 19.9845C69.7102 19.7512 69.7297 19.4933 69.6733 19.2477C69.6255 18.9409 69.5454 18.6405 69.4345 18.352C68.5507 16.1743 67.6545 13.9999 66.7675 11.8254C66.5567 11.3127 66.3303 10.8031 66.169 10.2741C66.0437 9.91119 66.0495 9.51283 66.1855 9.15413C66.3215 8.79543 66.5781 8.50118 66.9071 8.32685C67.2563 8.11432 67.6647 8.03409 68.0638 8.09967L68.3739 8.22299C68.6329 8.4379 68.8708 8.67925 69.0841 8.94348C71.656 12.7363 74.2175 16.5378 76.7687 20.348C77.1278 20.9658 77.2977 21.6838 77.2556 22.4056C77.2166 22.6776 77.1522 22.945 77.0634 23.2039" fill="#C2433A"/>
<path d="M65.4791 15.3384C65.8626 15.4977 66.211 15.731 66.5044 16.025C66.7978 16.319 67.0304 16.6679 67.189 17.0518C67.3476 17.4357 67.429 17.8471 67.4286 18.2625C67.4282 18.6778 67.346 19.0891 67.1868 19.4727C67.0275 19.8563 66.7942 20.2048 66.5003 20.4982C66.2064 20.7917 65.8575 21.0243 65.4737 21.1829C65.0899 21.3415 64.6786 21.423 64.2633 21.4226C63.848 21.4222 63.4368 21.34 63.0533 21.1807C62.287 20.8688 61.6757 20.2656 61.3536 19.5033C61.0315 18.7411 61.0249 17.8822 61.3353 17.1151C61.4874 16.7238 61.716 16.3667 62.0077 16.0648C62.2995 15.7628 62.6484 15.5221 63.0343 15.3567C63.4201 15.1912 63.8351 15.1044 64.2548 15.1013C64.6746 15.0981 65.0908 15.1787 65.4791 15.3384" fill="#C2433A"/>
<path d="M100.633 22.9037C100.593 22.8245 100.556 22.743 100.524 22.6596C100.365 21.9901 100.434 21.2844 100.72 20.6614C100.901 20.2202 101.126 19.7993 101.39 19.4053C103.901 15.9294 106.425 12.4632 108.962 9.00651C109.155 8.74297 109.381 8.50741 109.634 8.30619C110.357 7.74401 111.552 8.28371 111.68 9.2089C111.707 9.65449 111.614 10.0991 111.412 10.4939C110.403 12.9386 109.385 15.3801 108.383 17.8312C108.235 18.2017 108.121 18.5857 108.043 18.9781C107.987 19.2201 108.005 19.4744 108.097 19.7049C108.188 19.9355 108.346 20.1307 108.551 20.2631C108.794 20.4414 109.055 20.5922 109.329 20.7128C111.432 21.5888 113.539 22.4604 115.65 23.3278C116.145 23.5334 116.649 23.7229 117.126 23.9703C117.462 24.132 117.729 24.4158 117.876 24.7677C118.023 25.1196 118.04 25.5149 117.923 25.8785C117.82 26.2839 117.584 26.6402 117.256 26.8872L116.964 27.0189C116.633 27.0493 116.301 27.0493 115.97 27.0189C111.572 26.2458 107.174 25.4598 102.775 24.661C102.102 24.4928 101.496 24.1148 101.038 23.5784C100.878 23.3622 100.743 23.1284 100.633 22.8812" fill="#2DA955"/>
<path d="M114.699 20.406C114.321 20.5924 113.909 20.6983 113.489 20.7172C113.069 20.7361 112.65 20.6675 112.257 20.5158C111.864 20.364 111.506 20.1322 111.205 19.8348C110.904 19.5373 110.666 19.1804 110.506 18.7861C110.346 18.3918 110.267 17.9684 110.274 17.542C110.282 17.1156 110.375 16.6953 110.549 16.3069C110.722 15.9186 110.972 15.5704 111.284 15.2838C111.595 14.9972 111.961 14.7783 112.359 14.6407C113.1 14.3237 113.935 14.3181 114.681 14.6252C115.426 14.9324 116.021 15.5271 116.334 16.2787C116.499 16.658 116.588 17.0669 116.595 17.4814C116.602 17.8959 116.528 18.3077 116.376 18.6927C116.224 19.0776 115.999 19.4281 115.712 19.7234C115.425 20.0188 115.083 20.2531 114.706 20.4127" fill="#02B784"/>
<path d="M85.6069 20.983C86.177 21.5894 86.9474 21.991 87.7898 22.1207C87.9009 22.1264 88.0123 22.1264 88.1234 22.1207C88.4617 22.1099 88.798 22.0661 89.127 21.9898C89.9705 21.7227 90.7083 21.2156 91.2414 20.5365C92.6689 18.4395 94.0963 16.3424 95.5238 14.2454C90.8814 12.6523 85.8163 12.5783 81.125 14.0349C82.2547 15.9026 83.3833 17.7692 84.511 19.6349C84.8266 20.1166 85.1939 20.5656 85.6069 20.9745" fill="#7D55BE"/>
<path d="M75.4626 24.8234C76.0946 24.5798 76.6276 24.112 76.9713 23.4995C77.0074 23.4155 77.0387 23.3293 77.065 23.2413C77.1549 22.9777 77.2188 22.7048 77.2555 22.4271C77.298 21.6925 77.128 20.9616 76.7682 20.332C75.9207 19.0545 75.0722 17.7791 74.2226 16.506C70.9942 19.0757 68.4184 22.4545 66.7262 26.3393C69.1896 25.9686 71.654 25.5946 74.1195 25.2173C74.5786 25.1308 75.0277 24.9933 75.4595 24.8069" fill="#D54A41"/>
<path d="M100.731 20.5552C100.433 21.2051 100.362 21.9409 100.529 22.6385C100.555 22.7256 100.61 22.816 100.64 22.8931C100.756 23.1493 100.898 23.3928 101.062 23.6199C101.541 24.1792 102.176 24.5732 102.88 24.7486L110.976 26.1988C109.25 22.3914 106.66 19.0671 103.426 16.506C102.758 17.4192 102.094 18.3324 101.433 19.2457C101.155 19.6556 100.919 20.0945 100.731 20.5552" fill="#33BB5F"/>
</svg>
