<svg width="108" height="108" viewBox="0 0 108 108" fill="none" xmlns="http://www.w3.org/2000/svg">
<path d="M35.9614 3.52831C46.6436 -0.250264 58.2477 -0.550111 69.1107 2.67175C79.9737 5.89361 89.5379 12.4718 96.4325 21.4634C103.327 30.4551 107.198 41.3986 107.491 52.7256C107.784 64.0525 104.483 75.1814 98.0618 84.5171C91.6408 93.8528 82.4291 100.916 71.7469 104.695C61.0648 108.473 49.4607 108.773 38.5977 105.551C27.7347 102.329 18.1705 95.7513 11.2759 86.7596C4.38126 77.768 0.510216 66.8244 0.217533 55.4975C-0.0751496 44.1705 3.22556 33.0417 9.64658 23.7059C16.0676 14.3702 25.2793 7.30689 35.9614 3.52831Z" fill="#FE6600"/>
</svg>
